<?xml version="1.0" encoding="utf-8"?>
<!-- Generator: Adobe Illustrator 21.1.0, SVG Export Plug-In . SVG Version: 6.00 Build 0)  -->
<svg version="1.1" id="Layer_1" xmlns="http://www.w3.org/2000/svg" xmlns:xlink="http://www.w3.org/1999/xlink" x="0px" y="0px"
	 viewBox="0 0 102 35" style="enable-background:new 0 0 102 35;" xml:space="preserve">
<style type="text/css">
	.st0{opacity:0.1;}
	.st1{fill:#FFFFFF;}
</style>
<g class="st0">
	<g>
		<path class="st1" d="M13.3,8.5c-0.1,0.1-0.3,0.1-0.5,0.1C11.8,8.7,12,7.5,12.4,7c0-0.1,0.1-0.1,0.2-0.1c0.1,0,0.2,0,0.3,0
			c0.4,0.1,0.9,0.2,1.1,0.6c0.1,0.2,0,0.5-0.1,0.7C13.7,8.3,13.5,8.4,13.3,8.5z"/>
		<path class="st1" d="M7,2.2C6.7,2,6.8,1.4,6.9,1.1C7,0.8,7.2,0.6,7.5,0.5c0.4-0.1,0.8,0.2,0.9,0.6c0.1,0.4-0.1,0.8-0.4,1
			C7.7,2.3,7.5,2.4,7.3,2.4C7.1,2.3,7,2.3,7,2.2z"/>
		<path class="st1" d="M9.8,10.3c-0.1,0-0.1-0.1-0.2-0.1c-0.2-0.1-0.4-0.1-0.5,0c-0.6,0.2-0.3,1.4,0.1,1.6c0.3,0.2,0.6,0.1,0.8,0
			c0.3-0.2,0.4-0.6,0.5-0.9c0-0.1,0-0.2,0-0.2c0,0-0.1-0.1-0.1-0.1C10.2,10.5,10,10.4,9.8,10.3z"/>
	</g>
	<g>
		<path class="st1" d="M17.4,10c-0.3-0.3-0.2-0.8,0-1.1c0.1-0.3,0.3-0.5,0.6-0.5c0.4-0.1,0.8,0.2,0.9,0.6c0.1,0.4-0.1,0.8-0.4,1
			c-0.2,0.1-0.4,0.2-0.7,0.2C17.6,10.1,17.5,10.1,17.4,10z"/>
		<path class="st1" d="M19.1,13.2c-0.1,0-0.1-0.1-0.2-0.1c-0.2-0.1-0.4-0.1-0.5,0c-0.6,0.2-0.3,1.4,0.1,1.6c0.3,0.2,0.6,0.1,0.8,0
			c0.3-0.2,0.4-0.6,0.5-0.9c0-0.1,0-0.2,0-0.2c0,0-0.1-0.1-0.1-0.1C19.4,13.4,19.3,13.3,19.1,13.2z"/>
	</g>
	<g>
		<path class="st1" d="M13.1,2.7c-0.3-0.4-0.4-0.8,0-1.1c0.2-0.1,0.4-0.1,0.7-0.1c0.3,0,0.6,0,0.9,0.2C15,2,15.1,2.5,14.8,2.9
			c-0.3,0.3-0.8,0.4-1.2,0.3C13.5,3.1,13.3,2.9,13.1,2.7z"/>
		<path class="st1" d="M10.6,4.3c0,0,0.1,0,0.1,0.1c0.1,0.1,0,0.3,0,0.4c-0.2,0.5-0.5,0.9-1,1.1C8.5,6.1,7.9,4.5,9,4.4
			c0.2,0,0.5,0.1,0.7,0.1c0.2,0,0.3-0.1,0.5-0.2C10.4,4.2,10.5,4.2,10.6,4.3z"/>
		<path class="st1" d="M19,2.9c0,0-0.1,0.1-0.1,0.1c-0.4,0.5-1,2.3,0.4,2c0.4-0.1,0.7-0.4,0.8-0.7c0.1-0.2,0.2-0.6,0.1-0.8
			c-0.1-0.1-0.2-0.2-0.3-0.3c-0.2-0.1-0.3-0.2-0.5-0.4c-0.1,0-0.1-0.1-0.2-0.1C19.1,2.8,19,2.8,19,2.9z"/>
	</g>
	<g>
		<path class="st1" d="M5.6,12.8c-0.7,0-0.9-0.9-0.6-1.5c0-0.1,0.1-0.2,0.2-0.2c0.1,0,0.1,0,0.2,0c0.1,0,0.2-0.1,0.4-0.1
			C6,11,6.2,11.2,6.4,11.4c0.3,0.4,0.1,1.1-0.4,1.3C5.8,12.8,5.7,12.8,5.6,12.8z"/>
		<path class="st1" d="M13.6,12.9c-0.2,0-0.4,0.1-0.6,0.2c-0.8,0.6,0.3,1.4,0.8,1.6c0.1,0,0.2,0.1,0.3,0.1c0.1,0,0.2-0.1,0.3-0.1
			c0.4-0.2,0.7-0.7,0.5-1.1c-0.1-0.2-0.3-0.4-0.5-0.5s-0.5-0.1-0.7-0.1C13.7,12.9,13.6,12.9,13.6,12.9z"/>
		<path class="st1" d="M9.1,16.4c0,0-0.1,0-0.1,0.1c-0.4,0.2-0.9,0.8-0.8,1.2c0,0.4,0.5,0.8,0.9,0.8c0.3,0,0.5-0.3,0.8-0.5
			c0.1-0.1,0.2-0.3,0.2-0.5c0-0.1-0.1-0.2-0.1-0.3c-0.1-0.2-0.3-0.4-0.5-0.6c-0.1-0.1-0.2-0.2-0.3-0.2C9.2,16.3,9.1,16.4,9.1,16.4z"
			/>
	</g>
</g>
<g class="st0">
	<g>
		<path class="st1" d="M92,8.5c-0.1,0.1-0.3,0.1-0.5,0.1c-1.1,0.1-0.8-1.1-0.4-1.7c0-0.1,0.1-0.1,0.2-0.1c0.1,0,0.2,0,0.3,0
			C92,6.9,92.5,7,92.6,7.4c0.1,0.2,0,0.5-0.1,0.7C92.4,8.3,92.2,8.4,92,8.5z"/>
		<path class="st1" d="M85.7,2.2c-0.3-0.3-0.2-0.8,0-1.1c0.1-0.3,0.3-0.5,0.6-0.5c0.4-0.1,0.8,0.2,0.9,0.6s-0.1,0.8-0.4,1
			c-0.2,0.1-0.4,0.2-0.7,0.2C85.8,2.3,85.7,2.3,85.7,2.2z"/>
		<path class="st1" d="M88.5,10.3c-0.1,0-0.1-0.1-0.2-0.1c-0.2-0.1-0.4-0.1-0.5,0c-0.6,0.2-0.3,1.4,0.1,1.6c0.3,0.2,0.6,0.1,0.8,0
			c0.3-0.2,0.4-0.6,0.5-0.9c0-0.1,0-0.2,0-0.2c0,0-0.1-0.1-0.1-0.1C88.9,10.5,88.7,10.4,88.5,10.3z"/>
	</g>
	<g>
		<path class="st1" d="M96.1,10c-0.3-0.3-0.2-0.8,0-1.1c0.1-0.3,0.3-0.5,0.6-0.5c0.4-0.1,0.8,0.2,0.9,0.6c0.1,0.4-0.1,0.8-0.4,1
			c-0.2,0.1-0.4,0.2-0.7,0.2C96.3,10.1,96.2,10.1,96.1,10z"/>
		<path class="st1" d="M97.8,13.2c-0.1,0-0.1-0.1-0.2-0.1c-0.2-0.1-0.4-0.1-0.5,0c-0.6,0.2-0.3,1.4,0.1,1.6c0.3,0.2,0.6,0.1,0.8,0
			c0.3-0.2,0.4-0.6,0.5-0.9c0-0.1,0-0.2,0-0.2c0,0-0.1-0.1-0.1-0.1C98.2,13.4,98,13.3,97.8,13.2z"/>
	</g>
	<g>
		<path class="st1" d="M91.8,2.7c-0.3-0.4-0.4-0.8,0-1.1c0.2-0.1,0.4-0.1,0.7-0.1c0.3,0,0.6,0,0.9,0.2c0.3,0.3,0.4,0.8,0.1,1.1
			c-0.3,0.3-0.8,0.4-1.2,0.3C92.2,3.1,92,2.9,91.8,2.7z"/>
		<path class="st1" d="M89.3,4.3c0,0,0.1,0,0.1,0.1c0.1,0.1,0,0.3,0,0.4c-0.2,0.5-0.5,0.9-1,1.1c-1.1,0.3-1.8-1.3-0.6-1.4
			c0.2,0,0.5,0.1,0.7,0.1c0.2,0,0.3-0.1,0.5-0.2C89.1,4.2,89.2,4.2,89.3,4.3z"/>
		<path class="st1" d="M97.7,2.9c0,0-0.1,0.1-0.1,0.1c-0.4,0.5-1,2.3,0.4,2c0.4-0.1,0.7-0.4,0.8-0.7c0.1-0.2,0.2-0.6,0.1-0.8
			c-0.1-0.1-0.2-0.2-0.3-0.3c-0.2-0.1-0.3-0.2-0.5-0.4c-0.1,0-0.1-0.1-0.2-0.1C97.8,2.8,97.7,2.8,97.7,2.9z"/>
	</g>
	<g>
		<path class="st1" d="M84.3,12.8c-0.7,0-0.9-0.9-0.6-1.5c0-0.1,0.1-0.2,0.2-0.2c0.1,0,0.1,0,0.2,0c0.1,0,0.2-0.1,0.4-0.1
			c0.3-0.1,0.5,0.1,0.7,0.4c0.3,0.4,0.1,1.1-0.4,1.3C84.6,12.8,84.4,12.8,84.3,12.8z"/>
		<path class="st1" d="M92.3,12.9c-0.2,0-0.4,0.1-0.6,0.2c-0.8,0.6,0.3,1.4,0.8,1.6c0.1,0,0.2,0.1,0.3,0.1c0.1,0,0.2-0.1,0.3-0.1
			c0.4-0.2,0.7-0.7,0.5-1.1c-0.1-0.2-0.3-0.4-0.5-0.5c-0.2-0.1-0.5-0.1-0.7-0.1C92.4,12.9,92.4,12.9,92.3,12.9z"/>
		<path class="st1" d="M87.8,16.4c0,0-0.1,0-0.1,0.1c-0.4,0.2-0.9,0.8-0.8,1.2c0,0.4,0.5,0.8,0.9,0.8c0.3,0,0.5-0.3,0.8-0.5
			c0.1-0.1,0.2-0.3,0.2-0.5c0-0.1-0.1-0.2-0.1-0.3c-0.1-0.2-0.3-0.4-0.5-0.6c-0.1-0.1-0.2-0.2-0.3-0.2
			C87.9,16.3,87.8,16.4,87.8,16.4z"/>
	</g>
</g>
<g class="st0">
	<g>
		<path class="st1" d="M11.3,24.5c-0.1,0.1-0.3,0.1-0.5,0.1c-1.1,0.1-0.8-1.1-0.4-1.7c0-0.1,0.1-0.1,0.2-0.1c0.1,0,0.2,0,0.3,0
			c0.4,0.1,0.9,0.2,1.1,0.6c0.1,0.2,0,0.5-0.1,0.7C11.7,24.3,11.5,24.4,11.3,24.5z"/>
		<path class="st1" d="M5,18.2c-0.3-0.3-0.2-0.8,0-1.1c0.1-0.3,0.3-0.5,0.6-0.5c0.4-0.1,0.8,0.2,0.9,0.6c0.1,0.4-0.1,0.8-0.4,1
			c-0.2,0.1-0.4,0.2-0.7,0.2C5.1,18.3,5,18.3,5,18.2z"/>
		<path class="st1" d="M7.8,26.3c-0.1,0-0.1-0.1-0.2-0.1c-0.2-0.1-0.4-0.1-0.5,0c-0.6,0.2-0.3,1.4,0.1,1.6C7.4,28,7.8,28,8,27.8
			c0.3-0.2,0.4-0.6,0.5-0.9c0-0.1,0-0.2,0-0.2c0,0-0.1-0.1-0.1-0.1C8.2,26.5,8,26.4,7.8,26.3z"/>
	</g>
	<g>
		<path class="st1" d="M15.4,26c-0.3-0.3-0.2-0.8,0-1.1c0.1-0.3,0.3-0.5,0.6-0.5c0.4-0.1,0.8,0.2,0.9,0.6c0.1,0.4-0.1,0.8-0.4,1
			c-0.2,0.1-0.4,0.2-0.7,0.2C15.6,26.1,15.5,26.1,15.4,26z"/>
		<path class="st1" d="M17.1,29.2c-0.1,0-0.1-0.1-0.2-0.1c-0.2-0.1-0.4-0.1-0.5,0c-0.6,0.2-0.3,1.4,0.1,1.6c0.3,0.2,0.6,0.1,0.8,0
			c0.3-0.2,0.4-0.6,0.5-0.9c0-0.1,0-0.2,0-0.2c0,0-0.1-0.1-0.1-0.1C17.4,29.4,17.3,29.3,17.1,29.2z"/>
	</g>
	<g>
		<path class="st1" d="M11.1,18.7c-0.3-0.4-0.4-0.8,0-1.1c0.2-0.1,0.4-0.1,0.7-0.1c0.3,0,0.6,0,0.9,0.2c0.3,0.3,0.4,0.8,0.1,1.1
			c-0.3,0.3-0.8,0.4-1.2,0.3C11.5,19.1,11.3,18.9,11.1,18.7z"/>
		<path class="st1" d="M8.6,20.3c0,0,0.1,0,0.1,0.1c0.1,0.1,0,0.3,0,0.4c-0.2,0.5-0.5,0.9-1,1.1c-1.1,0.3-1.8-1.3-0.6-1.4
			c0.2,0,0.5,0.1,0.7,0.1c0.2,0,0.3-0.1,0.5-0.2C8.4,20.2,8.5,20.2,8.6,20.3z"/>
		<path class="st1" d="M17,18.9c0,0-0.1,0.1-0.1,0.1c-0.4,0.5-1,2.3,0.4,2c0.4-0.1,0.7-0.4,0.8-0.7c0.1-0.2,0.2-0.6,0.1-0.8
			c-0.1-0.1-0.2-0.2-0.3-0.3c-0.2-0.1-0.3-0.2-0.5-0.4c-0.1,0-0.1-0.1-0.2-0.1C17.1,18.8,17,18.8,17,18.9z"/>
	</g>
	<g>
		<path class="st1" d="M3.6,28.8c-0.7,0-0.9-0.9-0.6-1.5c0-0.1,0.1-0.2,0.2-0.2c0.1,0,0.1,0,0.2,0c0.1,0,0.2-0.1,0.4-0.1
			C4,27,4.2,27.2,4.4,27.4c0.3,0.4,0.1,1.1-0.4,1.3C3.8,28.8,3.7,28.8,3.6,28.8z"/>
		<path class="st1" d="M11.6,28.9c-0.2,0-0.4,0.1-0.6,0.2c-0.8,0.6,0.3,1.4,0.8,1.6c0.1,0,0.2,0.1,0.3,0.1c0.1,0,0.2-0.1,0.3-0.1
			c0.4-0.2,0.7-0.7,0.5-1.1c-0.1-0.2-0.3-0.4-0.5-0.5c-0.2-0.1-0.5-0.1-0.7-0.1C11.7,28.9,11.6,28.9,11.6,28.9z"/>
		<path class="st1" d="M7.1,32.4c0,0-0.1,0-0.1,0.1c-0.4,0.2-0.9,0.8-0.8,1.2c0,0.4,0.5,0.8,0.9,0.8c0.3,0,0.5-0.3,0.8-0.5
			c0.1-0.1,0.2-0.3,0.2-0.5c0-0.1-0.1-0.2-0.1-0.3c-0.1-0.2-0.3-0.4-0.5-0.6c-0.1-0.1-0.2-0.2-0.3-0.2C7.2,32.3,7.1,32.4,7.1,32.4z"
			/>
	</g>
</g>
<g class="st0">
	<g>
		<path class="st1" d="M90,24.5c-0.1,0.1-0.3,0.1-0.5,0.1c-1.1,0.1-0.8-1.1-0.4-1.7c0-0.1,0.1-0.1,0.2-0.1c0.1,0,0.2,0,0.3,0
			c0.4,0.1,0.9,0.2,1.1,0.6c0.1,0.2,0,0.5-0.1,0.7C90.4,24.3,90.2,24.4,90,24.5z"/>
		<path class="st1" d="M83.7,18.2c-0.3-0.3-0.2-0.8,0-1.1c0.1-0.3,0.3-0.5,0.6-0.5c0.4-0.1,0.8,0.2,0.9,0.6s-0.1,0.8-0.4,1
			c-0.2,0.1-0.4,0.2-0.7,0.2C83.8,18.3,83.7,18.3,83.7,18.2z"/>
		<path class="st1" d="M86.5,26.3c-0.1,0-0.1-0.1-0.2-0.1c-0.2-0.1-0.4-0.1-0.5,0c-0.6,0.2-0.3,1.4,0.1,1.6c0.3,0.2,0.6,0.1,0.8,0
			c0.3-0.2,0.4-0.6,0.5-0.9c0-0.1,0-0.2,0-0.2c0,0-0.1-0.1-0.1-0.1C86.9,26.5,86.7,26.4,86.5,26.3z"/>
	</g>
	<g>
		<path class="st1" d="M94.1,26c-0.3-0.3-0.2-0.8,0-1.1c0.1-0.3,0.3-0.5,0.6-0.5c0.4-0.1,0.8,0.2,0.9,0.6c0.1,0.4-0.1,0.8-0.4,1
			c-0.2,0.1-0.4,0.2-0.7,0.2C94.3,26.1,94.2,26.1,94.1,26z"/>
		<path class="st1" d="M95.8,29.2c-0.1,0-0.1-0.1-0.2-0.1c-0.2-0.1-0.4-0.1-0.5,0c-0.6,0.2-0.3,1.4,0.1,1.6c0.3,0.2,0.6,0.1,0.8,0
			c0.3-0.2,0.4-0.6,0.5-0.9c0-0.1,0-0.2,0-0.2c0,0-0.1-0.1-0.1-0.1C96.2,29.4,96,29.3,95.8,29.2z"/>
	</g>
	<g>
		<path class="st1" d="M89.8,18.7c-0.3-0.4-0.4-0.8,0-1.1c0.2-0.1,0.4-0.1,0.7-0.1c0.3,0,0.6,0,0.9,0.2c0.3,0.3,0.4,0.8,0.1,1.1
			c-0.3,0.3-0.8,0.4-1.2,0.3C90.2,19.1,90,18.9,89.8,18.7z"/>
		<path class="st1" d="M87.3,20.3c0,0,0.1,0,0.1,0.1c0.1,0.1,0,0.3,0,0.4c-0.2,0.5-0.5,0.9-1,1.1c-1.1,0.3-1.8-1.3-0.6-1.4
			c0.2,0,0.5,0.1,0.7,0.1c0.2,0,0.3-0.1,0.5-0.2C87.1,20.2,87.2,20.2,87.3,20.3z"/>
		<path class="st1" d="M95.7,18.9c0,0-0.1,0.1-0.1,0.1c-0.4,0.5-1,2.3,0.4,2c0.4-0.1,0.7-0.4,0.8-0.7c0.1-0.2,0.2-0.6,0.1-0.8
			c-0.1-0.1-0.2-0.2-0.3-0.3c-0.2-0.1-0.3-0.2-0.5-0.4c-0.1,0-0.1-0.1-0.2-0.1C95.8,18.8,95.7,18.8,95.7,18.9z"/>
	</g>
	<g>
		<path class="st1" d="M82.3,28.8c-0.7,0-0.9-0.9-0.6-1.5c0-0.1,0.1-0.2,0.2-0.2c0.1,0,0.1,0,0.2,0c0.1,0,0.2-0.1,0.4-0.1
			c0.3-0.1,0.5,0.1,0.7,0.4c0.3,0.4,0.1,1.1-0.4,1.3C82.6,28.8,82.4,28.8,82.3,28.8z"/>
		<path class="st1" d="M90.3,28.9c-0.2,0-0.4,0.1-0.6,0.2c-0.8,0.6,0.3,1.4,0.8,1.6c0.1,0,0.2,0.1,0.3,0.1c0.1,0,0.2-0.1,0.3-0.1
			c0.4-0.2,0.7-0.7,0.5-1.1c-0.1-0.2-0.3-0.4-0.5-0.5c-0.2-0.1-0.5-0.1-0.7-0.1C90.4,28.9,90.4,28.9,90.3,28.9z"/>
		<path class="st1" d="M85.8,32.4c0,0-0.1,0-0.1,0.1c-0.4,0.2-0.9,0.8-0.8,1.2c0,0.4,0.5,0.8,0.9,0.8c0.3,0,0.5-0.3,0.8-0.5
			c0.1-0.1,0.2-0.3,0.2-0.5c0-0.1-0.1-0.2-0.1-0.3c-0.1-0.2-0.3-0.4-0.5-0.6c-0.1-0.1-0.2-0.2-0.3-0.2
			C85.9,32.3,85.8,32.4,85.8,32.4z"/>
	</g>
</g>
</svg>
