<?xml version="1.0" encoding="utf-8"?>
<!-- Generator: Adobe Illustrator 21.1.0, SVG Export Plug-In . SVG Version: 6.00 Build 0)  -->
<svg version="1.1" id="Layer_1" xmlns="http://www.w3.org/2000/svg" xmlns:xlink="http://www.w3.org/1999/xlink" x="0px" y="0px"
	 viewBox="0 0 241 206" style="enable-background:new 0 0 241 206;" xml:space="preserve">
<style type="text/css">
	.st0{fill:#00A184;}
	.st1{fill:#FFFFFF;}
</style>
<circle class="st0" cx="163.4" cy="77.5" r="75.5"/>
<g>
	<g>
		<path class="st1" d="M74,129.9c-2.7-0.1-6.7,1.9-8.4,2.5c-20.7,6.6-41.9,12.1-63.2,16.5c-1.1,1.3-0.1,3.4,1.4,4s3.2,0.4,4.9,0.1
			c21.8-4.1,43.2-9.9,64.2-17.2c2-0.7,5.6-3,3.1-5.3C75.4,130.1,74.8,129.9,74,129.9z"/>
	</g>
	<g>
		<path class="st1" d="M136.3,171.1c-0.7-0.2-1.5,0.1-2.2,1.4c-0.5,0.9-0.5,2-0.5,3.1c0.1,7.9,0.2,15.8,0.2,23.7
			c0,1.2,0,2.4,0.5,3.6c0.5,1.1,1.5,2.1,2.7,2.1c1.3,0,2.4-1,2.9-2.3c0.5-1.2,0.4-2.6,0.3-3.9c-0.4-7.8-0.8-15.7-1.3-23.5
			C138.9,173.9,137.7,171.6,136.3,171.1z"/>
	</g>
	<g>
		<path class="st1" d="M22.1,89.3c-1.6,0-3.2,0-4.8,0.1c-2,0-4.8,0.9-4.5,2.9c0.2,1.7,2.3,2.2,4,2.3c16.4,1.3,32.8,2.5,49.2,3.8
			c1.7,0.1,4.9,0,4.7-2.5c-0.1-2.1-2.9-2.2-4.5-2.5c-5.3-1.1-10.8-1.8-16.2-2.5C40.7,89.8,31.4,89.3,22.1,89.3z"/>
	</g>
	<g>
		<path class="st1" d="M111.9,153.9C111.9,153.9,111.9,153.9,111.9,153.9c-1.9,0.1-3.8,3.3-4.7,4.6c-6.9,9.7-17.1,16.4-26.9,23.2
			c-2.1,1.4-4.2,3-5.6,5.1c-0.5,0.7-0.9,1.6-0.5,2.5c0.7,1.7,3.3,1.1,4.9,0.1c12-7.3,22.9-16.3,32.4-26.6c1.1-1.2,2.2-2.5,2.7-4.1
			C114.7,156.8,114.2,153.9,111.9,153.9z"/>
	</g>
</g>
<g>
	<path class="st1" d="M143.9,53.5c-0.5,0.1-1.5,0.1-2.8,0.2c-1.3,0.1-2.7,0.2-4.2,0.4c-1.5,0.2-2.8,0.5-4.1,0.8
		c-1.3,0.4-2.1,0.9-2.5,1.5c-0.5,0.7-0.7,2.4-0.5,5.2c0.1,2.8,0.4,6.2,0.8,10.1c2.2-0.3,4.5-0.6,6.8-0.9c2.4-0.3,4.7-0.6,7.2-0.9
		c0.6-0.1,0.9,0.1,1,0.6c0.1,0.5-0.2,0.9-0.8,1.1c-1.8,0.3-4,0.7-6.6,1.1c-2.6,0.4-5.1,0.9-7.5,1.3c0.2,2.1,0.4,4.2,0.6,6.4
		c0.2,2.2,0.5,4.4,0.7,6.6c0.2,2.2,0.4,4.3,0.5,6.3c0.1,2.1,0.3,4,0.4,5.8c0,0.5-0.2,0.9-0.7,1.2c-0.5,0.3-1,0.5-1.6,0.5
		c-0.6,0.1-1.1,0-1.7-0.3c-0.5-0.2-0.8-0.6-0.8-1.2c-0.3-1.2-0.6-2.7-1-4.5c-0.4-1.8-0.7-3.8-1.2-5.9c-0.4-2.1-0.8-4.4-1.2-6.7
		c-0.4-2.3-0.7-4.6-1-7h-0.3c-0.3,0.1-0.5,0-0.7-0.3c-0.2-0.2-0.3-0.5-0.4-0.8c-0.1-0.3,0-0.6,0-0.8c0.1-0.3,0.3-0.4,0.6-0.5
		c0.2,0,0.3,0,0.4-0.1c-0.2-2-0.4-4-0.6-5.9c-0.1-1.9-0.2-3.6-0.2-5.1c0-1.5,0.1-2.8,0.2-3.9c0.1-1.1,0.4-1.8,0.8-2.2
		c0.7-0.8,1.8-1.4,3.3-2c1.6-0.6,3.3-1,5.3-1.3c2-0.3,4-0.5,6-0.6c2-0.1,3.8-0.2,5.4-0.2c0.8,0,1.2,0.3,1.2,0.9
		C145,53.2,144.6,53.5,143.9,53.5z"/>
	<path class="st1" d="M158.5,76.8c0.3,0.5,0.4,1.1,0.4,1.6c0,0.5-0.1,0.9-0.3,1c0.1,1.2,0.2,2.3,0.4,3.4c0.2,1.1,0.4,2.2,0.6,3.3
		c0.2,1.1,0.4,2.3,0.7,3.5c0.2,1.3,0.4,2.7,0.6,4.3c0.1,0.5-0.1,0.8-0.4,1.1c-0.3,0.3-0.7,0.4-1.1,0.4c-0.4,0-0.9,0-1.3-0.1
		c-0.4-0.1-0.7-0.3-0.9-0.6c-0.4-0.8-0.8-2-1.2-3.5c-0.4-1.5-0.8-3.1-1.2-4.9c-0.2,0.6-0.5,1.4-0.9,2.4c-0.4,1-1,1.9-1.7,2.7
		c-0.7,0.8-1.5,1.5-2.4,1.9c-0.9,0.4-1.9,0.4-3,0c-1-0.4-1.8-1.1-2.2-2.1c-0.5-1.1-0.7-2.3-0.8-3.6c0-1.3,0.1-2.7,0.5-4.1
		c0.4-1.4,1-2.7,1.7-3.8c0.8-1.1,1.7-2,2.8-2.7c1.1-0.7,2.3-1,3.7-0.8c0.1-0.5,0.1-1.1,0.1-1.6s0-1.1,0-1.7v-0.1
		c0-0.6,0.3-1,0.9-1.3c0.6-0.3,1.2-0.4,1.9-0.4c0.7,0,1.3,0.1,1.9,0.4c0.6,0.3,0.9,0.7,0.9,1.3v0.1c0,0.6,0,1.2,0,1.9
		C158.4,75.3,158.5,76.1,158.5,76.8z M152.6,79.3c-1.7-0.1-3,0.5-4.1,1.7s-1.8,2.5-2.2,4c-0.4,1.5-0.4,2.9-0.1,4.3
		c0.3,1.3,1.1,2.1,2.2,2.3c0.9,0.2,1.6-0.2,2.2-1.3c0.6-1,1-2.2,1.3-3.7c0.3-1.4,0.5-2.8,0.6-4.2C152.6,81,152.6,80,152.6,79.3z"/>
	<path class="st1" d="M182.3,77.5c0.1,0.5,0.1,1,0,1.3c-0.1,0.3-0.3,0.5-0.6,0.6c-0.2,0.1-0.5,0-0.8-0.1c-0.3-0.2-0.5-0.5-0.7-1
		c-0.7-2.1-1.4-3.6-2.1-4.7c-0.7-1-1.4-1.7-2.1-1.8c-0.8-0.2-1.6,0-2.2,0.6c-0.6,0.6-1.1,1.4-1.5,2.5c-0.4,1.1-0.6,2.4-0.7,4
		c-0.1,1.5,0,3.2,0.3,5c0.4,2.9,1.2,5.3,2.3,7.2c1.1,1.9,2.3,3.1,3.7,3.7c1.3,0.5,2.7,0.3,4.2-0.7c1.4-1,2.7-3,3.8-6
		c0.3-0.8,0.7-1.1,1.3-0.9c0.5,0.1,0.7,0.6,0.5,1.4c-0.4,1.1-0.8,2.2-1.3,3.3c-0.5,1.1-1.2,2.1-2,3c-0.8,0.9-1.8,1.7-2.9,2.3
		c-1.1,0.6-2.3,1-3.7,1.2c-2.9,0.3-5.1-0.4-6.8-2.1c-1.7-1.7-3-3.8-3.8-6.4c-0.3-0.8-0.5-1.7-0.7-2.7c-0.2-1-0.3-2-0.4-3.1
		c-0.1-1.4-0.1-2.9-0.1-4.5c0.1-1.6,0.3-3.1,0.6-4.5c0.4-1.4,0.9-2.7,1.7-3.8c0.8-1.1,1.8-2,3.1-2.6c1.1-0.4,2.1-0.6,3.2-0.6
		s2.1,0.3,3.1,0.9c1,0.6,1.9,1.6,2.7,3C181.1,73.3,181.8,75.1,182.3,77.5z"/>
	<path class="st1" d="M193.8,71.7l-7.1,0.7c-0.5,0-0.7-0.3-0.8-0.8c-0.1-0.5,0.2-0.9,0.7-1l7.1-0.8l-1-13.1
		c-0.1-0.7,0.2-1.1,0.8-1.5c0.6-0.3,1.2-0.5,1.9-0.5c0.7,0,1.3,0.2,2,0.5c0.6,0.3,1,0.8,1,1.6l0.9,12.4l5.9-0.7
		c0.5,0.1,0.7,0.5,0.8,1c0,0.6-0.2,0.9-0.7,1l-5.8,0.6l2.1,26.4c0.1,0.7-0.2,1.1-0.8,1.4c-0.6,0.3-1.2,0.4-1.9,0.4
		c-0.7,0-1.4-0.2-2-0.5c-0.6-0.3-0.9-0.8-1-1.4L193.8,71.7z"/>
</g>
</svg>
