<?xml version="1.0" encoding="utf-8"?>
<!-- Generator: Adobe Illustrator 21.1.0, SVG Export Plug-In . SVG Version: 6.00 Build 0)  -->
<svg version="1.1" id="Layer_1" xmlns="http://www.w3.org/2000/svg" xmlns:xlink="http://www.w3.org/1999/xlink" x="0px" y="0px"
	 viewBox="0 0 200 200" style="enable-background:new 0 0 200 200;" xml:space="preserve">
<style type="text/css">
	.st0{fill:#00A184;}
	.st1{enable-background:new    ;}
	.st2{fill:#FFFFFF;}
</style>
<circle class="st0" cx="100.3" cy="100.4" r="100"/>
<g class="st1">
	<path class="st2" d="M121.4,44.1c5.4,2.6,9.5,6,12.3,10.3c2.8,4.3,4.2,9,4.2,14.1c0,4.6-0.8,8.6-2.4,11.9c-1.6,3.3-3.6,6-5.9,8.1
		c-2.3,2.1-5.3,4.4-9.1,7c-4.8,3.1-8.3,6-10.6,8.7c-2.3,2.7-3.5,6.2-3.5,10.6v5.9H85.6V114c0-5.2,0.8-9.7,2.5-13.3
		c1.7-3.7,3.7-6.6,6-8.7c2.3-2.1,5.3-4.5,9.1-7.1c3.9-2.7,6.8-5,8.6-7c1.8-2,2.7-4.5,2.7-7.7c0-3.8-1.3-6.8-3.9-9
		c-2.6-2.1-6.2-3.2-10.7-3.2c-8.3,0-15.6,3.8-22.1,11.5L63.3,58.2c10.1-12,22.9-18,38.5-18C109.4,40.3,116,41.5,121.4,44.1z
		 M106.3,141.8c2.8,2.7,4.2,6.1,4.2,10c0,3.8-1.4,7.1-4.2,9.9c-2.8,2.8-6.2,4.2-10.1,4.2c-3.8,0-7.1-1.4-9.8-4.2
		c-2.7-2.8-4.1-6.1-4.1-9.9c0-3.9,1.3-7.3,4-10c2.7-2.7,6-4.1,9.9-4.1C100.2,137.7,103.5,139.1,106.3,141.8z"/>
</g>
</svg>
