<?xml version="1.0" encoding="utf-8"?>
<!-- Generator: Adobe Illustrator 21.1.0, SVG Export Plug-In . SVG Version: 6.00 Build 0)  -->
<svg version="1.1" id="Layer_1" xmlns="http://www.w3.org/2000/svg" xmlns:xlink="http://www.w3.org/1999/xlink" x="0px" y="0px"
	 viewBox="0 0 148 178" style="enable-background:new 0 0 148 178;" xml:space="preserve">
<style type="text/css">
	.st0{fill:#65D8CC;}
	.st1{fill:#66D9CC;}
	.st2{fill:#65D9CC;}
</style>
<g>
	<path class="st0" d="M65.9,3.8c0.4,0.3,0.7,0.9,0.9,1.4c2.6,6.1,4.3,12.5,6.1,18.9c6.4,22.3,14.2,44.1,23.5,65.4c0.8,1.8,1,4.9-1,5
		c-1.2,0.1-2.1-1.2-2.6-2.4c-12.6-26.8-21.6-55.4-29.4-84c-0.3-1-0.6-2.1-0.2-3.2c0.3-1,1.5-1.8,2.5-1.3C65.8,3.7,65.9,3.7,65.9,3.8
		z"/>
	<path class="st1" d="M7.4,175.1c-0.9-0.7-1.5-1.9-1-2.9c1.5-3.3,12.3-2.6,15.4-2.8c6.9-0.7,13.8-1.3,20.7-2c1-0.1,2-0.2,2.9,0.2
		c0.9,0.3,1.7,1.3,1.5,2.2c-0.2,1.3-1.9,1.8-3.2,2c-5.5,0.7-11,1.4-16.5,2.1c-5.2,0.7-10.3,1.3-15.5,1.8c-1.3,0.1-2.6,0.2-3.8-0.3
		C7.7,175.3,7.5,175.2,7.4,175.1z"/>
	<path class="st2" d="M144.8,33.5c-0.2-6.2-0.6-12.4-1.2-18.6c-0.2-1.7-1.2-4.4-3.3-3c-1.5,1-0.8,6-0.8,7.5
		c-0.1,20.1-0.2,40.3-0.4,60.4c0,1.6,0.8,3.9,2.4,3.4c0.9-0.3,1.2-1.5,1.3-2.4C144.7,65.1,145.4,49.3,144.8,33.5z"/>
	<path class="st0" d="M24.6,98.9c1.3,0.4,2.7,1.6,3.3,2.3c12.1,14.5,23.5,30.3,40,39.5c0.9,0.5,1.9,1.1,2,2.1
		c0.2,1.1-0.9,2.1-1.9,2.2c-1.1,0.2-2.2-0.3-3.2-0.7c-3.9-1.8-7.3-4.5-10.5-7.3c-11.4-9.8-20.9-21.5-30.4-33.2
		c-0.7-0.8-1.4-1.8-1.5-2.8C22.2,98.7,23.3,98.4,24.6,98.9z"/>
</g>
</svg>
