<?xml version="1.0" encoding="utf-8"?>
<!-- Generator: Adobe Illustrator 21.1.0, SVG Export Plug-In . SVG Version: 6.00 Build 0)  -->
<svg version="1.1" id="Layer_1" xmlns="http://www.w3.org/2000/svg" xmlns:xlink="http://www.w3.org/1999/xlink" x="0px" y="0px"
	 viewBox="0 0 42.8 43.7" style="enable-background:new 0 0 42.8 43.7;" xml:space="preserve">
<style type="text/css">
	.st0{fill:#65D8CC;}
</style>
<path class="st0" d="M10.7,1.7c1.8,0,3.5,1,4.6,2.4C15.7,4.7,17.5,6.5,18,7c2.4,2.4,3.3,2.2,3.3,2.2s1.8-1.7,3.5-4.7
	c2.4-5,10-4.4,13.1-3.2c3.4,1.3,4.3,5.4,4.2,9.3C42,17.3,37.4,21.1,34,25.5c-3.5,4.6-6.7,9.3-10.1,13.9c-0.9,1.3-2.6,3.3-2.6,3.3
	s-1-2.1-1.5-2.8c-3.8-5-8.5-9.1-12.9-13.6c-5.2-5.5-7.3-11.8-6-18.9C1.3,5.6,2.6,4,4.3,3.2C6.4,2.4,8.5,1.7,10.7,1.7z"/>
</svg>
