<?xml version="1.0" encoding="utf-8"?>
<!-- Generator: Adobe Illustrator 21.1.0, SVG Export Plug-In . SVG Version: 6.00 Build 0)  -->
<svg version="1.1" id="Layer_1" xmlns="http://www.w3.org/2000/svg" xmlns:xlink="http://www.w3.org/1999/xlink" x="0px" y="0px"
	 viewBox="0 0 471 363" style="enable-background:new 0 0 471 363;" xml:space="preserve">
<g>
	<path id="XMLID_69_" d="M319.2,172.8c1.5,4.4,1.9,8.7,1.7,13.1c-0.3,4.4-1.6,8.4-4.9,11.6c-1.1,1-2.4,1.1-3.2,0.2
		c-0.9-0.9-0.7-2.2,0.4-3.2c2.3-2.2,3.2-5,3.6-8.1c0.4-3.5,0-6.9-0.8-10.3c-1-4-3.6-6.5-7.2-8.2c-3.9-1.8-8-2.4-12.2-2.7
		c-7.7-0.6-15.4,0.1-23,0.9c-0.7,0.1-1.4,0.2-2,0.2c-0.9,0-1.2,0.4-1.5,1.2c-2.5,6.7-10.2,10.7-16.7,8.7c-2.2-0.7-4-1.9-5.5-3.6
		c-0.4-0.5-0.8-0.6-1.3-0.3c-0.7,0.4-1.4,0.6-2.2,1c0.9,5.2,1.9,10.4,2.8,15.5c2,11.5,4,23.1,6,34.6c0.3,1.5,0.3,2.9-0.3,4.3
		c-0.2,0.5-0.7,0.9-1.1,1.3c-0.7,0.6-1.6,1.1-2,1.9c-1.1,1.8-2.1,3.6-3,5.5c-1.7,3.2-3.7,6.3-6.4,8.7c-1,1-1.3,1.8-1.3,3.2
		c0.1,4.3,0,8.7,0.9,12.9c0.7,3.5,2,6.7,5.2,8.8c2,1.4,4.4,2,6.8,2.1c4.4,0.3,8.7,0.1,12.8-1.6c7.2-2.8,11.3-10.1,10.4-17.9
		c-0.5-4.6-2.3-8.8-4.2-13c-3.7-8.1-7.3-16.2-9.8-24.8c-0.3-0.9-0.7-1.7-0.9-2.6c-0.1-0.5-0.1-1.2,0.1-1.7c0.2-0.6,0.7-1.2,1.1-1.7
		c2-2.2,4-4.3,6-6.4c0.6-0.6,1.3-1.2,2-1.7c1.2-0.8,2.7-0.2,3.2,1.2c1,3,1.9,6.1,3.2,8.9c3.1,7.2,7.2,13.7,12.8,19.3
		c2.4,2.4,5,4.7,8.4,5.4c7.7,1.6,16.1-2.4,16.4-12.2c0.1-3.3-0.7-6.5-2.3-9.5c-1-1.9-2.4-3.4-4.6-3.7c-3.1-0.4-5.5,1.8-5.8,5.2
		c-0.1,1.5-0.2,2.9,1.2,4c1.2,0.9,2.5,1,3.9,0.7c1.4-0.3,2.5,0.4,2.7,1.7c0.1,1-0.4,1.9-1.3,2.1c-4.1,1.2-8.4-0.4-10-4.3
		c-0.9-2.2-0.7-4.6,0-6.9c1.1-3.4,3.2-5.8,6.8-6.5c3.7-0.7,6.8,0.4,9.2,3.3c2.6,3.2,3.6,7,4.2,11c0.8,5.4-0.6,10.2-4.3,14.2
		c-3.2,3.5-7.4,4.9-12,5.2c-5,0.4-9.1-1.7-12.8-4.7c-5.5-4.5-9.6-10.1-12.9-16.3c-2-3.8-3.6-7.8-5.4-11.8c-0.1-0.2-0.2-0.5-0.3-0.8
		c-0.2,0.1-0.3,0.2-0.4,0.3c-1.3,1.4-2.6,2.8-4,4.2c-0.5,0.5-0.6,0.9-0.4,1.5c1.7,6.4,4.2,12.6,6.9,18.7c1.9,4.3,3.9,8.5,5.6,12.9
		c1.9,4.9,2.7,10,1.6,15.2c-1.6,7.5-6,12.6-13.1,15.4c-0.7,0.3-0.9,0.6-1,1.2c-0.8,5-2.6,9.6-5.5,13.7c-3.4,4.8-8.2,7.6-14.1,8.4
		c-5.6,0.7-11.3,0.8-16.9,0.1c-8.2-1-14-5.4-17.4-13c-1.4-3.1-2.5-6.3-3-9.7c-0.1-0.4-0.5-0.8-0.9-0.9c-6.4-2.8-10.7-7.6-12.3-14.5
		c-1.1-4.7-0.8-9.5,0.9-14c1.4-3.9,3.2-7.7,4.9-11.6c3-6.9,5.9-13.8,8-21c0.3-0.9,0.1-1.5-0.5-2.2c-1.6-1.5-3.1-3.2-4.7-4.8
		c-0.7,1.8-1.4,3.6-2.2,5.4c-3.4,7.8-7.8,15.1-14,21.1c-2.4,2.4-5,4.5-8.1,5.8c-6.1,2.4-12,1.5-17.2-2.3c-5.1-3.7-7.1-9.1-6.4-15.4
		c0.4-3.3,1.2-6.6,2.9-9.5c1.6-2.8,3.8-4.8,7-5.4c5.2-0.9,9.6,2.2,10.6,7.4c0.3,1.5,0.4,3.1,0.1,4.6c-0.6,4-4.6,6.6-8.8,6
		c-0.5-0.1-1-0.2-1.4-0.3c-1.1-0.3-1.7-1.2-1.5-2.3c0.2-1,1.1-1.7,2.2-1.6c0.5,0,0.9,0.2,1.4,0.2c2.6,0.2,4.2-1.3,4.2-3.9
		c0-0.9-0.2-1.8-0.4-2.6c-1.3-3.9-6-4.9-8.7-1.7c-0.9,1-1.6,2.2-2,3.4c-1.3,3.6-2.2,7.3-1.2,11.1c1.4,5.2,5.5,8.4,10.8,9.2
		c5.2,0.8,9.1-1.5,12.6-4.8c5.9-5.5,10.1-12.1,13.5-19.4c1.2-2.6,2.1-5.4,3.2-8.1c0.1-0.4,0.2-0.8,0.3-1.1c0.3-1.8,2-2.5,3.4-1.4
		c1,0.7,1.8,1.6,2.6,2.5c1.5,1.6,3,3.2,4.4,4.7c0.4,0.5,0.9,1,1.3,1.5c0.9,1.2,1.2,2.4,0.8,3.9c-1.8,6.8-4.5,13.4-7.3,19.9
		c-1.6,3.7-3.4,7.3-4.9,11c-1.6,3.9-2.5,7.9-2.1,12.2c0.6,7.7,6.3,13.9,14,15.1c3.3,0.5,6.7,0.9,10.1,0.4c6-0.8,9.5-3.8,10.8-9.7
		c0.6-2.9,0.8-5.9,1-8.9c0.2-2.1,0.1-4.3,0.2-6.4c0-0.3-0.1-0.7-0.2-0.8c-2.4-1.3-3.9-3.6-5.4-5.7c-1.3-1.9-2.4-4-3.5-6
		c-0.8-1.3-1.4-2.7-2.3-3.9c-0.5-0.7-1.3-1.2-2-1.8c-0.4-0.4-0.8-0.8-1.1-1.3c-0.7-1.7-0.5-3.5-0.2-5.2c2.8-15.8,5.5-31.7,8.3-47.5
		c0.3-1.6,0.3-1.6-1.2-2.2c-0.3-0.1-0.7-0.3-1-0.4c-1.5,1.7-3.1,3.1-5.3,3.9c-4.9,1.9-11,0.3-14.7-3.9c-1.2-1.4-2.1-3-2.9-4.6
		c-0.4-0.7-0.7-1-1.5-1.1c-5.2-0.4-10.3-0.8-15.5-1.2c-5.1-0.4-10.2-0.1-15.2,0.8c-3.7,0.7-7.2,1.8-10.1,4.2
		c-1.6,1.3-2.8,2.9-3.4,4.8c-1.3,4.5-1.8,9.1-0.8,13.8c0.5,2.3,1.6,4.4,3.4,6c0.9,0.8,1,2.1,0.2,3c-0.8,0.8-2,0.9-2.9,0
		c-2.8-2.5-4.3-5.7-4.9-9.4c-0.8-5.2-0.2-10.4,1.3-15.5c-1,0.3-1.9,0.5-2.9,0.8c-3,0.9-6,1-9,0.1c-3.8-1.1-6.2-3.7-8.1-7
		c-0.5-0.9-0.2-2,0.7-2.5c0.8-0.6,2-0.5,2.7,0.3c0.4,0.4,0.7,0.9,1,1.4c2.6,3.8,6.3,5,10.6,3.9c3.3-0.8,6.5-2.1,9.7-3.2
		c0.2-0.1,0.3-0.1,0.4-0.2c4.4-3.3,9.5-4.5,14.8-5.1c7.8-0.9,15.6-0.4,23.3,0.3c6.3,0.6,12.5,1.3,18.6,2.8c4.8,1.2,9.6,2.6,14.2,4.7
		c0.3,0.1,0.6,0.2,0.9,0.2c1.6,0.1,2.4,1,2.1,2.6c-0.7,3.8-1.4,7.7-2.1,11.5c-1.9,10.6-3.8,21.3-5.6,31.9c-0.5,2.6-0.9,5.2-1.3,7.9
		c0,0.3-0.1,0.5-0.1,0.9c8.6,0.6,17.2,0.6,25.9,0c-0.3-2.2-0.6-4.2-1-6.2c-2.2-12.5-4.4-25-6.6-37.5c-0.5-2.7-1-5.3-1.5-8
		c-0.4-1.9,0.1-2.6,1.9-3c0.4-0.1,0.7-0.3,1.1-0.5c7.2-3.2,14.7-5.2,22.5-6.4c7.6-1.2,15.3-1.9,23-2.1c6.8-0.2,13.6,0.1,20.1,2.5
		c1.9,0.7,3.6,1.9,5.5,2.8c1.7,0.8,3.4,1.5,5.2,2.1c2,0.7,4,1.4,6,1.7c3.8,0.7,7-0.4,9.4-3.6c0.4-0.5,0.8-1.1,1.1-1.6
		c0.8-1,2-1.3,2.9-0.7c1,0.6,1.2,1.9,0.5,3c-3.8,6.2-9.5,8.3-16.5,6.6C321.5,173.5,320.4,173.1,319.2,172.8z M211.5,275.9
		c0.9,2.6,1.7,5,2.7,7.3c2.8,6.8,8,10.5,15.3,10.9c4.6,0.3,9.2,0.2,13.7-0.1c5.7-0.4,10.2-3,13.2-8c1.8-3,3-6.2,3.8-9.5
		c0-0.2,0-0.4,0-0.6c-3.6,0.5-7.2,0.7-10.8,0.1c-5.7-0.9-9.9-3.8-12.3-9.2c-0.3-0.6-0.5-1.2-0.8-1.9c-0.2,0.5-0.3,0.8-0.5,1.2
		c-2,4.9-5.5,8.1-10.6,9.5c-3,0.8-6.1,0.9-9.2,0.7C214.7,276.3,213.2,276.1,211.5,275.9z M245.8,229c-6.6,0-13.1,0-19.5,0
		c1.3,2.4,2.4,4.9,3.8,7.1c1.3,2.1,2.9,4,4.5,6c0.8,0.9,2.1,0.9,2.9,0c0.3-0.3,0.7-0.7,1-1.1C241.7,237.5,243.5,233.1,245.8,229z
		 M265.5,167.1c-4.9,0.7-9.5,1.9-14.1,3.4C255.3,174.4,262.6,172.4,265.5,167.1z M207.1,167.4c0,0.1-0.1,0.2-0.1,0.3
		c3,5.6,10.7,7,14.1,3C216.4,169.6,211.8,168.5,207.1,167.4z"/>
	<path id="XMLID_68_" d="M237.5,156.9c-10.6-0.5-19.7-0.6-28.7-2c-5.3-0.8-10.5-2.1-15.3-4.6c-5.6-3-9.5-7.4-11.7-13.3
		c-2.6-6.9-0.6-13.8,5.4-18.2c3.4-2.5,7.2-4.3,11.4-4.6c5.9-0.4,11.7,3.1,13.8,8.1c0.8,1.9,1,3.9,0.6,6c-0.7,3-2,5.6-4.2,7.7
		c-2.6,2.4-5.6,3.3-9.1,2.4c-1.3-0.3-1.9-1.4-1.6-2.5c0.3-1.1,1.3-1.8,2.6-1.5c2.6,0.7,4.5-0.3,6.1-2.2c1.2-1.4,1.9-3.1,2.3-4.8
		c0.5-2.5-0.5-4.6-2.3-6.1c-3.1-2.8-6.8-3.7-10.9-2.3c-2.9,1-5.6,2.3-7.8,4.5c-3.1,3.1-4,6.9-2.7,11c2.1,6.9,7,11.2,13.6,13.7
		c4.6,1.8,9.5,2.7,14.4,3.1c7.5,0.6,15.1,1.1,22.6,1.3c4.5,0.1,9-0.3,13.5-0.5c5.6-0.3,11.2-0.8,16.8-1.9c4.6-1,9.1-2.4,13-5.1
		c3.8-2.7,6.4-6.3,7.7-10.7c1.2-4.4,0.2-8.3-3.2-11.3c-2.9-2.6-6.4-4.4-10.3-4.7c-4.3-0.3-8.6,2.3-9.9,5.9c-0.4,1.1-0.5,2.3-0.2,3.5
		c0.5,1.8,1.2,3.5,2.5,4.9c1.5,1.7,3.3,2.5,5.7,2c1.6-0.4,2.8,0.6,2.7,2.1c-0.1,1-0.6,1.5-1.6,1.8c-3,0.8-5.7,0.4-8.2-1.5
		c-3.2-2.5-5-5.9-5.4-9.9c-0.4-4,1.5-7.2,4.7-9.6c4.2-3.1,8.9-4.1,14-2.3c3.5,1.2,6.9,2.8,9.5,5.6c4.3,4.6,5.4,9.9,3.3,15.8
		c-2.8,8.2-8.8,13.1-16.7,15.9c-4.8,1.7-9.7,2.6-14.7,3C251.3,156.1,243.6,156.5,237.5,156.9z"/>
	<path id="XMLID_67_" d="M231.7,340.9c0.3-6.1-2.3-11.2-5.8-15.8c-3.7-4.9-7.6-9.7-11.5-14.5c-3.3-4.1-6.5-8.2-8.7-13
		c-1.8-3.8-2.6-7.8-1.4-11.9c0.3-1.1,1-1.7,2-1.7c1,0,1.7,0.5,2,1.4c0.1,0.3,0.1,0.7,0,1.1c-1,3.1-0.4,6,0.8,8.8
		c1.8,4.1,4.4,7.7,7.2,11.1c4.1,5.2,8.4,10.3,12.4,15.5c2.8,3.7,5.3,7.7,6.3,12.3c1.2,5.3,1.2,10.7-0.8,15.9
		c-2.1,5.4-6.1,8.2-11.9,8.5c-6.2,0.3-10.4-2.3-13-7.9c-1.3-2.7-1.8-5.7-1.8-8.7c0-2.5,0.4-4.9,1.5-7.1c2.7-5.3,7.9-4.8,11.5-1.1
		c0.7,0.7,0.6,1.9-0.1,2.6c-0.7,0.8-1.8,0.9-2.7,0.3c-0.4-0.3-0.7-0.6-1.1-0.8c-1.9-1.4-3.2-1.1-4.1,1.1c-0.5,1.2-0.8,2.4-0.9,3.7
		c-0.4,3.4,0.3,6.7,2,9.6c1.8,3.1,4.7,4.3,8.2,4.2c6.2-0.2,8.7-4.3,9.5-9.5C231.5,343.6,231.6,342.2,231.7,340.9z"/>
	<path id="XMLID_66_" d="M238.1,340.2c0-5.6,1.8-10.6,4.8-15.1c3.5-5.3,7.4-10.3,11-15.5c2.6-3.7,5.2-7.5,7.7-11.4
		c1.3-2.1,2.3-4.5,2.5-7.1c0.1-1.5-0.1-3.1-0.3-4.6c-0.3-1.5,0-2.6,1.2-3c1.2-0.4,2.3,0.3,2.7,1.8c1.2,4,0.5,7.9-1,11.7
		c-1.8,4.5-4.6,8.4-7.4,12.2c-3.9,5.3-7.9,10.5-11.7,15.9c-2.3,3.2-4.2,6.8-4.8,10.8c-0.7,4.2-0.6,8.4,1,12.5
		c1.8,4.6,5.3,6.6,10.2,6c3.4-0.4,5.8-2.1,7.2-5.2c1.7-3.7,2-7.5,0.8-11.3c-1.4-4.5-3.3-3.6-5.4-1.6c-0.8,0.8-1.8,0.9-2.6,0.3
		c-0.8-0.5-1-1.3-0.8-2.2c0-0.2,0.1-0.4,0.2-0.5c1.6-2.8,6.2-4.1,8.8-2.4c1.1,0.7,2.1,1.8,2.8,3c3.4,6,2,15.8-2.9,20.7
		c-2.9,2.9-6.5,3.7-10.4,3.4c-6.6-0.5-10.9-4.4-12.4-11.3C238.6,345,238.4,342.6,238.1,340.2z"/>
	<path id="XMLID_65_" d="M233.3,119.8c-0.1,3.4-0.7,6.4-1.8,9.4c-1.1,2.9-1.8,5.9-0.9,9c0.7,2.6,2.5,4.1,5.1,4.8
		c0.3,0.1,0.7,0,1-0.1c3.6-1.1,5.6-4.1,5.2-8.3c-0.2-1.9-0.7-3.8-1.3-5.6c-1.4-4-2.2-8-1.5-12.2c0.5-3.2,2.1-5.7,5-7.3
		c4.3-2.4,9.9-0.1,10.8,4.6c0.6,3.1-0.5,5.8-2.3,8.3c-0.6,0.8-1.8,0.8-2.6,0.3c-0.8-0.5-1.2-1.7-0.7-2.6c0.4-0.8,0.9-1.6,1.2-2.5
		c0.8-2.1,0.5-3.6-0.9-4.5c-1.6-0.9-3.6-0.5-4.9,1c-1.3,1.5-1.7,3.3-1.7,5.2c-0.1,2.9,0.5,5.7,1.6,8.3c1.4,3.6,2,7.3,1.1,11.2
		c-1,3.9-3.4,6.5-7.3,7.7c-3.4,1.1-6.3-0.2-8.7-2.5c-3-2.9-3.9-6.6-3.4-10.5c0.3-2.1,0.9-4.2,1.6-6.3c1-3.2,1.8-6.3,1.2-9.6
		c-0.3-1.9-1.1-3.6-2.9-4.6c-1.3-0.8-2.7-0.7-3.9,0.2c-1.2,0.9-1.4,2.1-0.9,3.4c0.3,1,0.8,1.9,1.2,2.9c0.7,1.3,0.5,2.5-0.6,3.1
		c-1,0.6-2.2,0.2-2.9-0.9c-1.3-2.2-2.3-4.5-2-7.1c0.6-4.8,5.9-7.6,10.4-5.5c3.5,1.7,5.1,4.6,5.6,8.3
		C233.2,118.5,233.2,119.3,233.3,119.8z"/>
	<path id="XMLID_64_" d="M166.3,278.2c0-4.8,1.2-9.3,3-13.6c2.8-6.7,6.1-13.2,10.9-18.8c1-1.2,2.2-2.3,3.4-3.4c1.1-1,2.3-1,3.1-0.1
		c0.8,0.9,0.7,2.2-0.5,3.2c-2.7,2.4-4.8,5.2-6.7,8.2c-3.5,5.6-6.5,11.5-8.2,17.9c-1.3,4.6-1.3,9.3,0.2,13.9c2.2,6.7,9.9,10.4,16.6,8
		c3.8-1.4,6.3-5.5,5.7-9.3c-0.5-3-3.6-4.7-6.4-3.6c-1.5,0.6-2,1.7-1.5,3.2c0.6,1.7,1.7,2.9,2.9,4.2c0.4,0.5,0.9,1.2,0.9,1.8
		c0,0.6-0.5,1.4-1,1.7c-0.5,0.3-1.6,0.4-2,0c-2.6-2.2-4.8-4.8-5.1-8.4c-0.2-3.7,2.6-6.5,6.5-6.8c6.8-0.5,11.3,5.1,9.6,12
		c-1.7,6.5-7.6,10.6-14.5,9.9c-4-0.4-7.7-1.4-10.7-4.1c-3.6-3.1-5.2-7.2-5.8-11.8C166.5,280.8,166.4,279.5,166.3,278.2z"/>
	<path id="XMLID_63_" d="M305.6,278.2c0,3-0.4,6-1.4,8.9c-2.4,6.6-7.2,10-14.1,10.9c-3.6,0.4-7.1,0-10.2-2c-5-3.1-7.3-9.8-5.1-14.8
		c2-4.7,8-6.6,12.4-4.1c2.8,1.6,3.9,4.6,2.8,7.8c-0.8,2.5-2.5,4.5-4.4,6.3c-0.8,0.7-2,0.6-2.8-0.2c-0.7-0.8-0.7-1.9,0-2.8
		c0.6-0.6,1.2-1.2,1.7-1.9c0.4-0.4,0.7-0.9,1-1.4c0.6-1.1,1.3-2.3,0.5-3.5c-0.8-1.2-2.2-1.4-3.5-1.3c-3.2,0.2-5,3.2-4.2,6.7
		c0.9,3.8,3.6,6.5,7.5,7c4.5,0.6,8.6-0.3,11.9-3.7c2.4-2.5,3.3-5.6,3.7-8.9c0.5-4.7-0.2-9.2-1.9-13.6c-2.7-6.8-5.9-13.3-10.6-18.9
		c-1-1.2-2.1-2.2-3.2-3.3c-1-1-1.2-2.2-0.4-3.1c0.8-0.9,2-0.9,3.1,0c3.3,2.9,5.9,6.4,8.2,10.1c2.9,4.8,5.3,9.8,7.2,15
		C305,270.9,305.6,274.5,305.6,278.2z"/>
	<path id="XMLID_62_" d="M315.9,144.9c-1.1,1-1,2.6,0.1,3.6c2.7,2.3,7.1,1,8-2.3c1.3-4.5-1.2-7.7-6-7.9c-4.5-0.2-8.4,1.4-11.5,4.5
		c-1.9,1.8-3.5,3.8-5.3,5.6c-0.7,0.7-1.4,1.4-2.1,2c-0.9,0.7-2,0.5-2.8-0.2c-0.7-0.8-0.7-2,0-2.8c2.4-2.5,4.8-5.1,7.2-7.5
		c3.9-3.8,8.6-5.9,14.1-5.8c1.3,0,2.6,0.2,3.9,0.6c7.1,2,9.4,11.2,4.2,16.6c-3.3,3.4-10.3,2.8-13-0.3c-2-2.2-2.4-5.7-0.7-8.1
		c1-1.5,2.4-2.4,4.4-2.4c1.9,0,3.5,1.4,3.6,3.3c0.1,0.8-0.1,1.7-0.3,2.5c-0.3,1.2-1.3,1.8-2.5,1.5c-1.1-0.3-1.7-1.2-1.5-2.5
		C315.8,145.2,315.9,145.1,315.9,144.9z"/>
	<path id="XMLID_61_" d="M156.6,145.3c0,0.4,0.1,0.7,0.1,1c0,0.9-0.4,1.6-1.3,1.9c-0.9,0.3-1.7,0.2-2.2-0.5c-1-1.4-1.1-2.9-0.5-4.5
		c0.5-1.4,1.7-2.2,3.2-2.3c2.1-0.1,3.7,0.9,4.8,2.7c1.9,3.3,0.5,7.4-2.9,9.2c-3.8,2-9,1.3-11.4-1.7c-5.1-6-1.9-15.1,5.8-16.4
		c6.1-1.1,11.4,0.7,16,4.8c1.8,1.7,3.5,3.6,5.2,5.4c0.9,0.9,1.7,1.8,2.6,2.6c0.9,0.8,1,2,0.3,2.9c-0.7,0.9-2.1,1.1-3,0.2
		c-1.7-1.7-3.3-3.4-5-5.2c-2.2-2.4-4.5-4.7-7.6-5.9c-2.7-1.1-5.4-1.4-8.3-0.7c-4.3,1.1-5.8,6.2-3,9.7c1.5,1.9,6.1,1.5,7.3-0.1
		C157.5,147.6,157.5,146.2,156.6,145.3z"/>
	<path id="XMLID_60_" d="M183.9,303.6c7.5,0,12.5,6.2,11.2,13.6c-0.9,4.8-3.4,8.6-6.6,12.1c-0.3,0.3-0.5,0.6-0.8,0.8
		c-0.9,0.8-2.1,0.8-2.8,0c-0.8-0.8-0.8-2,0-2.9c1.2-1.4,2.4-2.8,3.5-4.3c1.5-2,2.5-4.3,2.8-6.8c0.7-5.5-3.3-9.3-8.8-8.3
		c-2.8,0.5-5.2,1.9-7.3,3.8c-0.3,0.2-0.5,0.5-0.8,0.7c-0.9,0.6-2.1,0.5-2.8-0.2c-0.7-0.8-0.7-2,0-2.8c2.8-2.8,6.1-4.8,10.1-5.5
		C182.4,303.7,183.1,303.7,183.9,303.6z"/>
	<path id="XMLID_59_" d="M276.8,315.9c0-8.1,5.8-13.1,12.8-12.2c4.3,0.6,7.8,2.6,10.9,5.5c0.9,0.8,0.9,2.2,0.1,3
		c-0.8,0.8-2,0.8-2.9,0c-2.3-2.1-4.7-3.7-7.8-4.3c-5.7-1.1-9.9,3.1-8.8,8.8c0.8,4,3.1,7.1,5.7,10c0.2,0.2,0.5,0.5,0.7,0.7
		c0.6,0.9,0.5,2-0.2,2.7c-0.7,0.7-1.9,0.9-2.7,0.1C280.3,326,277,321.2,276.8,315.9z"/>
</g>
<g>
	<path id="XMLID_58_" d="M4.5,139.2c2.4-3.5,4.8-6.9,7.3-10.6c1.1,0.7,2.1,1.4,3.2,2.2c-2,4-2,4.2,1.8,6.8c8.8,6,17.6,12,26.4,18
		c0.3,0.2,0.6,0.4,1,0.6c5.8-4,12.6-4.9,19.2-6.4c7.8-1.7,15.7-3.1,23-6.4c13.9-6.3,22.3-17.4,26.2-31.9c1-3.5,1.2-7.3,1.3-11
		c0.1-4.4-1-8.6-3.5-12.5C104.5,79,99,69.8,93.3,60.8c-1.8-2.9-2.7-3.1-5.7-1.4c-0.1,0.1-0.3,0.1-0.5,0.2c-0.7-1.1-1.3-2.1-2.1-3.3
		c2.2-1.3,4.2-2.8,6.5-3.8c1.2-0.5,2.8-0.3,4.3-0.2c6.3,0.4,12.2,2.4,17.8,5.4c-0.5-0.8-0.9-1.6-1.4-2.3c-1-1.6-2-3.3-3.1-4.9
		c-1.5-2.4-2.8-2.7-5.1-1.3c-0.2,0.1-0.4,0.2-0.7,0.4c-0.4-0.6-0.7-1.1-1.1-1.7c-0.3-0.5-0.7-1.1-1-1.7c3.7-2.3,7.4-4.6,11.2-7
		c0.7,1.2,1.4,2.2,2.1,3.4c-0.3,0.2-0.6,0.4-0.8,0.6c-2.3,1.5-2.6,2.8-1.1,5.2c4.2,6.7,8.3,13.3,12.5,20c2.1,3.3,4.1,6.6,6.2,9.9
		c1.7,2.7,2.8,2.9,5.6,1.3c0.2-0.1,0.3-0.2,0.6-0.3c0.7,1.1,1.4,2.1,2.1,3.3c-3.7,2.3-7.4,4.7-11.2,7c-0.7-1.2-1.4-2.2-2.1-3.4
		c0.6-0.4,1.1-0.7,1.5-1c1.1-0.9,1.6-2.3,0.9-3.5C125.1,76,122.1,70,117,65.5c-6.1-5.4-13.3-8.5-21.8-9.3c0.3,0.6,0.5,1,0.8,1.4
		c6.1,9.7,12.1,19.5,18.3,29.1c2.7,4.1,3.7,8.5,4,13.2c0.8,11.7-3.6,21.7-10.4,30.8c-8.1,10.9-19,17.5-32.2,20.4
		c-6.9,1.5-13.7,3.1-20.6,4.7c-2,0.5-3.9,1.1-5.7,2c-4.9,2.2-6.8,4.8-7.5,10.2c-1-0.7-2.1-1.3-3-2.1c-0.3-0.3-0.4-1.1-0.2-1.5
		c0.6-1.8,1.4-3.5,2.2-5.4c-0.3-0.2-0.7-0.5-1.1-0.8c-8.5-5.8-17.1-11.6-25.6-17.4c-3.4-2.3-3.9-2.3-6.6,0.9
		c-1.1-0.7-2.1-1.4-3.2-2.2C4.5,139.4,4.5,139.3,4.5,139.2z"/>
	<path id="XMLID_57_" d="M188.1,4.8c1,0.4,2.1,0.9,3.3,1.4c-1,2.7-2,5.3-3,8.1c-1.3-0.5-2.6-0.9-4-1.4c1-2.8,2-5.5,3-8.1
		C187.8,4.8,188,4.8,188.1,4.8z"/>
	<path id="XMLID_54_" d="M323.7,65.9c-0.9-0.5-1.7-1-2.7-1.5c0.6-1.2,1.2-2.3,1.8-3.5c1,0.5,1.9,0.9,2.9,1.4c1.4-2.6,2.7-5.1,4-7.6
		c1.2-2.3,2.3-4.5,3.6-6.8c4-7.1,10.3-10.5,18.3-11.3c0.4,0,1,0.3,1.2,0.7c4.1,7.1,4.8,14.5,0.9,21.9c-3.7,7.1-7.5,14.2-11.2,21.4
		c-1.4,2.7-1.1,3.8,1.6,5.4c0.2,0.1,0.3,0.2,0.5,0.4c-0.6,1.1-1.1,2.2-1.8,3.5c-3.9-2-7.7-4-11.6-6.1c0.6-1.2,1.2-2.3,1.7-3.4
		c0.2,0,0.3,0,0.4,0c3.5,1.4,4,1.2,5.8-2.2c0.6-1.1,1.1-2.1,1.7-3.3c-4.5-2.4-8.9-4.7-13.5-7.1c-0.5,0.9-1,1.7-1.4,2.5
		c-1.5,3.6-4.2,6-7.5,8c-5.3,3.2-11.1,4.9-17.2,5.4c-13.6,1.2-27.2,0.6-40.4-3c-7.1-1.9-13.6-5-19.8-8.9
		c-10.4-6.6-16.4-15.9-18.1-28c-1.8-13.1,2.5-23.9,12.6-32.3c4-3.3,8.6-5.5,13.9-4.9c1.9,0.2,3.7,0.8,5.7,1.3
		c0.1-0.2,0.2-0.5,0.3-0.9c1.2,0.1,2.4,0.2,3.9,0.3c-0.3,3.5-0.6,6.9-0.9,10.5c-1.4-0.1-2.5-0.2-3.8-0.3c-0.1-0.7-0.1-1.5-0.2-2.2
		c-0.4-2.9-2.4-4.7-5.3-4.8c-5.6-0.2-9.9,2.5-13.5,6.4c-5.6,6-8,13.3-8.4,21.3c-0.6,13.7,6,23.5,17.1,30.7
		c8.4,5.4,17.7,8.5,27.5,10.1c9,1.4,18,1.9,27.1,1c6.9-0.7,13.5-2.6,19.3-6.6C320.9,71.5,322.3,68.8,323.7,65.9z M342.8,71.3
		c2.8-5.5,5.7-10.7,8.2-16.2c1.9-4.3,1.5-8.7-0.2-13.1c-0.4-1.1-1-1.3-2.1-1c-5.5,1.3-9.5,4.5-12.2,9.4c-1.4,2.5-2.7,5.1-4,7.7
		c-1.1,2-2.1,4.1-3.2,6.1C333.8,66.6,338.2,68.9,342.8,71.3z"/>
	<path id="XMLID_53_" d="M374.6,108.8c-0.8,1-1.5,2-2.4,3.1c-3.5-2.7-7-5.3-10.5-8c0.8-1.1,1.6-2.1,2.3-3.1c0.2,0,0.4,0,0.5,0.1
		c2.9,2,3.8,1.9,5.9-1c7.2-9.5,14.5-19,21.7-28.5c0.3-0.3,0.5-0.7,0.8-1.2c-5.7,0.4-10.1,2.9-13.7,7.1c-1.1-0.8-2-1.5-3.1-2.4
		c3.2-4.6,4.5-9.6,3.2-15.3c-0.3,0.4-0.6,0.6-0.8,0.8c-7.5,9.9-15,19.7-22.5,29.6c-1.5,2-1.3,3.4,0.7,4.9c0.3,0.2,0.5,0.4,0.8,0.7
		c-0.4,0.6-0.8,1.1-1.2,1.6c-0.4,0.5-0.8,1-1.2,1.5c-3.5-2.7-7-5.3-10.5-8c0.8-1.1,1.6-2.1,2.3-3.1c0.2,0,0.3,0,0.3,0.1
		c2.9,2.4,4.4,1.2,6.1-1c6.7-9,13.6-17.9,20.4-26.8c2.7-3.5,2.7-3.7-0.4-6.9c0.7-1,1.5-2,2.2-3c6.7,3.2,9.3,8.4,8,16.1
		c-0.1,0.7-0.2,1.4-0.3,2.4c1.1-0.5,2.1-0.9,3-1.3c2.8-1.2,5.7-1.6,8.8-1.3c1.4,0.2,2.7,0.5,3.8,1.5c1.3,1.2,2.8,2.2,4.3,3.3
		c-0.8,1.1-1.6,2.1-2.3,3.1c-0.2,0-0.2,0-0.3,0c-2.7-2.2-4.2-1.8-6.5,1.2c-6.7,8.9-13.5,17.7-20.2,26.6
		C371.4,105.4,371.4,105.8,374.6,108.8z"/>
	<path id="XMLID_50_" d="M75.5,121.7c-14.3-0.2-25.4-11.7-25.2-25.9C50.6,81.5,62,70.3,76.3,70.6c14.5,0.2,25.4,11.7,25.1,26.3
		C101.2,110.8,89.6,121.9,75.5,121.7z M97.4,96.6c0.2-12-9.1-21.7-20.9-21.9c-12.3-0.2-22,9.1-22.1,21.3c-0.2,11.9,9.2,21.6,21,21.8
		C87.5,117.8,97.2,108.6,97.4,96.6z"/>
	<path id="XMLID_47_" d="M409.8,156.6c-2.9-3.9-5.7-7.8-8.6-11.7c1.1-0.8,2.1-1.5,3-2.3c2.6,1.3,3.4,1.1,4.6-1.7
		c0.9-2.2,1.6-4.4,2.3-6.7c0.4-1.5-1.2-1.6-1.8-2.6c-2.1,1.6-4.2,3-6.2,4.6c-1.2,0.9-1.3,2.4-0.5,3.7c0.3,0.5,0.6,1,1.1,1.6
		c-1,0.8-2.1,1.5-3.2,2.4c-2.6-3.6-5.2-7.1-7.8-10.6c1.1-0.8,2.1-1.6,3.1-2.3c0.2,0.1,0.3,0.1,0.4,0.2c2.3,2.8,3.1,2.9,6.1,0.7
		c9.2-6.8,18.3-13.5,27.5-20.2c3.2-2.4,3.3-2.9,1.1-6.4c1-0.7,2-1.5,3.1-2.3c3,4.2,6.6,8,7.4,13.4c2,13.9-11.6,25-24.9,20
		c-0.5-0.2-0.9-0.3-1.4-0.5c-0.1,0.1-0.3,0.1-0.3,0.2c-1.7,3.8-3,7.7-3.4,11.9c-0.3,2.9-0.1,3.2,1.6,6.2
		C412,155,411,155.8,409.8,156.6z M435.6,112.5c-7.6,5.6-15.2,11.2-22.9,16.8c5.3,5.3,13.6,5.7,19.3,1.2
		C437.3,126.2,439,117.9,435.6,112.5z"/>
	<path id="XMLID_44_" d="M276,45.9c1.5,4.4,3.2,8.6,6,12.2c0.6,0.7,1.3,1.4,2.1,1.9c0.7,0.5,1.7,0.6,2.6,1c-0.3,1.2-0.5,2.4-0.8,3.8
		c-4.7-1-9.4-2-14.1-3.1c0.2-1.1,0.3-2.1,0.6-3c0.1-0.4,0.6-0.8,1-0.9c1.5-0.4,2.2-1.1,1.8-2.6c-0.9-2.8-1.9-5.6-3.2-8.3
		c-0.2-0.5-1.8-0.4-2.9-0.6c-0.6,2.7-1.2,5.2-1.7,7.7c-0.2,1.4,0.8,2.7,2.2,3.1c0.5,0.2,1,0.2,1.7,0.4c-0.3,1.3-0.5,2.4-0.8,3.9
		c-4.3-0.9-8.5-1.8-12.9-2.8c0.3-1.3,0.5-2.5,0.8-3.8c0.5,0.1,0.9,0.1,1.3,0.2c2,0.4,3.4-0.4,3.9-2.5c1.6-7,3.1-14,4.6-21
		c1-4.8,2.1-9.5,3.1-14.3c0.6-2.8,0-3.8-2.7-4.5c-0.2-0.1-0.4-0.1-0.8-0.2c0.3-1.3,0.6-2.6,0.9-3.9c3,0.7,5.9,1.2,8.7,2.1
		c7.1,2.3,12.1,9.3,12.2,16.8c0.1,8.3-4.6,15.2-12.3,18C276.9,45.6,276.5,45.8,276,45.9z M276.1,14.7c-2,9.3-4,18.5-6.1,27.7
		c5.3,0.7,13.3-3,15.2-11.3C286.7,24.4,282.5,16.6,276.1,14.7z"/>
	<path id="XMLID_43_" d="M142.4,34c-0.2-0.4-0.4-0.7-0.6-1c-1-2.1-2.4-2.6-4.5-1.6c-2.7,1.2-5.3,2.5-8.1,3.8
		c1.4,2.9,2.7,5.7,4.1,8.7c2.8-1.3,5.4-2.6,8.3-3.9c0.6,1.2,1.1,2.3,1.7,3.6c-2.8,1.3-5.4,2.6-8.3,4c4.2,8.9,8.4,17.7,12.6,26.6
		c3-1.4,5.9-2.8,8.8-4.2c1.3-0.7,1.7-2.2,1.2-3.7c-0.2-0.5-0.4-1-0.7-1.6c1.2-0.6,2.3-1.1,3.6-1.7c1.2,2.6,2.4,5.1,3.7,7.8
		c-7.6,3.6-15,7.1-22.6,10.7c-0.6-1.3-1.1-2.4-1.6-3.4c0.1-0.2,0.2-0.3,0.3-0.3c2.9-1.2,3.5-2.8,1.9-6c-3.4-6.9-6.6-13.9-9.9-20.9
		c-0.2-0.5-0.5-1-0.8-1.6c-1.4,0.7-2.8,1.3-4.2,1.9c-0.6-1.2-1.1-2.3-1.7-3.6c1.4-0.7,2.7-1.3,4.2-2.1c-1.1-2.2-2.1-4.5-3.3-6.6
		c-0.7-1.2-2-1.4-3.3-0.9c-0.5,0.2-1,0.4-1.7,0.7c-0.6-1.2-1.1-2.3-1.8-3.6c7.5-3.6,15-7.1,22.6-10.7c1.2,2.6,2.4,5.1,3.7,7.7
		C144.8,32.8,143.6,33.4,142.4,34z"/>
	<path id="XMLID_42_" d="M61.6,141c2.2-2.5,4.3-4.9,6.4-7.4c0.9-1.1,0.7-2.6-0.4-3.7c-0.4-0.4-0.8-0.8-1.3-1.2c0.9-1,1.7-1.9,2.6-3
		c2.1,1.9,4.2,3.7,6.5,5.7c-5.5,6.3-10.9,12.5-16.4,18.8c-1-0.9-2-1.7-3-2.6c2.5-3.6,2.4-4-0.8-6.8c-5.6-4.9-11.2-9.8-16.8-14.6
		c-0.5-0.4-1-0.9-1.6-1.4c-1,1.1-2,2.2-3.1,3.4c-1-0.9-2-1.7-3-2.6c1-1.2,2-2.3,3-3.5c-1.8-1.5-3.4-3.1-5.2-4.5
		c-1.3-1-2.7-0.9-3.9,0.3c-0.4,0.4-0.7,0.8-1.2,1.3c-0.5-0.4-1-0.9-1.5-1.3c-0.5-0.4-0.9-0.8-1.5-1.3c5.5-6.3,10.9-12.5,16.4-18.8
		c2.2,1.9,4.2,3.7,6.4,5.6c-0.9,1-1.7,2-2.5,2.8c-0.2,0-0.3,0-0.4,0c-2.5-2.5-4.3-1.7-6.2,0.7c-1.6,2-3.3,3.9-5.1,5.9
		c2.4,2.1,4.8,4.2,7.2,6.3c2-2.3,4-4.5,6-6.9c1,0.9,2,1.7,3,2.6c-2,2.3-3.9,4.6-6,6.9C46.8,128.1,54.1,134.5,61.6,141z"/>
	<path id="XMLID_41_" d="M403.8,96.6c-7,7-13.8,13.9-20.7,20.8c2,2.1,4.2,4.5,6.5,6.8c1,0.9,2.5,0.8,3.6-0.1
		c0.5-0.3,0.9-0.7,1.3-1.1c0.9,0.9,1.8,1.8,2.6,2.6c-2,1.9-3.9,3.8-5.9,5.7c-5.6-5.7-11.4-11.6-17.1-17.4c0.9-0.9,1.8-1.8,2.7-2.7
		c-0.1,0,0,0,0.1,0.1c2.7,2.6,3.5,2.6,6.2-0.1c5.9-5.9,11.7-11.8,17.7-17.8c-0.8-0.7-1.9-1.6-3-2.6c1.2-1.1,2.1-1.9,3.2-3
		c0.8,1,1.8,2.1,2.8,3.3c1.9-1.8,3.7-3.4,5.3-5.1c1-1,0.9-2.4,0-3.6c-0.3-0.5-0.8-0.9-1.1-1.2c1-0.9,1.9-1.8,2.7-2.5
		c5.7,5.7,11.5,11.6,17.3,17.4c-2,2-4,3.9-6,5.9c-0.7-0.9-1.5-1.9-2.5-3.1c-0.1,0.3-0.1,0.2,0,0.2c2.7-2.4,2-4.2-0.2-6.3
		c-1.9-1.8-3.6-3.7-5.2-5.4c-2.3,2.3-4.6,4.5-6.9,6.7c1.9,2,4,4.1,6.2,6.3c-1.1,1-2,1.9-3.1,2.9C408,101,405.9,98.9,403.8,96.6z"/>
	<path id="XMLID_40_" d="M288.2,65.6c0.5-1.4,0.9-2.5,1.4-3.7c0.5,0.1,0.8,0.2,1.2,0.4c2.1,0.7,3.5,0.1,4.2-2
		c2.2-6.1,4.3-12.1,6.5-18.2c0.7-2.1,1.5-4.2,2.3-6.4c-1.5-0.5-2.8-1.1-4.3-1.6c0.4-1.3,0.8-2.4,1.3-3.7c1.5,0.5,2.9,1,4.4,1.5
		c0.8-2.3,1.7-4.6,2.3-6.9c0.4-1.4-0.4-2.5-1.7-3.1c-0.5-0.2-1.1-0.4-1.7-0.7c0.4-1.2,0.8-2.4,1.3-3.7c7.8,2.8,15.6,5.6,23.5,8.4
		c-1,2.7-1.9,5.3-2.8,8c-1.3-0.4-2.4-0.8-3.7-1.3c0.2-0.6,0.3-1.1,0.4-1.5c0.5-1.6-0.1-3.1-1.6-3.7c-2.9-1.1-5.9-2.1-9-3.2
		c-1.1,3-2.1,5.9-3.3,9.1c2.9,1,5.7,2.1,8.6,3.1c-0.4,1.3-0.9,2.4-1.3,3.8c-2.9-1-5.7-2-8.6-3c-3.3,9.2-6.6,18.4-9.9,27.8
		c3.2,1.1,6.2,2.2,9.3,3.2c1.2,0.4,2.6-0.4,3.2-1.6c0.3-0.5,0.4-1.1,0.7-1.7c1.2,0.4,2.4,0.9,3.7,1.3c-1,2.8-1.9,5.4-2.9,8.1
		C303.8,71.2,296.1,68.5,288.2,65.6z"/>
	<path id="XMLID_39_" d="M415.4,159.1c2.8,3.5,2.9,3.5,6.8,1.4c1.1-0.6,1.6-1.4,1.8-2.6c1.2-6.8,4.8-12,10.7-15.5
		c3.9-2.3,7.9-4.5,11.8-6.7c3.5-2,3.7-2.6,1.9-6.3c0.5-0.3,1.1-0.7,1.6-1c0.5-0.3,1.1-0.6,1.8-1c1.4,2.5,2.8,4.9,4.2,7.5
		c-0.5,0.3-1,0.6-1.5,0.9c-5.9,3.3-11.8,6.6-17.6,9.9c-5,2.8-8,7.1-9.1,12.7c-0.2,1.1,0.1,1.5,1,1.8c5.3,1.9,10.4,1.7,15.3-1.1
		c6.4-3.6,12.8-7.2,19.1-10.8c0,0,0.1,0,0.3-0.1c1.4,2.4,2.8,4.9,4.2,7.4c-1.2,0.7-2.2,1.3-3.4,2c-0.3-0.4-0.5-0.7-0.7-1.1
		c-1.1-1.9-2.6-2.3-4.5-1.2c-4.2,2.4-8.4,4.7-12.6,7.1c-6.5,3.6-13.2,4-20.1,1.1c-0.5-0.2-1.2-0.1-1.7,0.1c-0.7,0.3-1.4,0.7-2,1.1
		c-2,1.2-2.4,2.6-1.3,4.7c0.2,0.3,0.3,0.6,0.4,0.9c-0.2,0.1-0.3,0.3-0.5,0.4c-0.9,0.5-1.8,1-2.9,1.6c-2.1-3.8-4.3-7.5-6.5-11.4
		C413.2,160.3,414.4,159.7,415.4,159.1z"/>
	<path id="XMLID_38_" d="M168.3,15.2c0.9,2.8,1.8,5.5,2.7,8.3c-1.3,0.4-2.5,0.8-3.8,1.2c-0.2-0.5-0.3-0.8-0.4-1.1
		c-0.9-2.4-2.7-3.1-4.9-1.9c-3.1,1.7-3.4,5.9-0.6,8.3c2.2,1.8,4.9,2.4,7.5,3.2c3.6,1.1,7.3,2,10.6,3.6c6,2.8,9.2,7.7,9.1,14.4
		c-0.2,6.7-3.5,11.6-9.7,14.4c-2.9,1.3-6,1.5-9.3,1c0.2,0.7,0.3,1.2,0.5,2c-1.2,0.4-2.4,0.8-3.8,1.3c-1.2-3.7-2.4-7.2-3.6-10.9
		c1.3-0.4,2.5-0.8,3.8-1.3c0.3,0.8,0.5,1.5,0.7,2.2c0.5,1.7,1.6,2.5,3.3,2.8c5.7,1,11.2-2.2,13.3-7.7c2-5.3,0.1-10.9-5-14
		c-3.2-2-6.9-2.8-10.5-3.9c-2.7-0.8-5.5-1.7-7.9-3c-6-3.3-6.8-10.5-1.9-14.9c0.6-0.6,1.4-1.2,2.2-1.4
		C163.3,17.4,165.6,16,168.3,15.2z"/>
</g>
</svg>
