<?xml version="1.0" encoding="UTF-8"?>
<svg id="Layer_1" xmlns="http://www.w3.org/2000/svg" baseProfile="tiny" version="1.2" viewBox="0 0 517 517">
  <!-- Generator: Adobe Illustrator 29.8.2, SVG Export Plug-In . SVG Version: 2.1.1 Build 3)  -->
  <circle cx="258.5" cy="258.5" r="258.5" fill="#fff"/>
  <g>
    <g>
      <path d="M348.25,256.63c1.59,4.76,2.1,9.49,1.81,14.3-.29,4.8-1.72,9.16-5.31,12.6-1.16,1.11-2.57,1.21-3.5.22-.94-1-.76-2.34.43-3.47,2.53-2.39,3.52-5.48,3.87-8.81.4-3.8.03-7.56-.87-11.25-1.05-4.31-3.96-7.06-7.87-8.87-4.21-1.95-8.72-2.62-13.28-2.97-8.4-.65-16.74.09-25.08.98-.74.08-1.49.25-2.23.23-.96-.02-1.31.47-1.63,1.3-2.75,7.27-11.12,11.61-18.19,9.48-2.38-.72-4.39-2.04-6.02-3.9-.46-.52-.82-.63-1.43-.31-.75.39-1.55.7-2.35,1.05,1.02,5.68,2.06,11.29,3.03,16.9,2.19,12.57,4.34,25.14,6.51,37.71.28,1.61.3,3.21-.33,4.73-.23.55-.71,1.02-1.15,1.45-.72.7-1.7,1.22-2.22,2.03-1.22,1.92-2.24,3.97-3.31,5.98-1.87,3.51-4.07,6.83-7,9.52-1.13,1.04-1.46,1.97-1.41,3.44.16,4.7,0,9.42.94,14.07.78,3.84,2.21,7.32,5.65,9.59,2.23,1.48,4.74,2.12,7.37,2.31,4.74.33,9.46.06,13.9-1.69,7.85-3.09,12.28-11,11.32-19.52-.57-5.05-2.46-9.62-4.57-14.17-4.07-8.8-7.94-17.68-10.64-27.02-.27-.95-.73-1.85-.95-2.81-.13-.59-.13-1.29.08-1.84.26-.68.74-1.31,1.24-1.85,2.14-2.34,4.31-4.66,6.5-6.95.66-.69,1.39-1.35,2.18-1.89,1.32-.89,2.94-.18,3.43,1.27,1.09,3.27,2.09,6.59,3.47,9.74,3.41,7.8,7.87,14.95,13.98,20.96,2.63,2.59,5.46,5.1,9.16,5.87,8.37,1.74,17.52-2.64,17.86-13.28.11-3.58-.81-7.08-2.51-10.29-1.09-2.06-2.56-3.73-5.05-4.04-3.33-.42-5.97,1.97-6.27,5.66-.13,1.58-.18,3.16,1.26,4.31,1.29,1.03,2.72,1.09,4.25.78,1.56-.32,2.76.47,2.91,1.87.12,1.07-.42,2.03-1.46,2.34-4.5,1.34-9.17-.47-10.88-4.73-.98-2.44-.78-4.99-.01-7.46,1.15-3.72,3.53-6.28,7.44-7.05,4.02-.79,7.41.49,10.02,3.64,2.85,3.45,3.91,7.61,4.54,11.93.86,5.87-.68,11.06-4.65,15.42-3.48,3.83-8.05,5.29-13.1,5.7-5.49.45-9.92-1.8-13.97-5.13-5.96-4.9-10.49-10.99-14.09-17.73-2.21-4.13-3.94-8.53-5.87-12.8-.12-.25-.2-.52-.33-.86-.18.14-.33.23-.44.35-1.45,1.52-2.87,3.07-4.34,4.57-.49.5-.68.93-.48,1.68,1.87,7.01,4.59,13.7,7.46,20.34,2.02,4.67,4.26,9.26,6.12,13.99,2.1,5.32,2.96,10.89,1.78,16.58-1.69,8.14-6.55,13.68-14.23,16.75-.71.29-.95.66-1.07,1.36-.9,5.42-2.82,10.48-5.98,14.96-3.73,5.28-8.98,8.33-15.37,9.1-6.1.74-12.25.9-18.36.13-8.92-1.13-15.27-5.86-18.95-14.11-1.51-3.4-2.77-6.86-3.3-10.57-.06-.39-.57-.85-.98-1.03-7.01-3.1-11.6-8.28-13.38-15.77-1.23-5.16-.82-10.33.95-15.28,1.53-4.28,3.48-8.42,5.29-12.59,3.26-7.48,6.47-14.98,8.71-22.85.28-.98.16-1.65-.57-2.36-1.72-1.69-3.39-3.44-5.1-5.18-.79,1.96-1.52,3.96-2.38,5.9-3.74,8.53-8.51,16.38-15.19,22.97-2.6,2.57-5.41,4.93-8.84,6.27-6.67,2.61-13.09,1.69-18.75-2.47-5.54-4.07-7.69-9.9-6.94-16.75.4-3.64,1.27-7.16,3.11-10.37,1.72-3.01,4.09-5.24,7.63-5.83,5.66-.95,10.49,2.38,11.56,8.06.3,1.62.39,3.36.14,4.98-.64,4.32-4.96,7.2-9.54,6.58-.53-.07-1.06-.16-1.57-.31-1.18-.34-1.81-1.36-1.61-2.54.19-1.13,1.2-1.88,2.42-1.78.5.04.98.18,1.48.21,2.84.19,4.6-1.39,4.58-4.21,0-.95-.18-1.93-.48-2.83-1.44-4.28-6.51-5.31-9.45-1.86-.93,1.09-1.71,2.4-2.21,3.75-1.45,3.91-2.44,7.91-1.28,12.12,1.57,5.66,6,9.16,11.8,10.01,5.67.83,9.89-1.65,13.76-5.21,6.46-5.94,11.04-13.22,14.65-21.13,1.31-2.88,2.32-5.9,3.44-8.86.15-.39.22-.82.29-1.24.35-1.91,2.16-2.68,3.7-1.49,1.04.8,1.97,1.75,2.88,2.7,1.63,1.69,3.22,3.43,4.82,5.16.48.52.98,1.04,1.4,1.61.94,1.27,1.26,2.61.82,4.22-2.01,7.45-4.89,14.58-7.96,21.64-1.75,4.02-3.66,7.96-5.36,12-1.77,4.22-2.69,8.62-2.33,13.24.66,8.34,6.9,15.13,15.19,16.48,3.64.59,7.28.97,10.97.48,6.5-.86,10.32-4.12,11.74-10.53.7-3.14.87-6.41,1.13-9.64.19-2.31.14-4.63.17-6.95,0-.28-.07-.72-.25-.82-2.64-1.45-4.27-3.88-5.89-6.25-1.42-2.08-2.59-4.34-3.86-6.52-.82-1.42-1.53-2.91-2.47-4.24-.54-.77-1.47-1.27-2.17-1.94-.44-.43-.92-.9-1.15-1.45-.79-1.85-.5-3.78-.17-5.68,3.02-17.24,6.04-34.47,9.07-51.7.3-1.7.32-1.7-1.26-2.36-.36-.15-.72-.29-1.13-.45-1.6,1.84-3.42,3.34-5.72,4.21-5.32,2.02-11.99.32-15.95-4.27-1.28-1.48-2.25-3.27-3.16-5.03-.4-.77-.76-1.13-1.61-1.19-5.62-.42-11.23-.92-16.84-1.32-5.54-.39-11.05-.08-16.51.9-4,.72-7.82,1.92-11.03,4.58-1.72,1.43-3.06,3.15-3.69,5.27-1.46,4.92-1.94,9.93-.82,15,.56,2.52,1.7,4.74,3.66,6.51,1.01.9,1.04,2.33.18,3.25-.82.88-2.17.93-3.17.04-3.07-2.73-4.67-6.25-5.31-10.23-.92-5.71-.23-11.29,1.45-16.91-1.07.31-2.12.59-3.15.9-3.26,1.01-6.53,1.04-9.81.12-4.12-1.15-6.77-4.08-8.84-7.61-.56-.96-.18-2.13.71-2.74.92-.63,2.16-.52,2.91.33.42.48.76,1.03,1.12,1.56,2.81,4.16,6.83,5.45,11.5,4.29,3.58-.88,7.03-2.31,10.53-3.5.17-.06.33-.14.47-.25,4.76-3.58,10.32-4.87,16.07-5.56,8.48-1.02,16.95-.44,25.41.35,6.82.64,13.61,1.46,20.28,3.08,5.27,1.28,10.45,2.84,15.41,5.06.31.14.67.23,1.02.24,1.74.1,2.6,1.08,2.3,2.83-.72,4.18-1.51,8.34-2.25,12.52-2.05,11.58-4.09,23.16-6.12,34.74-.5,2.84-.93,5.7-1.39,8.55-.04.27-.06.55-.1.96,9.37.67,18.68.65,28.16,0-.37-2.35-.68-4.56-1.06-6.76-2.39-13.62-4.79-27.24-7.19-40.85-.51-2.91-1.05-5.82-1.59-8.73-.38-2.06.1-2.8,2.11-3.28.4-.1.77-.35,1.16-.52,7.85-3.45,16.04-5.64,24.5-6.93,8.29-1.26,16.63-2.06,25.02-2.27,7.4-.18,14.79.14,21.83,2.76,2.08.77,3.94,2.12,5.96,3.07,1.83.86,3.71,1.64,5.62,2.29,2.15.73,4.33,1.48,6.56,1.87,4.1.71,7.63-.42,10.19-3.91.42-.57.82-1.16,1.24-1.74.82-1.13,2.14-1.44,3.18-.75,1.05.7,1.26,2.03.54,3.22-4.13,6.79-10.29,9.09-17.98,7.17-1.17-.29-2.32-.67-3.66-1.06ZM231,368.91c1.02,2.79,1.87,5.42,2.93,7.96,3.09,7.38,8.76,11.42,16.67,11.92,4.96.31,9.98.25,14.95-.09,6.15-.42,11.06-3.31,14.31-8.67,1.95-3.22,3.29-6.7,4.14-10.37.05-.22,0-.45,0-.71-3.97.55-7.87.81-11.78.15-6.16-1.03-10.75-4.15-13.34-9.96-.28-.62-.51-1.25-.84-2.06-.21.55-.35.91-.49,1.27-2.13,5.37-5.94,8.86-11.55,10.34-3.28.87-6.62,1-9.98.73-1.55-.12-3.1-.32-5.03-.52ZM268.38,317.85h-21.28c1.36,2.6,2.59,5.29,4.15,7.78,1.43,2.28,3.17,4.38,4.88,6.48.82,1.02,2.25.94,3.18.03.38-.37.73-.78,1.09-1.18,3.5-3.85,5.45-8.64,7.99-13.11ZM289.81,250.49c-5.29.74-10.31,2.03-15.33,3.66,4.23,4.31,12.23,2.13,15.33-3.66ZM226.31,250.79c-.04.12-.09.23-.13.35,3.23,6.07,11.6,7.62,15.34,3.32-5.15-1.24-10.18-2.45-15.21-3.66Z"/>
      <path d="M259.36,239.32c-11.56-.49-21.45-.64-31.24-2.13-5.8-.88-11.46-2.26-16.69-5.04-6.08-3.23-10.37-8.03-12.78-14.5-2.81-7.55-.67-15.01,5.82-19.76,3.7-2.71,7.8-4.67,12.45-4.96,6.41-.4,12.71,3.41,15,8.85.89,2.1,1.14,4.25.63,6.48-.73,3.25-2.17,6.11-4.6,8.41-2.8,2.65-6.09,3.6-9.86,2.58-1.37-.37-2.09-1.49-1.79-2.71.31-1.25,1.44-1.95,2.82-1.59,2.78.72,4.87-.32,6.59-2.42,1.27-1.55,2.08-3.33,2.49-5.27.58-2.73-.54-4.96-2.48-6.69-3.41-3.03-7.37-4.07-11.81-2.55-3.16,1.09-6.14,2.5-8.52,4.94-3.35,3.43-4.3,7.5-2.92,12.03,2.3,7.54,7.6,12.19,14.79,14.91,5.04,1.91,10.29,2.97,15.62,3.39,8.21.65,16.43,1.2,24.65,1.45,4.9.15,9.83-.31,14.74-.59,6.12-.34,12.24-.82,18.26-2.09,5.02-1.05,9.86-2.58,14.11-5.57,4.15-2.92,6.97-6.84,8.34-11.69,1.35-4.77.25-9-3.5-12.34-3.19-2.83-6.92-4.74-11.2-5.08-4.7-.38-9.32,2.53-10.8,6.39-.48,1.24-.55,2.48-.22,3.77.5,1.97,1.34,3.76,2.69,5.28,1.66,1.88,3.64,2.77,6.2,2.12,1.78-.45,3.1.63,2.96,2.31-.09,1.06-.7,1.67-1.7,1.95-3.24.9-6.25.39-8.9-1.66-3.51-2.72-5.46-6.42-5.86-10.78-.4-4.38,1.66-7.86,5.06-10.4,4.59-3.43,9.7-4.47,15.25-2.55,3.85,1.33,7.46,3.1,10.3,6.09,4.73,4.97,5.83,10.82,3.64,17.23-3.04,8.92-9.56,14.26-18.23,17.31-5.18,1.82-10.54,2.86-15.98,3.31-8.35.69-16.71,1.12-23.38,1.55Z"/>
      <path d="M253.03,439.63c.28-6.64-2.55-12.18-6.33-17.25-4-5.37-8.32-10.51-12.51-15.74-3.57-4.45-7.11-8.94-9.52-14.16-1.92-4.15-2.8-8.45-1.54-12.99.34-1.22,1.09-1.83,2.18-1.85,1.04-.02,1.89.57,2.16,1.56.1.36.15.8.04,1.15-1.06,3.33-.41,6.48.92,9.57,1.92,4.47,4.78,8.33,7.79,12.1,4.49,5.63,9.11,11.17,13.49,16.87,3.09,4.03,5.73,8.39,6.86,13.42,1.31,5.8,1.31,11.63-.85,17.26-2.26,5.9-6.67,8.98-12.99,9.25-6.71.29-11.36-2.52-14.2-8.56-1.41-2.99-1.98-6.18-1.95-9.45.02-2.69.44-5.33,1.68-7.77,2.94-5.76,8.58-5.27,12.51-1.2.74.76.63,2.05-.08,2.85-.73.82-1.97.98-2.92.34-.41-.28-.77-.63-1.18-.92-2.08-1.49-3.45-1.18-4.44,1.19-.53,1.26-.85,2.65-1,4.02-.41,3.71.27,7.25,2.2,10.48,2,3.37,5.06,4.7,8.91,4.6,6.76-.18,9.45-4.72,10.35-10.32.24-1.47.28-2.98.41-4.47Z"/>
      <path d="M259.95,438.93c.01-6.07,1.93-11.55,5.18-16.47,3.81-5.77,8.05-11.24,12.02-16.9,2.86-4.08,5.69-8.2,8.35-12.41,1.47-2.32,2.51-4.93,2.71-7.7.12-1.64-.06-3.33-.36-4.96-.31-1.68.03-2.86,1.32-3.25,1.36-.41,2.48.31,2.99,1.97,1.34,4.39.56,8.6-1.12,12.72-1.99,4.86-4.98,9.12-8.06,13.32-4.24,5.78-8.59,11.48-12.72,17.33-2.49,3.53-4.53,7.38-5.25,11.72-.77,4.6-.6,9.19,1.1,13.59,1.91,4.95,5.8,7.16,11.08,6.58,3.72-.41,6.29-2.34,7.82-5.67,1.83-3.98,2.17-8.14.83-12.3-1.56-4.85-3.6-3.94-5.92-1.78-.92.86-1.92.94-2.83.35-.89-.58-1.13-1.43-.92-2.42.04-.2.13-.41.23-.59,1.76-3.01,6.74-4.46,9.62-2.6,1.2.78,2.29,1.98,3.01,3.23,3.75,6.51,2.2,17.24-3.13,22.51-3.15,3.11-7.09,4.05-11.32,3.73-7.16-.53-11.83-4.79-13.52-12.31-.57-2.52-.75-5.13-1.1-7.7Z"/>
      <path d="M254.76,199.01c-.12,3.7-.75,7.01-1.99,10.2-1.24,3.17-1.95,6.41-1.02,9.81.78,2.86,2.72,4.52,5.51,5.26.35.09.78.04,1.14-.07,3.97-1.15,6.14-4.45,5.65-9.01-.22-2.06-.76-4.13-1.44-6.1-1.5-4.31-2.34-8.68-1.58-13.23.58-3.44,2.28-6.19,5.4-7.93,4.73-2.64,10.74-.15,11.8,4.95.7,3.37-.55,6.32-2.47,9.01-.61.85-1.94.92-2.83.34-.92-.6-1.25-1.8-.76-2.84.43-.9.97-1.75,1.33-2.67.89-2.27.5-3.94-1.03-4.84-1.73-1.02-3.89-.58-5.39,1.14-1.42,1.62-1.83,3.59-1.88,5.66-.07,3.15.58,6.15,1.72,9.08,1.53,3.93,2.21,7.98,1.17,12.15-1.07,4.25-3.75,7.11-7.9,8.41-3.66,1.15-6.83-.19-9.49-2.69-3.31-3.11-4.2-7.15-3.66-11.47.29-2.31,1-4.58,1.71-6.81,1.1-3.43,1.94-6.86,1.35-10.49-.34-2.09-1.21-3.87-3.14-4.97-1.45-.83-2.89-.75-4.23.19-1.33.93-1.48,2.32-1.03,3.74.34,1.08.83,2.12,1.36,3.12.72,1.38.52,2.7-.63,3.36-1.13.65-2.4.26-3.17-1.01-1.44-2.35-2.49-4.85-2.15-7.68.64-5.26,6.46-8.3,11.37-5.95,3.8,1.82,5.56,5.05,6.11,9.07.12.85.15,1.7.19,2.27Z"/>
      <path d="M181.88,371.36c-.03-5.2,1.3-10.08,3.31-14.83,3.1-7.32,6.66-14.36,11.85-20.45,1.13-1.33,2.4-2.54,3.67-3.73,1.16-1.08,2.53-1.06,3.42-.08.92,1.03.72,2.38-.51,3.45-2.93,2.56-5.27,5.61-7.32,8.89-3.82,6.09-7.05,12.49-8.97,19.43-1.4,5.03-1.4,10.16.26,15.18,2.41,7.3,10.77,11.31,18.02,8.69,4.16-1.51,6.88-5.97,6.17-10.13-.56-3.28-3.87-5.16-6.97-3.96-1.65.63-2.22,1.82-1.65,3.49.61,1.81,1.88,3.16,3.14,4.53.47.51.96,1.27.94,1.91-.02.66-.49,1.56-1.05,1.89-.56.33-1.72.39-2.16.02-2.87-2.4-5.27-5.21-5.5-9.17-.23-3.98,2.8-7.06,7.03-7.39,7.43-.57,12.34,5.6,10.42,13.11-1.81,7.07-8.28,11.49-15.77,10.82-4.32-.38-8.35-1.51-11.68-4.44-3.88-3.41-5.61-7.89-6.28-12.86-.19-1.44-.24-2.91-.35-4.37Z"/>
      <path d="M333.49,371.37c.02,3.31-.39,6.54-1.54,9.66-2.63,7.16-7.88,10.93-15.34,11.85-3.94.48-7.69-.01-11.1-2.17-5.4-3.41-7.89-10.68-5.53-16.06,2.23-5.07,8.66-7.19,13.47-4.43,3.03,1.73,4.21,5,3.07,8.49-.9,2.77-2.73,4.9-4.83,6.81-.87.79-2.21.62-3-.23-.79-.85-.8-2.11,0-3.01.61-.69,1.28-1.34,1.88-2.04.39-.46.75-.96,1.05-1.48.67-1.2,1.37-2.48.5-3.81-.87-1.35-2.35-1.54-3.82-1.43-3.46.26-5.45,3.45-4.6,7.25.94,4.17,3.94,7.09,8.22,7.62,4.89.61,9.4-.36,12.95-4.07,2.58-2.69,3.58-6.11,3.98-9.72.57-5.09-.17-10-2.1-14.76-2.98-7.36-6.42-14.46-11.55-20.61-1.07-1.28-2.3-2.43-3.5-3.6-1.13-1.09-1.31-2.39-.39-3.39.87-.95,2.21-.95,3.34.03,3.62,3.14,6.44,6.94,8.93,11,3.18,5.18,5.73,10.66,7.86,16.35,1.42,3.78,2.04,7.7,2.03,11.73Z"/>
      <path d="M344.68,226.25c-1.15,1.1-1.05,2.84.14,3.89,2.9,2.52,7.69,1.13,8.71-2.53,1.37-4.91-1.27-8.36-6.54-8.6-4.93-.22-9.09,1.55-12.56,4.94-2.01,1.96-3.85,4.11-5.79,6.15-.74.77-1.51,1.53-2.34,2.19-.95.75-2.22.59-3-.27-.79-.87-.79-2.13.04-3.01,2.61-2.73,5.17-5.51,7.87-8.16,4.26-4.18,9.36-6.45,15.4-6.28,1.41.04,2.86.25,4.21.64,7.71,2.22,10.22,12.23,4.62,18.03-3.54,3.67-11.17,3.03-14.14-.27-2.19-2.43-2.57-6.18-.8-8.82,1.12-1.67,2.66-2.64,4.75-2.6,2.12.04,3.78,1.48,3.93,3.6.06.91-.06,1.86-.28,2.74-.32,1.31-1.46,1.94-2.69,1.65-1.21-.28-1.86-1.36-1.63-2.71.03-.16.06-.33.1-.57Z"/>
      <path d="M171.24,226.73c.05.44.13.78.13,1.12-.02.98-.45,1.71-1.39,2.09-.93.37-1.86.23-2.43-.55-1.08-1.48-1.21-3.18-.56-4.88.59-1.55,1.8-2.4,3.43-2.48,2.33-.12,4.04,1,5.18,2.97,2.04,3.55.6,8.09-3.15,10.05-4.18,2.19-9.74,1.38-12.41-1.8-5.51-6.56-2.04-16.39,6.37-17.87,6.62-1.17,12.44.72,17.39,5.18,2.01,1.81,3.77,3.89,5.66,5.83.94.97,1.89,1.94,2.87,2.88.95.92,1.12,2.22.35,3.16-.81.99-2.24,1.18-3.23.23-1.87-1.81-3.65-3.71-5.41-5.62-2.41-2.61-4.94-5.07-8.32-6.4-2.92-1.14-5.93-1.54-9.01-.76-4.68,1.19-6.34,6.77-3.24,10.53,1.69,2.04,6.62,1.62,7.99-.13.82-1.05.78-2.52-.21-3.55Z"/>
      <path d="M201.02,399.03c8.11.04,13.61,6.75,12.14,14.84-.94,5.17-3.71,9.34-7.16,13.14-.29.32-.57.64-.89.92-.94.84-2.24.84-3.1.02-.88-.84-.88-2.18-.04-3.18,1.28-1.53,2.62-3.02,3.77-4.64,1.59-2.22,2.7-4.68,3.07-7.43.8-5.95-3.63-10.14-9.54-9.03-3.07.58-5.65,2.09-7.97,4.12-.3.26-.57.55-.88.78-.96.7-2.24.58-3-.27-.76-.83-.79-2.2.05-3.01,3.1-3.02,6.68-5.21,11-5.97.84-.15,1.7-.19,2.55-.29Z"/>
      <path d="M302.08,412.44c-.02-8.8,6.28-14.27,13.91-13.27,4.65.61,8.46,2.81,11.81,5.95.98.92,1.01,2.37.15,3.26-.84.87-2.19.89-3.17,0-2.46-2.24-5.16-4.02-8.5-4.66-6.24-1.18-10.82,3.4-9.57,9.62.87,4.32,3.32,7.74,6.24,10.89.24.26.5.51.71.8.68.94.58,2.13-.23,2.92-.8.78-2.12.94-2.91.13-4.63-4.66-8.18-9.88-8.43-15.63Z"/>
    </g>
    <g>
      <path d="M5.69,220.13c2.63-3.78,5.25-7.56,8-11.52,1.18.8,2.33,1.58,3.46,2.34-2.18,4.38-2.13,4.59,1.95,7.37,9.58,6.53,19.17,13.05,28.75,19.57.34.23.69.45,1.06.69,6.32-4.38,13.73-5.37,20.92-6.96,8.5-1.87,17.11-3.37,25.09-7,15.17-6.89,24.24-18.96,28.56-34.73,1.05-3.84,1.35-7.97,1.41-11.98.07-4.84-1.05-9.39-3.86-13.64-6.41-9.71-12.44-19.68-18.62-29.55-1.97-3.14-2.97-3.39-6.24-1.58-.13.07-.28.1-.51.17-.72-1.15-1.44-2.3-2.27-3.62,2.37-1.44,4.58-3.08,7.03-4.15,1.33-.58,3.09-.28,4.64-.18,6.87.45,13.23,2.56,19.37,5.91-.51-.85-1.01-1.7-1.53-2.55-1.11-1.78-2.22-3.56-3.34-5.34-1.62-2.57-3.03-2.92-5.6-1.37-.22.13-.46.25-.78.42-.4-.63-.8-1.23-1.18-1.84-.36-.57-.71-1.15-1.13-1.83,4.05-2.54,8.03-5.04,12.16-7.63.79,1.26,1.53,2.43,2.3,3.65-.36.26-.61.45-.86.62-2.5,1.67-2.81,3.07-1.2,5.65,4.53,7.25,9.08,14.49,13.62,21.73,2.26,3.6,4.51,7.2,6.77,10.8,1.82,2.9,3.06,3.2,6.06,1.45.17-.1.36-.18.63-.3.74,1.17,1.47,2.32,2.3,3.63-4.06,2.55-8.07,5.06-12.17,7.64-.8-1.27-1.54-2.44-2.32-3.67.65-.44,1.19-.76,1.68-1.14,1.21-.95,1.74-2.52.95-3.78-3.84-6.11-7.05-12.7-12.58-17.6-6.68-5.92-14.48-9.29-23.69-10.14.36.63.6,1.06.86,1.47,6.62,10.58,13.13,21.23,19.93,31.7,2.9,4.46,4.04,9.3,4.38,14.41.85,12.71-3.95,23.58-11.34,33.52-8.85,11.89-20.71,19.04-35.08,22.25-7.47,1.67-14.94,3.32-22.38,5.09-2.13.51-4.23,1.25-6.23,2.13-5.34,2.35-7.43,5.23-8.21,11.07-1.14-.78-2.28-1.42-3.23-2.28-.33-.29-.4-1.19-.22-1.67.69-1.91,1.52-3.76,2.39-5.83-.28-.2-.73-.53-1.19-.85-9.28-6.32-18.56-12.63-27.84-18.94-3.72-2.53-4.23-2.47-7.19,1.02-1.15-.77-2.31-1.56-3.47-2.34,0-.11,0-.21,0-.32Z"/>
      <path d="M205.62,73.82c1.13.49,2.27.98,3.62,1.56-1.06,2.9-2.12,5.81-3.23,8.82-1.46-.52-2.81-1-4.33-1.54,1.13-3.02,2.22-5.94,3.31-8.85.21,0,.42,0,.63,0Z"/>
      <path d="M353.14,140.3c-.98-.55-1.89-1.05-2.97-1.65.65-1.29,1.27-2.52,1.93-3.83,1.08.51,2.05.98,3.15,1.5,1.48-2.8,2.93-5.51,4.36-8.23,1.3-2.46,2.53-4.95,3.89-7.37,4.36-7.74,11.26-11.43,19.88-12.25.43-.04,1.12.33,1.33.71,4.46,7.77,5.18,15.74.99,23.85-4.02,7.78-8.13,15.5-12.2,23.25-1.55,2.95-1.19,4.18,1.72,5.86.17.1.32.23.58.42-.64,1.24-1.25,2.44-1.95,3.8-4.22-2.21-8.37-4.39-12.65-6.64.66-1.3,1.29-2.53,1.89-3.69.27,0,.38-.03.47,0,3.81,1.57,4.39,1.36,6.34-2.38.6-1.15,1.21-2.3,1.89-3.59-4.9-2.58-9.7-5.11-14.66-7.72-.52.94-1.11,1.8-1.49,2.74-1.6,3.94-4.6,6.51-8.14,8.66-5.78,3.52-12.12,5.3-18.74,5.88-14.83,1.32-29.56.68-44.01-3.27-7.69-2.1-14.81-5.46-21.56-9.71-11.32-7.13-17.9-17.26-19.74-30.49-1.99-14.29,2.7-26.03,13.73-35.19,4.33-3.59,9.31-5.97,15.17-5.36,2.05.21,4.06.9,6.19,1.39.06-.18.17-.51.31-.95,1.31.11,2.65.23,4.19.36-.33,3.82-.64,7.54-.97,11.39-1.48-.1-2.77-.19-4.17-.29-.09-.82-.15-1.59-.26-2.36-.44-3.11-2.6-5.12-5.74-5.22-6.1-.21-10.78,2.76-14.71,7.01-6.04,6.52-8.75,14.46-9.13,23.22-.65,14.94,6.57,25.59,18.66,33.44,9.12,5.92,19.25,9.25,29.9,10.96,9.77,1.57,19.61,2.11,29.48,1.04,7.55-.82,14.67-2.84,21.04-7.21,2.94-2.02,4.46-4.92,5.99-8.08ZM373.91,146.2c3.03-5.93,6.24-11.65,8.89-17.61,2.06-4.63,1.67-9.51-.25-14.24-.48-1.18-1.09-1.42-2.27-1.13-5.95,1.45-10.37,4.85-13.27,10.22-1.49,2.76-2.93,5.56-4.38,8.34-1.15,2.2-2.31,4.41-3.49,6.67,4.98,2.61,9.79,5.14,14.78,7.75Z"/>
      <path d="M408.53,187.03c-.85,1.11-1.64,2.15-2.56,3.37-3.81-2.89-7.58-5.75-11.44-8.69.89-1.18,1.71-2.25,2.52-3.33.22.05.39.05.5.13,3.12,2.2,4.11,2.04,6.46-1.04,7.88-10.35,15.75-20.71,23.62-31.07.27-.36.51-.75.91-1.34-6.19.48-10.98,3.17-14.94,7.69-1.15-.86-2.23-1.67-3.42-2.56,3.51-4.98,4.87-10.4,3.53-16.6-.37.38-.67.62-.89.92-8.17,10.73-16.33,21.45-24.49,32.19-1.63,2.14-1.38,3.69.77,5.38.28.22.56.46.91.76-.47.62-.89,1.2-1.33,1.77-.41.53-.82,1.06-1.29,1.68-3.83-2.92-7.57-5.76-11.4-8.68.9-1.2,1.71-2.28,2.5-3.33.18.03.3,0,.36.06,3.16,2.6,4.81,1.35,6.62-1.06,7.33-9.78,14.77-19.48,22.17-29.2,2.91-3.82,2.91-4.01-.45-7.49.8-1.06,1.61-2.14,2.41-3.21,7.3,3.49,10.08,9.15,8.71,17.58-.13.77-.2,1.55-.33,2.56,1.23-.52,2.26-.96,3.3-1.38,3.06-1.26,6.23-1.78,9.54-1.39,1.54.18,2.93.58,4.15,1.64,1.46,1.26,3.06,2.37,4.73,3.64-.88,1.18-1.71,2.29-2.5,3.35-.18-.02-.25,0-.28-.03-2.91-2.41-4.58-1.97-7.05,1.35-7.25,9.71-14.65,19.31-21.97,28.97-2.8,3.69-2.75,4.08.64,7.39Z"/>
      <path d="M83.02,201.05c-15.54-.27-27.68-12.74-27.41-28.15.28-15.62,12.75-27.77,28.24-27.5,15.77.27,27.65,12.69,27.37,28.61-.27,15.19-12.91,27.31-28.2,27.05ZM106.81,173.67c.22-13.02-9.88-23.61-22.73-23.86-13.34-.25-23.91,9.89-24.1,23.14-.19,12.94,10.01,23.48,22.91,23.68,13.23.2,23.7-9.85,23.92-22.97Z"/>
      <path d="M446.93,239.08c-3.15-4.28-6.22-8.45-9.35-12.71,1.15-.86,2.24-1.68,3.3-2.47,2.85,1.44,3.7,1.2,4.99-1.83,1-2.36,1.79-4.81,2.53-7.26.48-1.59-1.34-1.72-1.96-2.83-2.32,1.72-4.59,3.32-6.75,5.05-1.25,1.01-1.39,2.58-.57,4,.31.54.71,1.04,1.19,1.73-1.13.84-2.23,1.68-3.48,2.61-2.86-3.88-5.66-7.69-8.52-11.58,1.21-.89,2.29-1.69,3.32-2.46.22.09.34.1.4.17,2.52,3.04,3.41,3.12,6.61.76,9.97-7.35,19.95-14.67,29.91-22.02,3.5-2.58,3.58-3.15,1.22-6.97,1.09-.81,2.2-1.63,3.43-2.55,3.29,4.63,7.19,8.69,8.02,14.61,2.13,15.18-12.65,27.16-27.05,21.82-.49-.18-.98-.37-1.48-.56-.13.09-.32.15-.37.27-1.8,4.15-3.24,8.42-3.73,12.94-.34,3.14-.15,3.5,1.77,6.75-1.07.79-2.16,1.6-3.43,2.54ZM474.96,190.99c-8.29,6.11-16.58,12.21-24.9,18.33,5.73,5.74,14.82,6.25,20.97,1.33,5.84-4.66,7.7-13.78,3.92-19.66Z"/>
      <path d="M301.25,118.59c1.66,4.81,3.46,9.39,6.54,13.33.63.81,1.44,1.56,2.31,2.09.81.5,1.82.69,2.82,1.04-.29,1.32-.56,2.59-.9,4.13-5.15-1.12-10.22-2.23-15.39-3.36.24-1.21.37-2.25.69-3.23.14-.41.64-.87,1.07-.99,1.64-.44,2.45-1.17,1.96-2.79-.93-3.1-2.08-6.15-3.45-9.07-.26-.56-1.94-.45-3.1-.67-.65,2.96-1.31,5.65-1.8,8.37-.27,1.5.86,2.94,2.44,3.42.55.17,1.12.26,1.83.42-.28,1.36-.56,2.67-.88,4.24-4.66-1.01-9.23-2-14.01-3.03.29-1.41.56-2.71.87-4.18.49.07.94.1,1.37.19,2.2.44,3.72-.48,4.2-2.67,1.69-7.63,3.35-15.26,5.01-22.89,1.13-5.17,2.25-10.35,3.38-15.52.66-3.02-.03-4.17-2.97-4.93-.24-.06-.49-.13-.9-.23.31-1.43.61-2.79.93-4.28,3.24.76,6.4,1.3,9.43,2.27,7.69,2.47,13.16,10.17,13.24,18.31.08,9.06-5.05,16.58-13.35,19.55-.39.14-.79.27-1.37.48ZM301.35,84.58c-2.21,10.12-4.4,20.13-6.59,30.15,5.76.78,14.52-3.24,16.55-12.29,1.63-7.28-3.03-15.8-9.96-17.87Z"/>
      <path d="M155.85,105.55c-.26-.47-.44-.78-.6-1.09-1.13-2.28-2.6-2.81-4.88-1.75-2.89,1.35-5.78,2.72-8.85,4.17,1.48,3.15,2.94,6.25,4.47,9.5,3-1.41,5.92-2.78,9.02-4.24.63,1.29,1.23,2.54,1.9,3.92-3.01,1.44-5.93,2.84-9.02,4.32,4.57,9.65,9.11,19.24,13.71,28.98,3.26-1.56,6.44-3,9.55-4.59,1.43-.73,1.86-2.44,1.26-3.97-.21-.53-.46-1.05-.75-1.69,1.26-.61,2.47-1.19,3.9-1.88,1.34,2.81,2.65,5.56,4.04,8.46-8.23,3.9-16.36,7.74-24.59,11.64-.65-1.37-1.23-2.58-1.79-3.75.14-.18.19-.3.27-.33,3.15-1.26,3.76-3.03,2.05-6.52-3.69-7.53-7.2-15.14-10.79-22.72-.26-.56-.57-1.1-.89-1.71-1.55.71-3.01,1.38-4.54,2.08-.61-1.29-1.19-2.51-1.85-3.89,1.49-.74,2.92-1.45,4.56-2.26-1.18-2.41-2.24-4.85-3.56-7.14-.75-1.3-2.16-1.58-3.62-1.03-.58.22-1.13.49-1.82.78-.63-1.28-1.23-2.49-1.92-3.88,8.19-3.88,16.32-7.73,24.6-11.66,1.33,2.79,2.63,5.52,3.99,8.37-1.33.64-2.57,1.25-3.87,1.88Z"/>
      <path d="M67.84,222.06c2.38-2.75,4.73-5.36,6.95-8.07.98-1.2.72-2.86-.39-4.03-.43-.45-.91-.85-1.45-1.35.95-1.1,1.83-2.11,2.85-3.28,2.34,2.04,4.62,4.02,7.07,6.16-5.96,6.84-11.87,13.61-17.88,20.5-1.13-.98-2.19-1.89-3.23-2.79,2.7-3.95,2.64-4.34-.92-7.43-6.1-5.31-12.18-10.63-18.27-15.94-.55-.48-1.12-.93-1.79-1.49-1.12,1.25-2.19,2.44-3.34,3.73-1.13-.98-2.19-1.89-3.3-2.85,1.13-1.3,2.19-2.53,3.31-3.83-1.91-1.66-3.72-3.32-5.63-4.88-1.38-1.13-2.97-.97-4.26.28-.41.4-.78.84-1.3,1.4-.57-.48-1.12-.93-1.66-1.4-.51-.44-1.02-.9-1.64-1.45,5.97-6.84,11.89-13.62,17.89-20.5,2.35,2.05,4.63,4.04,6.99,6.11-.96,1.11-1.85,2.13-2.69,3.1-.21-.02-.35.02-.4-.04-2.75-2.74-4.69-1.87-6.77.75-1.72,2.17-3.62,4.2-5.54,6.4,2.64,2.3,5.19,4.53,7.89,6.9,2.19-2.49,4.32-4.92,6.58-7.49,1.08.94,2.13,1.85,3.3,2.85-2.18,2.51-4.3,4.96-6.54,7.55,8.03,7.01,16.03,13.99,24.15,21.08Z"/>
      <path d="M440.35,173.72c-7.61,7.65-15.07,15.16-22.53,22.65,2.14,2.26,4.53,4.88,7.06,7.37,1.05,1.03,2.68.87,3.92-.07.49-.37.93-.81,1.37-1.2,1,1.01,1.94,1.96,2.78,2.82-2.13,2.07-4.29,4.17-6.41,6.23-6.11-6.23-12.41-12.65-18.62-18.98.96-.96,1.94-1.95,2.97-2.98-.07-.03.04,0,.11.06,2.94,2.8,3.83,2.82,6.75-.1,6.37-6.39,12.71-12.81,19.24-19.39-.83-.73-2.05-1.79-3.3-2.88,1.26-1.17,2.28-2.12,3.5-3.25.92,1.1,1.95,2.33,3.03,3.63,2.09-2,3.99-3.72,5.76-5.56,1.03-1.08.93-2.63-.03-3.9-.38-.5-.82-.94-1.17-1.35,1.03-.97,2.04-1.92,2.91-2.74,6.18,6.22,12.52,12.62,18.83,18.97-2.21,2.15-4.35,4.23-6.58,6.4-.81-.99-1.69-2.07-2.73-3.36-.08.36-.09.22-.03.17,2.97-2.58,2.2-4.59-.17-6.83-2.02-1.91-3.88-3.99-5.69-5.87-2.54,2.48-5.01,4.88-7.54,7.34,2.12,2.13,4.4,4.43,6.78,6.81-1.19,1.11-2.21,2.06-3.39,3.16-2.22-2.34-4.45-4.68-6.78-7.14Z"/>
      <path d="M314.49,140.03c.54-1.48,1-2.75,1.48-4.06.52.16.91.27,1.3.39,2.29.75,3.77.09,4.59-2.18,2.39-6.6,4.73-13.21,7.1-19.82.81-2.26,1.61-4.52,2.48-6.96-1.6-.59-3.09-1.14-4.72-1.74.48-1.37.92-2.64,1.41-4.08,1.61.55,3.11,1.06,4.83,1.64.87-2.54,1.82-4.97,2.52-7.46.42-1.51-.39-2.73-1.86-3.41-.56-.26-1.15-.47-1.82-.74.47-1.33.92-2.6,1.45-4.07,8.52,3.04,16.98,6.05,25.61,9.13-1.04,2.92-2.04,5.75-3.1,8.72-1.37-.47-2.64-.91-4.07-1.4.18-.61.33-1.14.49-1.67.54-1.75-.09-3.33-1.79-3.99-3.17-1.22-6.39-2.32-9.77-3.53-1.17,3.27-2.32,6.46-3.55,9.88,3.14,1.14,6.21,2.25,9.38,3.4-.49,1.37-.94,2.64-1.46,4.09-3.12-1.1-6.15-2.16-9.41-3.31-3.6,10.07-7.16,20.05-10.79,30.21,3.43,1.2,6.76,2.42,10.13,3.51,1.35.44,2.83-.41,3.5-1.76.28-.56.48-1.15.78-1.9,1.35.47,2.64.93,4.07,1.43-1.07,3.01-2.09,5.85-3.15,8.83-8.55-3.05-17.01-6.07-25.63-9.15Z"/>
      <path d="M453.04,241.75c3.05,3.82,3.17,3.8,7.4,1.5,1.23-.67,1.7-1.49,1.95-2.88,1.29-7.39,5.19-13.07,11.69-16.87,4.25-2.49,8.57-4.86,12.86-7.29,3.82-2.17,4.02-2.8,2.11-6.85.58-.35,1.19-.72,1.79-1.08.58-.34,1.17-.66,1.91-1.08,1.54,2.72,3.03,5.34,4.6,8.11-.58.35-1.09.67-1.62.97-6.39,3.61-12.8,7.19-19.17,10.82-5.42,3.09-8.65,7.76-9.94,13.86-.24,1.15.11,1.59,1.11,1.95,5.75,2.12,11.33,1.81,16.69-1.17,6.96-3.87,13.88-7.82,20.82-11.73.04-.03.1-.03.35-.11,1.49,2.63,3,5.29,4.57,8.08-1.26.72-2.43,1.39-3.73,2.13-.28-.43-.54-.8-.78-1.18-1.25-2.03-2.86-2.49-4.93-1.33-4.57,2.56-9.12,5.16-13.7,7.72-7.1,3.97-14.41,4.35-21.93,1.24-.51-.21-1.27-.09-1.83.12-.78.29-1.47.79-2.2,1.21-2.21,1.29-2.65,2.85-1.44,5.12.17.32.31.66.48,1.01-.19.16-.33.32-.5.42-1,.57-2.01,1.12-3.2,1.78-2.34-4.13-4.65-8.21-7.04-12.42,1.27-.72,2.48-1.41,3.67-2.08Z"/>
      <path d="M184.04,85.11c1,3.05,1.97,5.96,2.98,9.05-1.42.46-2.74.88-4.1,1.32-.2-.5-.35-.82-.47-1.16-.93-2.59-2.93-3.35-5.36-2.04-3.4,1.83-3.74,6.43-.67,9,2.37,1.99,5.31,2.63,8.17,3.51,3.9,1.19,7.91,2.19,11.58,3.9,6.51,3.04,10.05,8.43,9.87,15.68-.18,7.29-3.81,12.62-10.52,15.67-3.19,1.45-6.58,1.58-10.17,1.08.19.73.34,1.36.54,2.14-1.32.44-2.63.88-4.09,1.37-1.32-3.99-2.6-7.85-3.9-11.81,1.4-.47,2.67-.9,4.13-1.39.29.86.59,1.62.81,2.41.5,1.85,1.78,2.77,3.58,3.08,6.2,1.05,12.19-2.41,14.47-8.34,2.22-5.76.06-11.82-5.4-15.26-3.53-2.23-7.56-3.01-11.46-4.21-2.94-.91-5.96-1.83-8.62-3.31-6.5-3.62-7.38-11.44-2.02-16.23.69-.62,1.52-1.31,2.38-1.48,2.83-.56,5.28-2.11,8.27-2.98Z"/>
    </g>
  </g>
</svg>