<?xml version="1.0" encoding="utf-8"?>
<!-- Generator: Adobe Illustrator 21.1.0, SVG Export Plug-In . SVG Version: 6.00 Build 0)  -->
<svg version="1.1" id="Layer_1" xmlns="http://www.w3.org/2000/svg" xmlns:xlink="http://www.w3.org/1999/xlink" x="0px" y="0px"
	 viewBox="0 0 340.5 110.8" style="enable-background:new 0 0 340.5 110.8;" xml:space="preserve">
<g id="XMLID_4_">
	<path id="XMLID_110_" d="M106,61c1.1-0.3,2.2-0.5,3.3-0.8l0.1,0.1c0-0.2,0-0.4,0-0.6c0-5.3,0-10.7,0-16c0-1.3-0.5-1.8-1.8-1.8
		c-0.1,0-0.2,0-0.4,0c0-0.1,0-0.2,0-0.3c0-0.5,0-1.1,0-1.6c2.2,0,4.3,0,6.4,0c0,0.6,0,1.2,0,1.9c-0.3,0-0.5,0-0.8,0
		c-0.9,0-1.5,0.6-1.5,1.5c0,0.1,0,0.2,0,0.4c0,5.5,0,11.1,0,16.6c0,0.4,0.1,0.6,0.5,0.7c1.7,0.7,3.1,1.8,4.5,3
		c3.1,2.8,6.4,5.3,10.2,7.2c4.4,2.2,8.9,2.9,13.7,2.4c3.5-0.4,6.8-1.3,9.9-3.1c3-1.7,5.3-4.1,6.4-7.5c0.1-0.3,0.2-0.7,0.2-1
		c0-6.1,0-12.3,0-18.4c0-1.4-0.4-1.9-1.9-1.9c-0.1,0-0.2,0-0.4,0c0-0.3,0-0.6,0-1c0-0.3,0-0.6,0-1c1.3,0,2.5,0,3.7,0
		c0.2,0,0.3,0.1,0.5,0.2c3,1.8,5.3,4.3,7,7.4c0.1,0.2,0.2,0.4,0.4,0.5c0-1,0-1.9,0-2.9c0-0.6,0-1.1,0-1.7c0-1-0.6-1.6-1.6-1.6
		c-0.2,0-0.4,0-0.6,0c0-0.1,0-0.2,0-0.3c0-0.5,0-1.1,0-1.6c2.2,0,4.3,0,6.5,0c0,0.6,0,1.3,0,1.9c-0.2,0-0.5,0-0.7,0
		c-0.9,0-1.5,0.6-1.6,1.5c0,0.2,0,0.3,0,0.5c0,5.8,0,11.6,0,17.4c0,1.5,0.5,2,2,2.1c0.1,0,0.2,0,0.3,0c0,0.3,0,0.6,0,0.9
		c0,0.3,0,0.6,0,1c-2.2,0-4.3,0-6.5,0c0-0.6,0-1.3,0-1.9c0.2,0,0.5,0,0.7,0c0.8,0,1.5-0.6,1.5-1.4c0-2.1,0.1-4.3-0.1-6.4
		c-0.3-4.2-2-7.7-4.9-10.8c-0.7-0.7-1.5-1.4-2.2-2.1l-0.1,0.1c0,0.8,0,1.7,0,2.5c0,2.4,0,4.8,0.1,7.2c0,3,0,6.1,0,9.1
		c0,2-0.7,3.9-1.8,5.6c-1.8,3-4.4,5-7.5,6.4c-3,1.4-6.2,2.3-9.5,2.6c-0.1,0-0.3,0.1-0.4,0.1c-1.4,0-2.8,0-4.3,0
		c-0.1,0-0.2-0.1-0.2-0.1c-3.3-0.2-6.4-1.2-9.4-2.7c-3.8-1.9-7.2-4.5-10.4-7.3c-1.1-1-2.3-1.9-3.6-2.7c-1.1-0.7-2.4-1.1-3.7-0.9
		c-0.7,0.2-1.4,0.5-2.1,0.8C106,62.4,106,61.7,106,61z"/>
	<path id="XMLID_107_" d="M241.5,76c-0.7-0.1-1.4-0.2-2.1-0.3c-6-0.8-11.4-3.1-16.3-6.7c-2.5-1.8-4.7-4-6.2-6.8
		c-2.1-4-2.9-8.3-1.5-12.8c1.2-3.9,3.6-6.9,7.2-8.8c2.1-1.1,4.4-1.3,6.7-0.5c0.1,0,0.1,0,0.2,0c0,0,0,0,0.1,0c0-0.1,0-0.3,0.1-0.5
		c0.6,0,1.3,0,1.9,0c0,1.7,0,3.4,0,5.2c-0.6,0-1.2,0-1.9,0c-0.1-0.4-0.1-0.8-0.2-1.1c-0.4-1.3-1.3-2-2.7-2c-1.5,0-2.9,0.5-4.2,1.3
		c-3.7,2.5-5.8,5.9-5.8,10.4c-0.1,3.3,1,6.3,2.9,9c2.2,3.2,5.1,5.6,8.5,7.5c4.7,2.6,9.7,4.1,15.1,4.1c5.6-0.1,10.9-1.4,15.7-4.6
		c2.2-1.5,4-3.4,5.1-5.8c0.1-0.2,0.2-0.4,0.2-0.6c0-1.2,0-2.5,0-3.7c0-0.1,0-0.2,0-0.3c-0.5,0-1,0-1.5,0c0-0.7,0-1.3,0-2
		c0.5,0,1,0,1.5,0c0-0.3,0-0.5,0-0.7c0-2.3,0-4.6,0-6.8c0-3.9,1.6-7,4.8-9.3c1.2-0.9,0.8-0.9,2,0c3.2,2.2,4.8,5.3,4.8,9.2
		s0,7.8,0,11.7c0,1.4,0.5,1.9,1.9,1.9c0.1,0,0.2,0,0.3,0c0,0.7,0,1.3,0,1.9c-2.1,0-4.3,0-6.4,0c0-0.6,0-1.3,0-1.9c0.2,0,0.5,0,0.7,0
		c0.9,0,1.5-0.6,1.5-1.5s0-1.8,0-2.7c-2.5,0-5,0-7.6,0c0,0.8,0,1.6,0,2.4c0.2,2.9-1.2,5.2-3.1,7.1c-3.5,3.6-7.8,5.6-12.5,6.7
		c-1.3,0.3-2.7,0.4-4.1,0.6c-0.1,0-0.3,0.1-0.4,0.1C244.5,76,243,76,241.5,76z M270,41.9c-0.1,0.1-0.2,0.1-0.3,0.2
		c-2.2,1.8-3.4,4.1-3.5,6.9c-0.1,2.5,0,5,0,7.4c0,0.2,0,0.3,0,0.5c2.5,0,5,0,7.6,0c0-2.5,0-5,0-7.5c0-0.7-0.1-1.4-0.2-2.1
		C273.1,45,271.9,43.2,270,41.9z"/>
	<path id="XMLID_105_" d="M339,41.6c-0.2,0-0.5,0-0.7,0c-1,0-1.6,0.6-1.6,1.6c0,2.6,0.1,5.2,0,7.8c-0.1,3.4-1.6,6.2-4.4,8.3
		c-0.3,0.2-0.4,0.4-0.4,0.8c0,0.4,0,0.8,0,1.3c0,1,0.6,1.6,1.6,1.6c0.2,0,0.4,0,0.6,0c0,0.3,0,0.6,0,0.9c0,0.3,0,0.6,0,1
		c-2.2,0-4.3,0-6.5,0c0-0.6,0-1.3,0-1.9c0.3,0,0.5,0,0.8,0c0.8,0,1.4-0.6,1.4-1.5v-0.1c0.1-1.2-0.2-2-1.2-2.8
		c-2.4-2.1-3.6-4.9-3.6-8.1c0-2.3,0-4.7,0-7c0-1.5-0.4-1.9-1.9-1.9c-0.1,0-0.2,0-0.4,0c0-0.6,0-1.3,0-1.9c1.4,0,2.8,0,4.2,0
		c0,0.2,0,0.4,0,0.6c0,3.4,0,6.9,0,10.3c0,2.9,1.2,5.2,3.4,7.1c0.3,0.2,0.5,0.3,0.8,0c2.3-1.8,3.4-4.2,3.4-7.1c0-3.4,0-6.8,0-10.2
		c0-0.2,0-0.4,0-0.7c1.4,0,2.9,0,4.3,0C339,40.4,339,41,339,41.6z"/>
	<path id="XMLID_104_" d="M202.5,37.1c0.5,0.4,1,0.7,1.6,1.1c-0.8,1.2-1.5,2.4-2.3,3.6c-0.6-0.4-1.2-0.7-1.7-1.1
		C200.9,39.5,201.6,38.3,202.5,37.1C202.4,37.1,202.4,37.1,202.5,37.1z"/>
	<path id="XMLID_103_" d="M289.8,63.1c0.3,0,0.6,0,0.8,0c0.8-0.1,1.4-0.6,1.4-1.4c0-6.3,0-12.6,0-18.9c0-0.1,0-0.2,0-0.3
		c-2.1,1.9-3.1,4.2-3.3,6.9c-0.6,0-1.3,0-1.9,0c-0.1-2.8-1.1-5.1-3.4-7c0,0.3,0,0.5,0,0.7c0,6.1,0,12.2,0,18.4
		c0,1.2,0.5,1.8,1.8,1.8c0.2,0,0.3,0,0.5,0c0,0.3,0,0.7,0,1c0,0.3,0,0.6,0,1c-2.2,0-4.3,0-6.5,0c0-0.6,0-1.2,0-1.9
		c0.2,0,0.4,0,0.7,0c0.9,0,1.5-0.6,1.5-1.5c0-6.1,0-12.2,0-18.4c0-0.9-0.6-1.5-1.5-1.5c-0.2,0-0.5,0-0.7,0c0-0.7,0-1.3,0-2
		c0.6,0,1.3,0.1,1.9,0c2.4-0.3,4,1,5.3,2.8c0.5,0.7,0.9,1.5,1.4,2.3c0.2-0.3,0.3-0.6,0.4-0.8c0.9-1.8,2.2-3.3,4.1-4.1
		c0.2-0.1,0.3-0.2,0.5-0.2c1.1,0,2.3,0,3.5,0c0,0.7,0,1.3,0,2c-0.2,0-0.4,0-0.6,0c-1,0-1.6,0.6-1.6,1.6c0,2,0,3.9,0,5.9
		c0,4,0,8,0,11.9c0,1.4,0.5,1.9,1.9,1.9c0.1,0,0.2,0,0.3,0c0,0.6,0,1.3,0,1.9c-2.1,0-4.3,0-6.4,0C289.8,64.4,289.8,63.8,289.8,63.1z
		"/>
	<path id="XMLID_100_" d="M129.3,52.3c0-6.8,5.7-12.6,12.4-12.7c7.1-0.1,12.8,5.7,13,12.4s-5.4,12.9-12.7,13
		C135,65.1,129.3,59.3,129.3,52.3z M142,41.7c-5.8,0-10.7,4.8-10.7,10.6c0,5.9,4.8,10.8,10.7,10.8c5.8,0,10.7-4.9,10.7-10.6
		C152.7,46.5,147.9,41.7,142,41.7z"/>
	<path id="XMLID_97_" d="M240.5,57c1.1,1.8,2.3,3.5,3.8,4.9c0.8,0.8,1.7,1.4,3,1.2c0,0.7,0,1.3,0,2c-2.4,0-4.7,0-7.1,0
		c0-0.7,0-1.3,0-1.9c1.2-0.5,1.4-0.9,0.8-2.1c-0.6-1.1-1.4-2.1-2.2-3.2c-0.1-0.1-0.3-0.1-0.4-0.1c-0.4,0-0.7,0.1-1.1,0.2
		c0,1.3,0,2.7,0,4c0,0.6,0.7,1.1,1.4,1.2c0.3,0,0.5,0,0.8,0c0,0.7,0,1.3,0,1.9c-2.2,0-4.3,0-6.5,0c0-0.6,0-1.2,0-1.9
		c0.2,0,0.5,0,0.7,0c0.8,0,1.4-0.6,1.5-1.4c0-0.6,0-1.1,0-1.7c0-5.4,0-10.9,0-16.3c0-1.5-0.4-1.9-1.9-2c-0.1,0-0.2,0-0.3,0
		c0-0.6,0-1.3,0-1.9c0.3,0,0.6,0,0.8,0c1.4,0,2.9-0.1,4.3,0.2c4.3,0.8,7.4,4.9,7.2,9.4c-0.2,3.2-1.7,5.7-4.4,7.4
		C240.8,56.8,240.6,56.9,240.5,57z M237.3,55.9c2.6-0.3,6-2.8,6.1-6.9c0.1-3.5-2.8-6.9-6.1-7.2C237.3,46.5,237.3,51.2,237.3,55.9z"
		/>
	<path id="XMLID_94_" d="M310.9,41.7c0-0.7,0-1.3,0-1.9c0,0,0-0.1,0.1-0.1c1.9,0,3.8-0.2,5.6,0.3c3.5,1,6.2,4,6.6,7.8
		s-1.1,6.7-4.3,8.8c-0.2,0.1-0.3,0.2-0.5,0.3c1.2,2,2.5,3.9,4.3,5.4c0.7,0.6,1.5,0.9,2.5,0.8c0,0.7,0,1.3,0,2c-2.4,0-4.7,0-7.1,0
		c0-0.6,0-1.3,0-1.9c0,0,0,0,0.1-0.1c1.1-0.4,1.3-0.9,0.8-1.9c-0.7-1.2-1.5-2.3-2.2-3.4c-0.1-0.1-0.3-0.1-0.4-0.1
		c-0.4,0-0.7,0.1-1.1,0.2c0,1.3,0,2.6,0,3.9c0,0.7,0.7,1.2,1.4,1.2c0.3,0,0.5,0,0.8,0c0,0.7,0,1.3,0,1.9c-2.1,0-4.3,0-6.5,0
		c0-0.6,0-1.2,0-1.9c0.1,0,0.3,0,0.4,0c1.3,0,1.8-0.5,1.8-1.8c0-3,0-5.9,0-8.9c0-3,0-5.9,0-8.9c0-1.4-0.4-1.8-1.8-1.9
		C311.2,41.7,311.1,41.7,310.9,41.7z M315.2,41.8c0,4.7,0,9.4,0,14.1c2.6-0.2,6-2.8,6.1-6.9C321.4,44.8,317.9,42.1,315.2,41.8z"/>
	<path id="XMLID_93_" d="M126.8,48.5c-1.5,0-3,0-4.5,0c0,4.9,0,9.7,0,14.6c1.6,0,3.2,0,4.8,0c0.7,0,1.3-0.7,1.3-1.4
		c0-0.2,0-0.5,0-0.8c0.7,0,1.3,0,2,0c0,1.4,0,2.8,0,4.2c-4.1,0-8.2,0-12.3,0c0-0.6,0-1.2,0-1.9c0.3,0,0.5,0,0.8,0
		c0.8,0,1.4-0.6,1.4-1.5c0-4.3,0-8.6,0-12.9c0-0.1,0-0.1,0-0.3c-0.8,0-1.5,0-2.3,0c0-0.7,0-1.3,0-2c0.8,0,1.5,0,2.3,0
		c0-1.2,0-2.4,0-3.6c0-0.7-0.6-1.2-1.3-1.2c-0.3,0-0.6,0-0.9,0c0-0.7,0-1.3,0-2c4.1,0,8.2,0,12.3,0c0,1.4,0,2.7,0,4.1
		c-0.6,0-1.3,0-2,0c0-0.3,0-0.5,0-0.8c0-0.8-0.5-1.4-1.3-1.4c-1.6,0-3.2,0-4.8,0c0,1.6,0,3.2,0,4.8c1.5,0,3,0,4.5,0
		C126.8,47.2,126.8,47.8,126.8,48.5z"/>
	<path id="XMLID_92_" d="M175.8,48.4c0,4.9,0,9.8,0,14.6c0.7,0,1.4,0,2,0c0.8,0,1.6,0,2.4,0c1.1,0,1.6-0.6,1.7-1.7
		c0-0.2,0-0.4,0-0.6c0.7,0,1.3,0,2,0c0,0.2,0,0.4,0,0.6c0,1.2,0,2.4,0,3.6c-4.1,0-8.2,0-12.3,0c0-0.6,0-1.3,0-1.9c0.3,0,0.5,0,0.8,0
		c0.8,0,1.4-0.6,1.4-1.4c0-4.3,0-8.6,0-13c0-0.1,0-0.1,0-0.3c-0.7,0-1.5,0-2.2,0c0-0.7,0-1.3,0-2c0.7,0,1.5,0,2.3,0
		c0-1.2,0-2.4,0-3.6c0-0.7-0.6-1.2-1.3-1.2c-0.3,0-0.6,0-0.9,0c0-0.7,0-1.3,0-1.9c4.1,0,8.2,0,12.3,0c0,1.4,0,2.7,0,4.1
		c-0.6,0-1.3,0-2,0c0-0.3,0-0.5,0-0.8c0-0.7-0.5-1.4-1.2-1.4c-1.6,0-3.2,0-4.9,0c0,1.6,0,3.2,0,4.8c1.5,0,3,0,4.5,0c0,0.7,0,1.3,0,2
		C178.9,48.4,177.4,48.4,175.8,48.4z"/>
	<path id="XMLID_91_" d="M309.8,65c-4.1,0-8.2,0-12.3,0c0-0.6,0-1.3,0-1.9c0.3,0,0.5,0,0.8,0c0.8,0,1.4-0.6,1.4-1.5
		c0-4.3,0-8.6,0-13c0,0,0-0.1,0-0.2c-0.7,0-1.5,0-2.2,0c0-0.7,0-1.3,0-2c0.7,0,1.5,0,2.2,0c0-1.2,0-2.4,0-3.6c0-0.7-0.6-1.1-1.3-1.2
		c-0.3,0-0.6,0-0.9,0c0-0.7,0-1.3,0-1.9c4.1,0,8.2,0,12.3,0c0,1.4,0,2.7,0,4.1c-0.6,0-1.2,0-1.9,0c0-0.3,0-0.6-0.1-0.9
		c-0.1-0.7-0.6-1.3-1.3-1.3c-1.6,0-3.1,0-4.7,0c0,1.6,0,3.2,0,4.8c1.5,0,3,0,4.5,0c0,0.7,0,1.3,0,2c-1.5,0-3,0-4.5,0
		c0,4.9,0,9.7,0,14.6c0.1,0,0.3,0,0.5,0c1.3,0,2.6,0,3.9,0c1.1,0,1.7-0.6,1.7-1.7c0-0.1,0-0.3,0-0.5c0.7,0,1.3,0,1.9,0
		C309.8,62.2,309.8,63.6,309.8,65z"/>
	<path id="XMLID_90_" d="M252.7,63.1c1.6,0,3.2,0,4.7,0c0.7,0,1.3-0.7,1.4-1.4c0-0.2,0-0.5,0-0.8c0.7,0,1.3,0,2,0c0,1.4,0,2.8,0,4.2
		c-4.1,0-8.2,0-12.3,0c0-0.6,0-1.3,0-1.9c0.3,0,0.5,0,0.8,0c0.8,0,1.4-0.6,1.4-1.5c0-4.3,0-8.6,0-12.9c0-0.1,0-0.2,0-0.3
		c-0.8,0-1.5,0-2.3,0c0-0.7,0-1.3,0-2c0.7,0,1.5,0,2.3,0c0-1.2,0-2.4,0-3.6c0-0.7-0.6-1.2-1.4-1.2c-0.3,0-0.5,0-0.8,0
		c0-0.7,0-1.3,0-1.9c4.1,0,8.2,0,12.3,0c0,1.4,0,2.7,0,4.1c-0.6,0-1.3,0-2,0c0-0.3,0-0.5,0-0.8c0-0.7-0.5-1.4-1.2-1.4
		c-1.6,0-3.2,0-4.9,0c0,1.6,0,3.1,0,4.8c1.5,0,3,0,4.5,0c0,0.7,0,1.3,0,2c-1.5,0-3,0-4.5,0C252.7,53.3,252.7,58.2,252.7,63.1z"/>
	<path id="XMLID_89_" d="M192.3,39.9c0.7-0.5,1.5-0.2,2.2-0.3c0,1.5,0,2.9,0,4.3c-0.6,0-1.2,0-1.9,0c0-0.2,0-0.3,0-0.5
		c0.1-1.4-1-1.9-2.2-1.7c-1.6,0.4-2.4,2.1-1.6,3.6c0.4,0.7,0.9,1.3,1.5,1.7c1.2,0.9,2.5,1.7,3.8,2.6c1.6,1.1,3.1,2.4,4,4.2
		c2.3,4.5-0.6,10.2-5.6,11.1c-1.7,0.3-3.4,0.1-5-0.7c-0.1-0.1-0.2-0.1-0.4-0.2c0,0.4,0,0.7-0.1,1c-0.6,0-1.3,0-1.9,0
		c0-1.9,0-3.7,0-5.6c0.6,0,1.2,0,1.9,0c0,0.4,0,0.7,0,1.1c-0.1,0.9,0.4,1.6,1.2,1.9c3.2,1.5,6.5,0.3,8-2.5c1.2-2.2,0.9-4.6-0.8-6.5
		c-0.9-1-2-1.8-3.1-2.6c-1.4-1-3-1.9-4.2-3.2s-1.9-2.8-1.5-4.6C187.1,41.1,189.4,39,192.3,39.9z"/>
</g>
<g id="XMLID_1_">
	<path id="XMLID_53_" d="M57.4,78c-3.9,5.6-11.7,7.7-18,4.8c-3.2-1.5-4.7-4.1-5.6-7.3c-0.4-1.3-0.9-2.1-2.1-2.8
		c-4.1-2.5-5.5-7.3-3.5-12.7c1.5-3.7,3.3-7.3,4.7-11.2c0.7-2,0.7-3.3-1.3-4.4c-1.1,2.1-2.1,4.3-3.3,6.4c-1.3,2.3-2.9,4.3-5.1,5.9
		c-3.3,2.5-8.1,2.4-10.7-0.3c-2.7-2.8-2.7-8.5,0-11.5c1.5-1.7,4.1-2,5.7-0.7c1.6,1.3,2.1,4.1,1.1,5.9c-0.9,1.3-2.1,1.7-3.6,1.6
		c-0.7-0.1-1.2-0.4-1.2-1.1s0.4-1.1,1.2-1.1c1.2,0,2.1-0.1,2.1-1.6c0-1.1-0.4-2.1-1.6-2.4c-1.3-0.3-2,0.5-2.7,1.6
		c-1.6,2.9-1.2,6.3,0.9,7.9c2.4,2,5.5,1.7,8.1-0.8c3.5-3.2,5.6-7.2,7.1-11.6c0.8-2.1,1.3-2.1,3.1-0.7c2.9,2.4,3.6,5.1,1.9,8.5
		c-1.3,2.8-2.4,5.7-3.6,8.5c-0.3,0.8-0.7,1.5-0.9,2.3c-0.9,3.1-1.1,6.3,1.5,8.7c2.8,2.7,6.3,2.7,9.7,1.7c1.7-0.4,2.4-1.9,2.9-3.3
		c0.7-2,0.5-4.1,0.5-6.1c0-0.4-0.1-0.8-0.3-1.1c-2-1.9-2.8-4.5-4.5-6.5c-1.6-1.7-1.6-3.5-1.2-5.5c1.1-6,2.1-11.9,3.2-17.9
		c0.1-0.7,0.5-1.3,0-1.9c-0.7-0.5-1.2,0.4-1.6,0.7c-2.8,1.7-6.4,0.9-8.3-2c-0.8-1.3-1.7-1.7-3.2-1.9c-3.7-0.4-7.5-0.5-11.2,0
		c-5.9,0.9-8.4,6.9-5.1,11.9c0.4,0.7,1.1,1.2,0.3,1.9c-0.9,0.8-1.5,0-2-0.7c-1.7-2.1-2-4.7-1.6-7.3c0.3-1.6,0.4-2.5-2-2.1
		c-2.5,0.5-4.5-0.7-6-2.9c-0.4-0.5-0.4-1.1,0.1-1.6C2,25,2.5,25.1,2.8,25.5c2.5,3.7,5.9,2.4,8.7,0.9c3.9-2.1,7.9-2.7,12.1-2.5
		c6.5,0.3,12.9,0.9,19.1,3.3c1.7,0.7,1.9,1.5,1.6,2.9c-1.1,6.1-2.3,12.3-3.3,18.5c-0.5,2.8-0.5,2.9,2.3,2.9c2.1,0,4.3-0.1,6.4,0
		c1.3,0,1.7-0.4,1.5-1.9c-1.2-6.5-2.3-13.2-3.6-19.9c-0.3-1.3-0.1-2,1.2-2.5c8.5-3.3,17.5-4.3,26.5-3.2c2.8,0.4,5.1,2.4,7.7,3.1
		c2.3,0.7,4.4,0.8,5.9-1.6c0.7-1.1,1.5-0.8,2.3-0.3c0,0.3,0,0.5,0,0.9c-1.9,2.7-4.1,4.1-7.5,3.2c-1.1-0.3-1.1,0.3-0.9,1.1
		c0.3,1.9,0.4,3.6,0,5.5c-0.3,1.2-0.7,2.3-1.5,3.2c-0.5,0.7-1.2,1.3-2,0.5c-0.8-0.7-0.1-1.3,0.4-1.9c3.2-4.4,1.1-10.4-4.3-11.6
		c-4.4-1.1-8.9-0.5-13.5-0.1c-0.9,0.1-1.2,0.7-1.6,1.3c-2.1,3.3-5.6,4.1-8.9,2c-0.4-0.3-0.8-0.8-1.3-0.4c-0.7,0.4-0.3,1.1-0.1,1.6
		c1.1,6.5,2.3,13.1,3.5,19.6c0.3,1.5,0,2.5-1.1,3.7c-1.9,2.1-2.9,4.8-4.7,6.9c-1.3,1.7,0,8.4,1.9,9.7c2.7,2,5.7,1.6,8.7,0.7
		c2.7-0.9,4.1-2.9,4.4-5.9c0.3-2.3-0.3-4.4-1.3-6.4c-1.7-3.6-3.3-7.3-4.5-11.2c-0.5-1.7-0.5-3.1,0.9-4.3c0.5-0.4,0.9-1.1,1.5-1.6
		c1.6-1.6,2.3-1.5,2.9,0.7c1.6,4.5,3.9,8.7,7.5,11.9c2.7,2.3,5.7,2.4,8,0.4c2.1-1.9,2.4-5.6,0.5-8.1c-0.5-0.8-1.3-1.5-2.4-1.2
		c-0.9,0.1-1.3,0.8-1.6,1.7c-0.3,1.3,0,2.3,1.6,2.3c0.8,0,1.6,0,1.6,1.1c0,1.1-0.9,1.2-1.7,1.2c-1.7,0-2.9-0.8-3.5-2.5
		c-0.5-2,0.3-4.4,2-5.2c1.9-0.9,3.6-0.8,5.1,0.8c2,2.3,2.7,4.9,2,7.9c-1.1,5.3-7.2,7.7-11.9,4.7c-4-2.7-6.3-6.7-8.3-10.9
		c-0.3-0.5-0.1-2-1.3-1.5c-0.8,0.4-1.6,1.1-1.2,2.5c1.2,3.6,2.7,7.2,4.3,10.7c1.1,2.3,1.7,4.7,1.7,7.2c0,2.9-1.1,5.6-3.5,6.9
		C58.6,73.3,58.1,75.7,57.4,78L57.4,78z M56.2,74.3c-2.1-0.1-4.3,0.1-6.3-0.7c-1.6-0.7-2.7-2.9-3.7-3.1c-1.3,0-2.1,2.4-4,3.1
		c-1.7,0.7-3.5,0.5-5.2,0.5c-0.8,0-1.3,0-1.1,1.1c0.9,2.8,2.4,5.2,5.5,6.1c2,0.5,4,0.4,5.9,0.4C52.6,81.5,54.9,79.6,56.2,74.3z
		 M49.8,53.8c-2.5,0-4.9,0-7.5,0c0.7,1.7,1.6,3.2,2.5,4.5c0.8,1.1,1.5,1.1,2.3,0C48.2,56.9,49.1,55.6,49.8,53.8z M58.3,26.7
		c-1.7,0.5-3.3,0.5-4.9,1.6C55.5,28.8,57,28.7,58.3,26.7z M34.1,27.2c1.6,1.5,2.9,2.1,4.9,0.9C37.4,27.8,36.1,27.1,34.1,27.2z"/>
	<path id="XMLID_52_" d="M46.1,22.2c-5.2-0.3-10.5-0.1-15.6-1.6c-4-1.2-7.1-3.5-8.4-7.7c-0.9-3.1,0.3-6,3.1-7.9
		c3.3-2.1,6.8-2.1,9.2,0c1.3,1.2,2.1,2.8,1.7,4.7c-0.5,2.1-1.6,3.7-3.7,4.5c-0.7,0.3-1.3,0.3-2,0c-0.5-0.1-1.1-0.5-1.1-1.2
		c0.1-0.7,0.5-0.7,1.1-0.8c2.5-0.4,4-2.1,3.6-4c-0.5-1.9-3.1-3.1-5.2-2.5c-5.1,1.3-6.4,5.7-3.1,9.7c1.6,2,3.9,2.9,6.3,3.5
		c9.2,1.7,18.5,1.7,27.7,0c3.3-0.7,6.1-2.1,7.7-5.3c0.9-1.9,1.1-3.7-0.3-5.3c-1.6-1.9-3.6-2.9-6-2.5c-1.7,0.3-3.1,1.2-3.1,3.2
		c0,1.9,1.3,3.1,3.3,3.3c0.7,0.1,1.2,0,1.3,0.8c0,0.9-0.7,1.2-1.5,1.3c-1.7,0.1-3.1-0.5-4-1.9c-1.2-1.7-1.9-3.5-0.9-5.6
		c0.5-1.3,1.6-2.3,2.9-2.9c2.8-1.3,6.4-0.4,8.9,2c2.1,2.1,2.7,4.9,1.5,8c-1.5,3.6-4.4,5.6-8,6.7C56.5,22,51.3,21.9,46.1,22.2z"/>
	<path id="XMLID_51_" d="M43.9,102c0.1-2.1-0.7-4.3-2-6c-2.5-3.3-5.1-6.5-7.6-9.7c-1.6-2.1-2.7-4.4-2.4-7.2c0.1-0.9,0.1-2,1.3-1.7
		c1.2,0.1,0.8,1.2,0.7,2c-0.3,2.3,0.9,4,2.1,5.6c2.3,3.1,4.7,5.9,6.9,8.8c2.5,3.3,3.7,7.2,2.7,11.5c-0.8,2.9-2.8,4.8-5.7,4.8
		c-2.9,0.1-5.2-1.6-6-4.5c-0.5-2-0.7-4.1,0.3-6c0.9-2,3.5-2.4,4.9-0.8c0.5,0.5,0.7,1.1,0.3,1.6c-0.4,0.4-0.9,0.5-1.3,0.1
		c-1.9-1.3-2.1,0.3-2.3,1.5c-0.3,1.5,0,2.8,0.8,4c0.8,1.3,1.9,2,3.5,2c1.5,0,2.7-0.7,3.5-2C43.8,104.7,44.1,103.5,43.9,102z"/>
	<path id="XMLID_50_" d="M57.4,78.1c0.5-0.4,0.9-1.3,1.7-1.1c0.9,0.3,0.9,1.3,1.1,2c0.3,2.5-0.8,4.7-2.1,6.7c-2.1,3.1-4.3,6-6.5,8.9
		c-2.1,2.9-3.3,6.1-2.4,9.7c0.4,1.7,1.3,3.1,3.3,3.3c1.7,0.3,3.2-0.3,4.1-2c0.9-1.9,1.1-3.7,0.1-5.5c-0.5-0.9-1.2-0.4-1.9,0
		c-0.5,0.4-1.2,0.4-1.5-0.3c-0.4-0.5,0-1.1,0.4-1.6c1.3-1.3,3.5-1.3,4.5,0.1c1.7,2.5,1.6,5.3,0.4,8c-1.1,2.4-2.9,3.3-5.5,3.3
		c-2.8,0-4.8-1.3-5.6-4.1c-1.1-3.5-0.9-6.8,0.9-10c1.7-3.1,4-5.9,6.1-8.7c1.3-1.9,2.7-3.7,3.3-6C58.2,80.1,58.6,78.9,57.4,78.1
		C57.4,78,57.4,78.1,57.4,78.1z"/>
	<path id="XMLID_49_" d="M26.1,81.1c-1.1-0.1-2-0.7-2.8-1.6c-0.9-1.3-1.5-2.7-0.7-4.1c0.8-1.5,2.1-1.7,3.6-1.6
		c1.7,0.3,2.8,1.2,3.3,2.8c0.8,2.7-0.9,5.7-3.7,6.7c-4,1.3-8.4-0.8-9.7-4.9c-0.7-2-0.7-4.1-0.3-6.1c1.2-4.7,3.3-8.8,6.5-12.4
		c0.5-0.5,1.2-1.6,2.1-0.8c0.9,0.9,0,1.6-0.5,2.1c-2.8,2.9-4.5,6.5-5.7,10.3c-0.3,0.7-0.4,1.5-0.4,2.1
		C17.3,79.6,20.3,82.4,26.1,81.1c0.8-1.2,2-2.3,1.3-4c-0.3-0.8-0.8-1.2-1.6-1.2c-0.4,0-0.9,0-1.2,0.4c-0.4,0.7,0,1.3,0.4,1.7
		C25.9,78.9,26.1,80,26.1,81.1z"/>
	<path id="XMLID_48_" d="M66.9,80.7c1.7,1.5,4.9,0.8,6.3-1.3c1.6-2.5,1.6-5.3,0.7-8.1c-1.3-3.7-3.1-7.3-5.9-10.3
		c-0.5-0.5-1.2-1.1-0.5-1.9c0.7-0.8,1.5-0.3,1.9,0.3c4.3,4.9,7.7,10.3,7.1,17.2c-0.5,4.9-4.5,7.9-9.5,6.8c-3.1-0.7-5.1-4-4.3-6.9
		c0.5-1.9,2.3-3.1,4.3-2.8c1.6,0.1,2.8,1.1,3.1,2.7C70.2,78.1,68.7,80.1,66.9,80.7c-1.6-0.7-0.5-1.5-0.1-2.1
		c0.4-0.7,1.2-1.2,0.7-2.1c-0.4-0.7-1.2-0.5-1.9-0.4c-0.9,0.4-1.2,1.2-1.1,2.1C64.9,79.5,65.3,80.7,66.9,80.7z"/>
	<path id="XMLID_47_" d="M45,6.8c0,1.2-0.5,2.7-1.1,4.3c-0.4,1.6-0.5,3.2,1.1,4.4c0.8,0.5,1.6,0.5,2.3,0c1.5-1.2,1.3-2.8,0.9-4.4
		c-0.5-1.7-1.1-3.3-1.1-5.2c0-1.3,0.4-2.5,1.2-3.5c1.3-1.6,3.7-1.7,5.2-0.5c1.3,1.2,1.3,3.6,0.1,5.1c-0.4,0.5-0.9,0.7-1.6,0.4
		c-0.5-0.3-0.5-0.8-0.4-1.3c0.1-0.3,0.3-0.5,0.4-0.8c0.4-0.8,0.5-1.6-0.4-2s-1.6,0-2,0.8c-0.7,1.3-0.5,2.7-0.1,4.1
		c0.4,1.3,0.8,2.7,1.1,4c0.3,2.9-1.7,5.6-4.3,5.7c-2.7,0.1-4.5-2.1-4.7-5.3c0-2,0.9-3.7,1.2-5.6C43,5.8,43,4.7,42.3,3.8
		c-0.5-0.5-1.2-0.9-2-0.5c-0.8,0.4-0.7,1.1-0.4,1.7c0.1,0.3,0.3,0.5,0.4,0.8c0.1,0.5,0.4,1.2-0.4,1.5c-0.7,0.4-1.2,0-1.6-0.7
		c-1.1-1.7-0.8-4.1,0.8-5.1c1.7-1.1,4-0.4,5.2,1.5C45,3.9,45,5.1,45,6.8z"/>
	<path id="XMLID_46_" d="M10.2,18.8c-0.8-1.5-1.3-2.8,0.1-3.6c1.2-0.7,2.3-0.1,2.8,0.9c0.9,1.6,0.7,3.1-0.8,4.1
		c-1.3,0.9-2.9,1.2-4.4,0.4c-1.5-0.9-2-2.4-2-4.1c0-1.9,0.8-3.2,2.4-3.9c2.4-1.1,4.8-0.5,6.9,0.7c2,1.1,3.2,3.1,4.8,4.5
		c0.4,0.4,0.5,0.9,0,1.3c-0.5,0.5-1.1,0.5-1.6,0c-0.9-0.9-1.7-1.7-2.7-2.7c-1.6-1.7-3.5-2.7-5.9-2.3c-1.1,0.3-1.9,0.9-1.9,2.3
		C8.1,17.9,8.3,18.3,10.2,18.8z"/>
	<path id="XMLID_45_" d="M82.6,18.6c1.2,0,1.7-0.9,1.7-2c0.1-1.1-0.3-1.9-1.3-2.3c-2.1-0.7-4.1-0.1-5.7,1.5
		c-1.2,1.1-2.1,2.3-3.3,3.3c-0.4,0.4-1.1,0.7-1.6,0.1c-0.5-0.4-0.4-0.8-0.1-1.3c1.9-3.5,6.7-6.3,10.3-5.9c3.3,0.4,4.9,3.2,3.6,6.3
		c-1.1,2.4-4.3,3.2-6.3,1.6c-1.2-1.1-1.6-2.3-0.8-3.7c0.5-1.2,1.6-1.6,2.8-1.2c1.2,0.4,1.3,1.5,1.1,2.5C82.6,17.8,82.2,18,82.6,18.6
		z"/>
	<path id="XMLID_44_" d="M23,85.7c3.5,0,5.6,2.3,5.5,5.2c-0.1,2.5-1.3,4.4-2.9,6.3c-0.5,0.5-1.2,0.8-1.7,0.3
		c-0.7-0.5-0.3-1.2,0.1-1.7c0.7-0.9,1.5-1.9,2-2.9c0.7-1.3,0.9-2.9-0.4-4.1c-1.3-1.3-2.8-0.9-4.3-0.3c-0.5,0.3-1.1,0.7-1.6,1.1
		c-0.5,0.5-1.2,0.7-1.7,0c-0.5-0.7-0.1-1.2,0.4-1.7C19.8,86.5,21.4,85.9,23,85.7z"/>
	<path id="XMLID_43_" d="M69,85.7c1.9,0.1,3.6,0.9,5.1,2.4c0.5,0.4,0.7,1.1,0.1,1.6c-0.5,0.5-1.1,0.5-1.6,0
		c-0.8-0.7-1.7-1.3-2.8-1.6c-1.2-0.3-2.4-0.3-3.3,0.7c-0.9,0.9-1.1,2-0.7,3.3c0.4,1.5,1.3,2.7,2.3,3.7c0.5,0.5,0.8,1.1,0.1,1.7
		c-0.4,0.3-0.9,0.3-1.5-0.3c-1.7-2-3.2-4.1-3.1-6.8C63.8,87.6,65.9,85.7,69,85.7z"/>
</g>
</svg>
