<?xml version="1.0" encoding="utf-8"?>
<!-- Generator: Adobe Illustrator 21.1.0, SVG Export Plug-In . SVG Version: 6.00 Build 0)  -->
<svg version="1.1" id="Layer_1" xmlns="http://www.w3.org/2000/svg" xmlns:xlink="http://www.w3.org/1999/xlink" x="0px" y="0px"
	 viewBox="0 0 51 52" style="enable-background:new 0 0 51 52;" xml:space="preserve">
<style type="text/css">
	.st0{fill:#65D8CC;}
</style>
<g>
	<path class="st0" d="M14.5,50.4c-0.2,0-0.5-0.1-0.7-0.1c-1.8-0.4-3.2-1.9-4.3-3.4C7.1,43.2,6.3,38.7,6,34.3c-0.4-7,0.6-14.2,4-20.3
		S19.7,3.1,26.7,2.6c0.4,0,0.9,0,1.2,0.3c0.5,0.6-0.4,1.5-1.1,1.8c-4.7,2.3-8.9,5.8-11.7,10.2s-4.1,9.8-3.3,15
		c3.3-2.4,8.3-1.4,11.1,1.6c2.7,2.9,3.6,7.4,2.6,11.2c-0.9,3.6-4.7,6.4-8.2,7.4C16.4,50.4,15.4,50.5,14.5,50.4z"/>
	<path class="st0" d="M40.1,49.1c-2.2-0.2-4.3-1.3-5.7-3c-1.8-2-2.8-4.7-3.4-7.4c-1.6-6.9-0.9-14.1,0.6-20.9
		c0.8-3.6,1.9-7.3,4.1-10.3c2.2-3,5.7-5.2,9.4-5.1c0.5,0,1,0.1,1.4,0.4s0.5,0.9,0.2,1.3c-0.2,0.2-0.5,0.3-0.8,0.4
		C43.5,5,41.8,7,40.6,9c-3.4,5.3-5.2,11.6-5.2,17.9c3.6-1.1,7.7-0.2,10.5,2.2c4.9,4.3,4.5,11.2,1,16.2c-1.2,1.8-3.1,3.3-5.3,3.7
		C41.1,49.1,40.6,49.1,40.1,49.1z"/>
	<path class="st0" d="M2.9,22.9c0.7,0,1.1,0.2,0.9,1.1c-0.1,0.5-0.1,1.1-0.3,1.6c-0.5,0.9-2,1.3-2.8,0.4c-0.6-0.6-0.7-1.1-0.3-1.8
		c0.1-0.3,0.3-0.5,0.4-0.8C1.2,23,1.7,23.1,2.1,23C2.4,22.9,2.7,22.9,2.9,22.9z"/>
	<path class="st0" d="M13.8,2.8c0.2,0,0.4,0.1,0.6,0.2c1.2,0.4,1,1.2,0.6,2.3c-0.2,0.7-1.1,1.1-1.8,0.9C12.7,6,12.3,5.5,12,5
		c-0.2-0.2-0.3-0.5-0.4-0.8c-0.1-0.6,0.4-1.2,1-1.4C12.9,2.7,13.4,2.8,13.8,2.8z"/>
	<path class="st0" d="M1.1,18.6c0.1-1,0.7-1.6,1.6-1.5C3.5,17.2,4.4,18,4.3,19c-0.1,1.1-1,1.6-1.7,1.6C1.5,20.4,1,19.7,1.1,18.6z"/>
	<path class="st0" d="M8.8,10.1c-0.6,0-1.2-0.7-1.4-1.3c-0.1-0.6,0-1.2,0.4-1.6c0.2-0.3,0.6-0.5,1-0.5S9.6,6.8,10,7s0.5,0.5,0.5,1
		c0,0.8-0.3,1.5-1,1.9C9.3,10,9,10,8.8,10.1z"/>
	<path class="st0" d="M5,14.7c-1-0.1-1.7-1.1-1.4-2.1c0.1-0.2,0.2-0.3,0.3-0.4c0.5-0.3,1-0.8,1.7-0.6C6.8,12,7.1,13,6.2,14.1
		C5.9,14.6,5.5,14.7,5,14.7z"/>
	<path class="st0" d="M27.5,19.2L27.5,19.2c-0.8-0.2-1.6-0.7-1.5-1.5c0.1-0.4,0.3-0.7,0.5-1s0.5-0.6,0.8-0.6c0.4-0.1,0.8,0.2,1,0.5
		c0.3,0.3,0.6,0.7,0.6,1.2c0.1,0.4-0.1,0.9-0.4,1.2C28.3,19.2,27.9,19.3,27.5,19.2z"/>
	<path class="st0" d="M17.7,1.1c0.3,0.1,0.5,0.2,0.7,0.4C18.9,2,19,2.8,18.6,3.4c-0.8,1.3-2.2,0.4-2.7-0.5c-0.1-0.2-0.2-0.4-0.2-0.6
		c-0.1-0.6,0.4-1.1,1-1.3C16.9,1,17.3,1,17.7,1.1z"/>
	<path class="st0" d="M24.8,22.9c0.2-0.8,0.8-1.2,1.6-0.8c0.1,0.1,0.2,0.1,0.3,0.1c0.9,0.4,1.3,1.7,0.7,2.5
		c-0.2,0.3-0.5,0.4-0.9,0.3c-0.5-0.1-1-0.2-1.2-0.7C25,23.9,25,23.4,24.8,22.9z"/>
	<path class="st0" d="M37.4,1.3c0.1-0.9,0.8-1.1,1.6-0.9c0.6,0.2,1.1,0.4,1.3,1s0,1.3-0.5,1.6C39,3.5,38.6,3.3,38,2.8
		C37.6,2.5,37.3,2.1,37.4,1.3z"/>
	<path class="st0" d="M28.1,13c0-0.4,0.5-0.9,1-0.9c1.2,0,2,1,1.8,2.2c-0.2,0.8-0.8,1-1.5,0.8C28.4,14.6,28,13.9,28.1,13z"/>
	<path class="st0" d="M33,8.6c0,0.5-0.4,0.9-0.9,0.9c-0.2,0-0.4,0-0.6,0C30.7,9.6,30,8.9,30.2,8c0.1-0.2,0.1-0.5,0.2-0.7
		c0.2-0.5,0.4-0.6,0.9-0.6C32.3,6.9,33.1,7.5,33,8.6z"/>
	<path class="st0" d="M34.6,3.2c1.1,0,1.6,0.4,1.6,1.3c0,0.5-0.4,1.1-0.9,1.2c-0.4,0.1-0.9,0.1-1.2-0.2c-0.4-0.3-0.7-0.7-1-1.1
		C33,4,33.5,3.2,33.9,3.2C34.2,3.2,34.5,3.2,34.6,3.2z"/>
</g>
</svg>
