<?xml version="1.0" encoding="utf-8"?>
<!-- Generator: Adobe Illustrator 21.1.0, SVG Export Plug-In . SVG Version: 6.00 Build 0)  -->
<svg version="1.1" id="Layer_1" xmlns="http://www.w3.org/2000/svg" xmlns:xlink="http://www.w3.org/1999/xlink" x="0px" y="0px"
	 viewBox="0 0 1800 58" style="enable-background:new 0 0 1800 58;" xml:space="preserve">
<style type="text/css">
	.st0{fill:#EFEFEF;}
</style>
<g>
	<g>
		<path class="st0" d="M1763.2,29.5L1763.2,29.5c0.4,0,0.7,0.1,1,0.3c0.5,0.2,1,0.4,1.5,0.6c0.3,0.1,0.7,0.3,0.9,0.5
			c0.4,0.3,0.6,0.8,0.7,1.3c0.3,0.9,0.5,1.9,0.2,2.8c-0.4,1.2-1.5,1.9-2.5,2.6c-3.3,2.2-6.2,4.9-9.1,7.6c-2.9,2.6-5.7,5.2-8.2,8.2
			c-0.4,0.5-0.9,1.1-1.5,1.3c-0.4,0.1-0.8,0.1-1.2,0c-1.5-0.3-2.9-1-4.1-2c-0.5-0.4-1.3-1.1-1.4-1.8c-0.1-0.8,0.6-1.5,1.1-2
			c4.3-4,9-7.5,13.1-11.6c2.7-2.6,5.1-5.6,8.5-7.4C1762.5,29.6,1762.8,29.5,1763.2,29.5z"/>
		<path class="st0" d="M1585.1,5.7c2-0.4,3,1.1,4.3,2.1c2.3,1.9,4.6,3.9,7,5.8c1,0.8,2,1.5,3,2.2c2,1.3,4,2.7,6.1,3.9
			c1.7,1,3.5,1.9,5.3,2.8c1.5,0.8,2.5,3,2.2,4.7c-0.2,0.9-2.3,1.7-3.3,1.3c-0.4-0.2-0.8-0.3-1.2-0.4c-1.7-0.1-2.9-1.1-4.1-2.1
			c-1-0.8-2-1.6-3.1-2.3c-2.5-1.6-5-3.2-7.5-4.8c-1.9-1.2-3.8-2.4-5.5-3.8c-2-1.7-4.5-2.9-6-5.1c-0.7-1.1-0.6-2.2,0.3-3.2
			C1583.1,6.1,1583.8,5.3,1585.1,5.7z"/>
		<path class="st0" d="M1502.8,37.5c-0.1,1.6-0.8,2.5-2.2,3.3c-1.5,0.9-2.8,2.3-4.2,3.5c-0.7,0.5-1.4,1-2.1,1.5
			c-1.2,0.9-2.3,1.9-3.6,2.7c-2.1,1.3-3.6,3.3-5.4,5c-0.2,0.2-0.4,0.4-0.7,0.4c-1.9,0.4-3.7-0.5-5.3-1.2c-1.3-0.6-1.4-1.2-1-2.7
			c0.4-1.4,1.1-2.5,2.5-3.2c1.1-0.5,2-1.3,3-2.1c2.3-1.7,4.6-3.4,6.8-5.2c1.4-1.2,2.8-2.4,4.2-3.6c0.1-0.1,0.2-0.2,0.3-0.3
			c0.4-1.4,1.6-1.9,2.8-2.1c1.7-0.2,3.1,0.5,4.2,1.7C1502.7,35.6,1502.6,36.6,1502.8,37.5z"/>
		<path class="st0" d="M1728.3,20.9c0.2,0.1,0.5,0.2,0.7,0.4c1.1,0.6,2.2,1.3,3.3,1.9c1,0.5,1.6,1.4,2.2,2.3c0.7,1,1.4,2.2,1.4,3.4
			c0,1.2-1,2.6-2.3,2.5c-0.5,0-0.9-0.3-1.3-0.5c-0.9-0.5-1.8-1-2.8-1.5c-0.4-0.2-0.7-0.4-1-0.6c-0.3-0.3-0.6-0.6-0.9-0.9
			c-0.7-0.6-1.6-1-2.5-1.4c-2.8-1.4-5.2-3.6-7.4-5.8c-1.8-1.8-3.6-3.5-5.3-5.4c-0.7-0.8-1.4-1.4-1.3-2.5c0-1,0.6-2,1.5-2.5
			c1.1-0.6,2.6-0.6,3.8,0s2.2,1.5,3,2.5s1.6,2.1,2.4,3.1c1.3,1.6,2.8,3.1,4.5,4.2C1727,20.3,1727.7,20.6,1728.3,20.9z"/>
		<path class="st0" d="M1624,53.9c-1.5-0.2-3-0.3-4.3-1.4c-1.5-1.2-1.5-1.2-0.6-3c0.9-1.7,2.4-2.5,3.8-3.5s2.8-2,4.1-3.1
			c1.7-1.4,3.3-2.8,5-4.3c0.8-0.7,1.5-1.6,2.2-2.3c0.8-0.7,1.6-1.4,2.4-2.1c0.7-0.6,2.2-0.3,3.1,0.1c1.8,0.8,1.9,2.4,2,3.9
			c0,0.7-0.6,1.5-1.1,2c-1.7,1.6-3.5,3.1-5.3,4.6c-1.6,1.3-3.1,2.7-4.7,4c-1.3,1-2.6,2-3.9,3.1c-0.1,0.1-0.3,0.3-0.3,0.4
			C1626.1,53.8,1625,53.8,1624,53.9z"/>
		<path class="st0" d="M1301.7,60.3c-1.2-0.5-2.4-0.9-3.6-1.5c-0.4-0.2-0.7-0.8-0.8-1.3c-0.2-1.4,1.1-3,2.2-3.8
			c1.6-1.2,3-2.8,4.4-4.3c0.5-0.5,1-1,1.5-1.6c0.9-1.1,1.9-2.2,2.7-3.4c1.3-1.8,2.4-3.7,3.7-5.6c0.7-1,1.7-1.3,2.9-1.1
			c1.3,0.2,2.2,0.7,2.8,2.1c0.8,2,0.4,3.5-0.9,5.1s-2.5,3.4-3.8,5.1c-1.2,1.6-2.5,3.2-3.9,4.6c-1.2,1.3-2.6,2.4-3.7,3.8
			C1304.2,59.5,1303.2,60.1,1301.7,60.3z"/>
		<path class="st0" d="M1266.4,14.1c1.3,0.5,2.8,0.8,4,1.6c1,0.6,1.5,1.8,2.3,2.7c1.1,1.2,2.1,2.4,3.3,3.5c1,1,2.2,2,3.2,3
			c1.5,1.5,3.2,2.9,5.1,4c0.5,0.3,1,0.7,1.3,1.2c0.6,1,1.3,2,1.7,3.1c0.2,0.6-0.1,1.6-0.5,2.2c-0.2,0.3-1.1,0.4-1.6,0.3
			c-1-0.1-2.1-0.4-3.1-0.5c-1.7-0.2-2.7-1.5-3.9-2.5c-1.3-1-2.5-2.2-3.6-3.3c-1.9-1.9-3.7-3.9-5.7-5.8c-1.3-1.3-2.7-2.5-4.2-3.6
			c-0.9-0.7-1.2-1.3-1.2-2.5c0-1.5,0.7-2.2,1.7-2.9C1265.4,14.5,1265.8,14.4,1266.4,14.1z"/>
		<path class="st0" d="M1166.8,49.1c0-0.1,0-0.2,0-0.4c0.2-0.9,0.8-1.7,1.5-2.3s1.5-1.1,2.3-1.6c3.4-2.3,6.2-5.4,8.9-8.5
			c0.8-0.9,1.6-1.8,2.3-2.9c0.3-0.5,0.6-1,1-1.3c0.7-0.6,1.7-0.6,2.7-0.6c0.2,0,0.4,0,0.7,0.1c0.2,0.1,0.4,0.3,0.6,0.5
			c0.6,0.6,1.2,1.3,1.6,2.1c0.4,0.6,0.7,1.3,0.6,2c-0.1,0.5-0.4,0.9-0.7,1.3c-3.7,5.1-9.1,8.5-13.2,13.3c-0.4,0.4-0.7,0.9-1.2,1
			c-0.3,0.1-0.5,0.1-0.8,0.1c-1,0-1.9,0-2.9,0C1168.5,51.9,1166.7,51,1166.8,49.1z"/>
		<path class="st0" d="M1701.3,35.9c0.1,1.2-0.5,1.9-1.2,2.4c-1.2,1.1-2.5,2-3.7,3.1c-1.6,1.6-3,3.3-4.5,4.9
			c-1.6,1.7-3.2,3.5-4.9,5.1c-0.7,0.7-1.6,0.8-2.6,0.2c-0.9-0.6-1.9-1-2.9-1.4c-1.1-0.5-1.8-1.8-1.2-2.5c0.7-0.9,1.4-1.8,2.2-2.5
			c2.4-2.1,4.7-4.1,6.7-6.6c1.2-1.6,2.8-2.9,4.1-4.4c0.8-0.9,1.6-1.6,2.6-2.2c1.1-0.8,2-0.2,3,0C1701,32.6,1700.8,34.6,1701.3,35.9z
			"/>
		<path class="st0" d="M1782,15.7c-0.3-0.3-0.5-0.6-0.7-1c-0.2-0.3-0.4-0.7-0.7-1c-0.2-0.2-0.4-0.3-0.6-0.5
			c-0.5-0.6-0.5-1.5-0.1-2.2c0.8-1.5,2.7-2.1,4.3-1.9c0.9,0.1,1.7,0.4,2.3,1c0.3,0.4,0.5,0.8,0.7,1.3c0.8,1.5,2.2,2.5,3,3.9
			c0.5,0.8,1.3,1.3,1.9,2c0.8,0.9,1.5,1.9,2.3,2.8c1.1,1.4,2.1,2.7,3.2,4.1c0.1,0.2,0.5,0.2,0.7,0.3c0.3,0.3,0.6,0.8,0.8,1.1
			c0.2,0.3,0.3,0.5,0.5,0.8c0.1,0.2,0.3,0.4,0.3,0.5c0,1,0,2-0.1,3c-0.1,0.7-1.5,1.5-2.4,1.4c-0.7-0.1-1.4-0.3-2.1-0.4
			c-1.3-0.3-2.4-1.1-3.1-2.2c-0.7-1-1.1-2.1-1.8-3.1c-0.5-0.7-1.1-1.3-1.7-1.9c-0.7-0.9-1.4-1.8-2.1-2.7c-0.6-0.8-1.3-1.6-2-2.4
			C1783.9,17.5,1782.8,16.7,1782,15.7z"/>
		<path class="st0" d="M951,10.7c0.4-0.1,0.9,0,1.4,0.1c0.7,0,1.4-0.1,2.1,0.2c0.6,0.2,1,0.7,1.4,1.2c1,1.1,2,2.2,3.1,3.2
			c2,1.9,4.3,3.5,6.5,5.2c1,0.8,2.1,1.6,3.1,2.3c1.1,0.8,2.2,1.7,2.9,2.8c0.3,0.4,0.5,0.9,0.5,1.4c0,1.3-1.6,1.4-2.6,1.6
			c-1.4,0.3-2.8,0.5-4.1,0c-1.2-0.4-2.1-1.3-3.1-2.2c-3.7-3.4-7.7-6.4-11.6-9.5c-0.6-0.5-1.2-1-1.5-1.8c-0.3-0.9,0.1-1.9,0.4-2.8
			c0.3-0.6,0.6-1.3,1.2-1.6C950.7,10.7,950.9,10.7,951,10.7z"/>
		<path class="st0" d="M1520.6,9.3c1.7-0.1,3.2,1,4.6,2.5c1.1,1.2,2.5,2.2,3.9,3.2c1.7,1.3,3.4,2.5,5.1,3.7c0.7,0.5,1.5,0.8,2.3,1.2
			c0.8,0.4,1.9,0.6,2.5,1.2c0.7,0.8,1,1.9,1.4,2.9c0.3,0.6,0.5,1.3,0.5,2c0,0.5-0.3,1.3-0.7,1.5c-0.5,0.3-1.3,0.3-2,0.2
			c-0.8-0.1-1.6-0.4-2.3-0.7c-1.3-0.7-2.8-0.9-3.8-2.2c-0.7-0.9-1.7-1.5-2.6-2.1c-1.7-1.1-3.4-2.2-5.1-3.3c-1.5-1-3-2-4.4-3.1
			c-1-0.8-1.8-1.7-2.7-2.6c-0.1-0.1-0.1-0.2-0.2-0.3C1516.7,12.2,1518.6,9.1,1520.6,9.3z"/>
		<path class="st0" d="M1438.1,42.9c0.3,1.1-0.4,1.8-1.2,2.6c-2,2.1-4,4.2-6,6.2c-0.6,0.6-1.3,1.2-2,1.8c-1.5,1.2-3,2.5-4.6,3.6
			c-0.4,0.3-1.3,0.3-1.8,0.2c-1.1-0.3-2.3-0.8-3.4-1.2c-1-0.4-1.1-1-0.9-2c0.5-2.4,2.6-3.2,4.2-4.5c1.4-1.3,2.9-2.5,4.3-3.8
			c1.6-1.6,3.2-3.3,4.7-5.1c0.8-1,1.6-1.7,3-1.6C1436.4,39.1,1438.3,40.6,1438.1,42.9z"/>
		<path class="st0" d="M1553.9,44.7c0-0.9,0.6-1.9,1.1-2.5c0.7-0.8,1.6-1.4,2.4-2.1c3.4-2.8,6.2-6.2,9.6-9.1
			c0.8-0.7,1.7-1.4,2.8-1.4c0.8,0,1.5,0.4,2,0.9s0.9,1.2,1.2,1.9c0.4,0.9,0.6,1.8,0.3,2.7c-0.2,0.7-0.8,1.2-1.3,1.7
			c-3.3,3.1-6.6,6.3-9.7,9.5c-0.2,0.2-0.4,0.4-0.6,0.5c-0.3,0.1-0.5,0.2-0.8,0.2c-1.4,0.1-2.9,0-4.3-0.2c-0.9-0.2-2.1-0.5-2.5-1.3
			C1553.9,45.2,1553.9,44.9,1553.9,44.7z"/>
		<path class="st0" d="M1667.3,27.8c0,1.6-1.1,2.3-2.5,2.1c-2.3-0.2-4-1.5-5.7-2.8c-0.8-0.7-1.5-1.5-2.4-2.2c-1.5-1.2-3-2.3-4.6-3.4
			c-1.7-1.3-3.5-2.6-5.2-3.9c-0.9-0.7-1.8-1.6-2.8-2.2c-1-0.6-1-1.4-0.7-2.2c1.1-2.6,2.8-2.7,5.5-1.3c1.5,0.8,2.8,1.9,4.1,2.9
			c1.8,1.3,3.5,2.6,5.2,3.9c2.5,1.9,5,3.8,7.6,5.7C1667,25.5,1667,26.8,1667.3,27.8z"/>
		<path class="st0" d="M1362.2,54.7c0.3-1.5,1.1-2.8,2.6-3.6c0.9-0.5,1.7-1.1,2.4-1.8c1.8-1.5,3.6-3,5.3-4.7
			c1.1-1.1,2.1-2.5,3.1-3.8s2.9-1.6,4.2-0.7c0.9,0.6,1.2,1.4,1.4,2.4c0,0.3,0.3,0.6,0.3,0.8c0,0.6,0,1.3-0.3,1.8
			c-1.3,2.5-3.6,4.2-5.7,6.1c-2.1,1.9-4.1,3.8-6.3,5.6c-1.1,0.9-2.4,1.1-3.7,0.5c-0.6-0.2-1.2-0.5-1.9-0.8
			C1362.6,56.3,1362,55.8,1362.2,54.7z"/>
		<path class="st0" d="M1341,32.2c-0.5-0.4-1-0.8-1.5-1.3c-0.7-0.7-1.5-1.3-2.3-1.9c-1.5-1.2-3-2.3-4.5-3.5
			c-1.4-1.1-2.7-2.2-3.9-3.4c-1.1-1.1-1.7-2.5-0.8-4c0.5-0.9,1.5-1.6,2.6-1.7c1.7-0.1,3.2,1.1,4.5,2.2c3.2,2.8,6.3,5.5,9.5,8.3
			c0.8,0.7,2,0.7,2.8,1.4c0.4,0.4,0.7,1,0.9,1.5c0.2,0.8,0.4,1.9-0.2,2.7c-1.5,1.9-4.5,0.7-6.2,0C1341.5,32.5,1341.2,32.4,1341,32.2
			z"/>
		<path class="st0" d="M1076.9,13.4c0.5-0.1,1,0,1.5,0.1c2.3,0.5,4,2.5,5.8,4.1c1.7,1.5,3.5,2.9,5.3,4.2c0.8,0.6,1.6,1.2,2.6,1.5
			c1.4,0.4,2.9,2,3.2,3.4c0.1,0.4-0.1,0.9-0.3,1.3c-0.5,0.8-1.3,1.3-2.2,1.6c-1.6,0.5-3.6,0.3-4.9-0.7c-0.6-0.5-1.2-1.1-1.8-1.6
			c-3.2-3.2-7.5-5.1-10.7-8.2c-0.4-0.4-0.8-0.8-1-1.4s-0.2-1.2,0-1.8c0.1-0.6,0.4-1.1,0.8-1.6C1075.6,13.8,1076.2,13.5,1076.9,13.4z
			"/>
		<path class="st0" d="M1048.7,44.1c0.1-0.6,0.5-1.2,0.9-1.7c0.6-0.7,1.4-1.2,2.1-1.7c1.6-1.2,3-2.7,4.5-4c1.3-1.2,2.8-2.3,3.8-3.8
			c0.4-0.6,0.8-1.2,1.2-1.7c0.4-0.4,1-0.7,1.5-1c0.2-0.1,0.4-0.3,0.7-0.3c0.3,0,0.5,0.1,0.8,0.2c0.7,0.3,1.5,0.7,2,1.3
			c0.6,0.6,1,1.3,1.1,2.1c0.1,1.3-0.8,2.5-1.7,3.5c-2.2,2.3-4.8,4.3-7.2,6.4c-0.6,0.5-1.3,1.1-1.7,1.8c-0.2,0.3-0.3,0.6-0.5,0.9
			c-1.2,1.6-4.3,1.7-5.9,0.9c-0.8-0.4-1.6-1.1-1.7-2.1C1048.6,44.6,1048.6,44.3,1048.7,44.1z"/>
		<path class="st0" d="M1200.3,15.4c0-0.1-0.7-1.5-0.6-1.9c0.1-0.5,0.2-0.9,0.4-1.3c0.4-0.6,1.1-0.9,1.8-1c0.9-0.2,1.9-0.2,2.9,0.2
			c1.4,0.5,2.5,1.7,3.6,2.7c2.3,2.1,5,3.8,7.6,5.5c1.1,0.7,2.3,1.5,3,2.7s0.9,2.8,0,3.8c-0.5,0.6-1.4,0.9-2.2,0.8
			c-0.4,0-0.8-0.2-1.2-0.3c-0.5-0.1-1-0.1-1.5-0.2c-1.6-0.3-2.8-1.5-4.1-2.6c-3.3-3-5.9-4.7-9.2-7.6
			C1200.8,16.1,1200.3,15.4,1200.3,15.4z"/>
		<path class="st0" d="M1403.4,32.4c-2-0.7-4.5-1-6.3-3.3c-0.7-0.9-1.9-1.6-2.9-2.3c-1.2-0.9-2.4-1.8-3.7-2.7
			c-0.9-0.6-1.8-1-2.7-1.5c-2.8-1.4-2-4.7,0.1-5.8c0.2-0.1,0.4-0.2,0.6-0.2c2.5,0.4,4.8,1.3,6.7,3.2c1.2,1.2,2.8,1.9,4.2,2.9
			c1.8,1.2,3.6,2.3,5.3,3.5c0.4,0.3,0.8,0.8,1,1.3c0.2,0.8,0.4,1.7,0.4,2.6C1406.2,32.1,1405.8,32.5,1403.4,32.4z"/>
		<path class="st0" d="M1114.4,49c-1.6,0.1-3.2-0.2-3.8-1.6c-0.2-0.3-0.2-0.6-0.2-1c0-1.5,0.9-2.8,2-3.7s2.4-1.6,3.6-2.5
			c1.8-1.4,3.2-3.3,4.7-5.1c0.6-0.7,1.2-1.4,2.1-1.8c1.3-0.6,2.9-0.3,3.9,0.7c0.4,0.4,0.7,0.9,1,1.4c0.3,0.6,0.7,1.2,0.7,1.9
			c0,1-0.9,1.8-1.7,2.5c-2.4,2-4.8,4.1-7.1,6.3c-0.5,0.4-1,0.9-1.3,1.4c-0.2,0.3-0.3,0.5-0.6,0.7c-0.2,0.2-0.5,0.3-0.7,0.4
			C1116.2,48.7,1115.3,48.9,1114.4,49z"/>
		<path class="st0" d="M1250.4,41.2c-1.4,2-3.1,3.8-5,6.2c-1,1.2-2,2.5-2.7,3.9c-0.3,0.7-0.6,1.5-1.3,1.8c-0.4,0.2-0.8,0.2-1.2,0.2
			c-1,0-2.1-0.1-3.1-0.2c-1.4-0.2-2.6-1.1-2.2-2.6c0.1-0.6,0.5-1.2,0.9-1.7c2.7-3.7,5.9-7,8.2-10.9c0.3-0.5,0.6-1,1-1.3
			c0.6-0.4,1.5-0.4,2.3-0.4c0.5,0,1.1,0,1.6,0.3c0.9,0.4,1.3,1.3,1.7,2.2C1250.9,39.4,1250.6,40.4,1250.4,41.2z"/>
		<path class="st0" d="M1033.3,25.1c0.2,1.1-0.6,1.4-1.3,1.7c-0.9,0.4-1.8,0.8-2.7,0.8c-0.9,0-1.9-0.2-2.7-0.6
			c-1.1-0.6-2.1-1.4-3.1-2.1c-1.1-0.7-2.2-1.5-3.3-2.2c-0.8-0.5-1.5-1-2.3-1.4c-1-0.5-1.9-1.1-2.9-1.4c-1.7-0.6-3-2.2-2.9-3.9
			c0-0.3,0.5-0.6,0.7-0.9c0.8-1.5,2.3-1.8,3.7-2c0.7-0.1,1.5,0.5,2.2,0.9c1.1,0.7,2.2,1.4,3.1,2.3c1.3,1.2,2.9,1.8,4.2,2.9
			c0.9,0.8,2.2,1.3,3.3,1.9c1.4,0.7,2.7,1.4,3.5,2.7C1033.2,24.1,1033.2,24.6,1033.3,25.1z"/>
		<path class="st0" d="M1453.2,15.3c2.5-0.5,4,1.6,5.8,3.3c1,1,2.1,2,3.3,2.9c1.4,1.1,3,2,4.4,3c0.4,0.3,0.6,0.7,0.8,1.2
			c0.4,1.1,0.8,2.2,1.2,3.4c0.3,1.1-0.6,1.5-1.2,2.1c-0.2,0.2-1-0.1-1.5-0.3c-0.9-0.3-1.8-0.9-2.7-1c-1.2-0.1-2.1-0.7-2.9-1.5
			c-1.5-1.3-3.1-2.5-4.6-3.8c-1.8-1.6-3.7-3.1-5.5-4.7c-0.5-0.4-0.6-2.4,0-3C1450.8,16,1451.5,15.1,1453.2,15.3z"/>
		<path class="st0" d="M1135.2,14.9c0.9-0.6,2.1-0.9,3.2-0.6c1.2,0.3,2.2,1.1,3.1,1.9c2.1,1.7,4.2,3.4,6.6,4.8
			c0.9,0.6,1.9,1.1,2.7,1.8c0.8,0.7,1.5,1.6,1.7,2.7c0.1,0.4,0.1,0.8-0.1,1.2c-0.3,0.5-1,0.7-1.6,0.9c-1.2,0.3-2.5,0.7-3.8,0.5
			c-1.4-0.2-2.1-0.8-3.1-1.7c-2-1.8-4.2-3.3-6.7-4.5c-0.8-0.4-1.7-0.8-2.3-1.5c-0.5-0.6-0.7-1.3-0.9-2c-0.1-0.4-0.2-0.8-0.2-1.2
			c0-0.3,0.1-0.5,0.3-0.8C1134.2,15.7,1134.7,15.2,1135.2,14.9z"/>
		<path class="st0" d="M923.3,44c-0.8,0-1.6-0.1-2.3-0.1c-0.4,0-0.8,0-1.1-0.2c-0.7-0.4-0.8-1.3-0.8-2.1c0-0.4,0-0.9,0.1-1.3
			c0.2-0.4,0.5-0.7,0.8-0.9c3.5-3,6.7-6.5,9.4-10.4c0.4-0.6,0.9-1.3,1.6-1.7c0.9-0.5,2.1-0.3,3,0.3c0.9,0.6,1.5,1.4,2.1,2.3
			c0.2,0.2,0.4,0.5,0.4,0.8s-0.2,0.6-0.3,0.9c-0.8,1.1-1.7,2.1-2.6,3c-0.8,0.8-1.6,1.6-2.4,2.4c-0.1,0.1-0.2,0.2-0.4,0.3
			c-0.1,0.1-0.3,0.2-0.5,0.3c-0.5,0.3-0.8,0.7-1.2,1.2c-0.7,1-1.4,2-2.2,2.9s-1.9,1.5-2.8,2.2c-0.1,0.1-0.2,0.2-0.4,0.2
			C923.6,44,923.5,44,923.3,44C923.4,44,923.3,44,923.3,44z"/>
		<path class="st0" d="M991.4,47.9c-0.8,0-1.5-0.2-2.2-0.3c-0.3-0.1-0.6-0.2-0.8-0.5s-0.2-0.6-0.2-0.9c0-0.8,0-1.5,0.2-2.2
			c0.3-0.7,0.8-1.3,1.3-1.8c2.3-2.5,4.3-5.3,6.3-8.1c0.7-1,1.5-2,2.7-2.3c0.8-0.2,1.7,0.1,2.5,0.6c0.7,0.5,1.3,1.1,1.8,1.8
			c0.2,0.2,0.4,0.5,0.4,0.8c0.1,0.5-0.2,0.9-0.4,1.3c-2,3.1-4.9,5.5-6.8,8.6c-0.6,1-1.3,2.2-2.4,2.7
			C993.1,47.8,992.3,47.9,991.4,47.9z"/>
	</g>
	<g>
		<g>
			<path class="st0" d="M874.7,29.5L874.7,29.5c0.4,0,0.7,0.1,1,0.3c0.5,0.2,1,0.4,1.5,0.6c0.3,0.1,0.7,0.3,0.9,0.5
				c0.4,0.3,0.6,0.8,0.7,1.3c0.3,0.9,0.5,1.9,0.2,2.8c-0.4,1.2-1.5,1.9-2.5,2.6c-3.3,2.2-6.2,4.9-9.1,7.6c-2.9,2.6-5.7,5.2-8.2,8.2
				c-0.4,0.5-0.9,1.1-1.5,1.3c-0.4,0.1-0.8,0.1-1.2,0c-1.5-0.3-2.9-1-4.1-2c-0.5-0.4-1.3-1.1-1.4-1.8c-0.1-0.8,0.6-1.5,1.1-2
				c4.3-4,9-7.5,13.1-11.6c2.7-2.6,5.1-5.6,8.5-7.4C874.1,29.6,874.4,29.5,874.7,29.5z"/>
			<path class="st0" d="M696.7,5.7c2-0.4,3,1.1,4.3,2.1c2.3,1.9,4.6,3.9,7,5.8c1,0.8,2,1.5,3,2.2c2,1.3,4,2.7,6.1,3.9
				c1.7,1,3.5,1.9,5.3,2.8c1.5,0.8,2.5,3,2.2,4.7c-0.2,0.9-2.3,1.7-3.3,1.3c-0.4-0.2-0.8-0.3-1.2-0.4c-1.7-0.1-2.9-1.1-4.1-2.1
				c-1-0.8-2-1.6-3.1-2.3c-2.5-1.6-5-3.2-7.5-4.8c-1.9-1.2-3.8-2.4-5.5-3.8c-2-1.7-4.5-2.9-6-5.1c-1-1-0.9-2.1,0.1-3.1
				C694.7,6.1,695.4,5.3,696.7,5.7z"/>
			<path class="st0" d="M614.4,37.5c-0.1,1.6-0.8,2.5-2.2,3.3c-1.5,0.9-2.8,2.3-4.2,3.5c-0.7,0.5-1.4,1-2.1,1.5
				c-1.2,0.9-2.3,1.9-3.6,2.7c-2.1,1.3-3.6,3.3-5.4,5c-0.2,0.2-0.4,0.4-0.7,0.4c-1.9,0.4-3.7-0.5-5.3-1.2c-1.3-0.6-1.4-1.2-1-2.7
				c0.4-1.4,1.1-2.5,2.5-3.2c1.1-0.5,2-1.3,3-2.1c2.3-1.7,4.6-3.4,6.8-5.2c1.4-1.2,2.8-2.4,4.2-3.6c0.1-0.1,0.2-0.2,0.3-0.3
				c0.4-1.4,1.6-1.9,2.8-2.1c1.7-0.2,3.1,0.5,4.2,1.7C614.3,35.6,614.2,36.6,614.4,37.5z"/>
			<path class="st0" d="M839.9,20.9c0.2,0.1,0.5,0.2,0.7,0.4c1.1,0.6,2.2,1.3,3.3,1.9c1,0.5,1.6,1.4,2.2,2.3c0.7,1,1.4,2.2,1.4,3.4
				s-1,2.6-2.3,2.5c-0.5,0-0.9-0.3-1.3-0.5c-0.9-0.5-1.8-1-2.8-1.5c-0.4-0.2-0.7-0.4-1-0.6c-0.3-0.3-0.6-0.6-0.9-0.9
				c-0.7-0.6-1.6-1-2.5-1.4c-2.8-1.4-5.2-3.6-7.4-5.8c-1.8-1.8-3.6-3.5-5.3-5.4c-0.7-0.8-1.4-1.4-1.3-2.5c0-1,0.6-2,1.5-2.5
				c1.1-0.6,2.6-0.6,3.8,0s2.2,1.5,3,2.5s1.6,2.1,2.4,3.1c1.3,1.6,2.8,3.1,4.5,4.2C838.6,20.3,839.2,20.6,839.9,20.9z"/>
			<path class="st0" d="M735.5,53.9c-1.5-0.2-3-0.3-4.3-1.4c-1.5-1.2-1.5-1.2-0.6-3c0.9-1.7,2.4-2.5,3.8-3.5c1.4-1,2.8-2,4.1-3.1
				c1.7-1.4,3.3-2.8,5-4.3c0.8-0.7,1.5-1.6,2.2-2.3c0.8-0.7,1.6-1.4,2.4-2.1c0.7-0.6,2.2-0.3,3.1,0.1c1.8,0.8,1.9,2.4,2,3.9
				c0,0.7-0.6,1.5-1.1,2c-1.7,1.6-3.5,3.1-5.3,4.6c-1.6,1.3-3.1,2.7-4.7,4c-1.3,1-2.6,2-3.9,3.1c-0.1,0.1-0.3,0.3-0.3,0.4
				C737.7,53.8,736.6,53.8,735.5,53.9z"/>
			<path class="st0" d="M413.3,60.3c-1.2-0.5-2.4-0.9-3.6-1.5c-0.4-0.2-0.7-0.8-0.8-1.3c-0.2-1.4,1.1-3,2.2-3.8
				c1.6-1.2,3-2.8,4.4-4.3c0.5-0.5,1-1,1.5-1.6c0.9-1.1,1.9-2.2,2.7-3.4c1.3-1.8,2.4-3.7,3.7-5.6c0.7-1,1.7-1.3,2.9-1.1
				c1.3,0.2,2.2,0.7,2.8,2.1c0.8,2,0.4,3.5-0.9,5.1s-2.5,3.4-3.8,5.1c-1.2,1.6-2.5,3.2-3.9,4.6c-1.2,1.3-2.6,2.4-3.7,3.8
				C415.8,59.5,414.8,60.1,413.3,60.3z"/>
			<path class="st0" d="M378,14.1c1.3,0.5,2.8,0.8,4,1.6c1,0.6,1.5,1.8,2.3,2.7c1.1,1.2,2.1,2.4,3.3,3.5c1,1,2.2,2,3.2,3
				c1.5,1.5,3.2,2.9,5.1,4c0.5,0.3,1,0.7,1.3,1.2c0.6,1,1.3,2,1.7,3.1c0.2,0.6-0.1,1.6-0.5,2.2c-0.2,0.3-1.1,0.4-1.6,0.3
				c-1-0.1-2.1-0.4-3.1-0.5c-1.7-0.2-2.7-1.5-3.9-2.5c-1.3-1-2.5-2.2-3.6-3.3c-1.9-1.9-3.7-3.9-5.7-5.8c-1.3-1.3-2.7-2.5-4.2-3.6
				c-0.9-0.7-1.2-1.3-1.2-2.5c0-1.5,0.7-2.2,1.7-2.9C377,14.5,377.4,14.4,378,14.1z"/>
			<path class="st0" d="M278.4,49.1c0-0.1,0-0.2,0-0.4c0.2-0.9,0.8-1.7,1.5-2.3s1.5-1.1,2.3-1.6c3.4-2.3,6.2-5.4,8.9-8.5
				c0.8-0.9,1.6-1.8,2.3-2.9c0.3-0.5,0.6-1,1-1.3c0.7-0.6,1.7-0.6,2.7-0.6c0.2,0,0.4,0,0.7,0.1c0.2,0.1,0.4,0.3,0.6,0.5
				c0.6,0.6,1.2,1.3,1.6,2.1c0.4,0.6,0.7,1.3,0.6,2c-0.1,0.5-0.4,0.9-0.7,1.3c-3.7,5.1-9.1,8.5-13.2,13.3c-0.4,0.4-0.7,0.9-1.2,1
				c-0.3,0.1-0.5,0.1-0.8,0.1c-1,0-1.9,0-2.9,0C280.1,51.9,278.3,51,278.4,49.1z"/>
			<path class="st0" d="M812.9,35.9c0.1,1.2-0.5,1.9-1.2,2.4c-1.2,1.1-2.5,2-3.7,3.1c-1.6,1.6-3,3.3-4.5,4.9
				c-1.6,1.7-3.2,3.5-4.9,5.1c-0.7,0.7-1.6,0.8-2.6,0.2c-0.9-0.6-1.9-1-2.9-1.4c-1.1-0.5-1.8-1.8-1.2-2.5c0.7-0.9,1.4-1.8,2.2-2.5
				c2.4-2.1,4.7-4.1,6.7-6.6c1.2-1.6,2.8-2.9,4.1-4.4c0.8-0.9,1.6-1.6,2.6-2.2c1.1-0.8,2-0.2,3,0C812.6,32.6,812.4,34.6,812.9,35.9z
				"/>
			<path class="st0" d="M911.3,26.4c0,0,0-0.1-0.1-0.1c-1-1.8-2.3-3.4-3.6-5c-3.1-3.8-6.2-7.5-9.3-11.2c-0.9-1.1-1.9-2.3-3.3-2.7
				c-1.5-0.5-3.6,0.3-4.3,1.7c-1.1,2.1,0.7,3.8,2,5.5c2.8,3.7,6.4,6.7,8.9,10.6c0.9,1.3,1.6,2.8,2.7,4c1.1,1.2,2.5,2.2,4.1,2.2
				s3.3-1.2,3.4-2.8C911.9,27.8,911.7,27.1,911.3,26.4z"/>
			<path class="st0" d="M62.6,10.7c0.4-0.1,0.9,0,1.4,0.1c0.7,0,1.4-0.1,2.1,0.2c0.6,0.2,1,0.7,1.4,1.2c1,1.1,2,2.2,3.1,3.2
				c2,1.9,4.3,3.5,6.5,5.2c1,0.8,2.1,1.6,3.1,2.3c1.1,0.8,2.2,1.7,2.9,2.8c0.3,0.4,0.5,0.9,0.5,1.4c0,1.3-1.6,1.4-2.6,1.6
				c-1.4,0.3-2.8,0.5-4.1,0c-1.2-0.4-2.1-1.3-3.1-2.2C70,23.1,66,20.1,62.1,17c-0.6-0.5-1.2-1-1.5-1.8c-0.3-0.9,0.1-1.9,0.4-2.8
				c0.3-0.6,0.6-1.3,1.2-1.6C62.3,10.7,62.4,10.7,62.6,10.7z"/>
			<path class="st0" d="M632.1,9.3c1.7-0.1,3.2,1,4.6,2.5c1.1,1.2,2.5,2.2,3.9,3.2c1.7,1.3,3.4,2.5,5.1,3.7c0.7,0.5,1.5,0.8,2.3,1.2
				c0.8,0.4,1.9,0.6,2.5,1.2c0.7,0.8,1,1.9,1.4,2.9c0.3,0.6,0.5,1.3,0.5,2c0,0.5-0.3,1.3-0.7,1.5c-0.5,0.3-1.3,0.3-2,0.2
				c-0.8-0.1-1.6-0.4-2.3-0.7c-1.3-0.7-2.8-0.9-3.8-2.2c-0.7-0.9-1.7-1.5-2.6-2.1c-1.7-1.1-3.4-2.2-5.1-3.3c-1.5-1-3-2-4.4-3.1
				c-1-0.8-1.8-1.7-2.7-2.6c-0.1-0.1-0.1-0.2-0.2-0.3C628.3,12.2,630.2,9.1,632.1,9.3z"/>
			<path class="st0" d="M549.7,42.9c0.3,1.1-0.4,1.8-1.2,2.6c-2,2.1-4,4.2-6,6.2c-0.6,0.6-1.3,1.2-2,1.8c-1.5,1.2-3,2.5-4.6,3.6
				c-0.4,0.3-1.3,0.3-1.8,0.2c-1.1-0.3-2.3-0.8-3.4-1.2c-1-0.4-1.1-1-0.9-2c0.5-2.4,2.6-3.2,4.2-4.5c1.4-1.3,2.9-2.5,4.3-3.8
				c1.6-1.6,3.2-3.3,4.7-5.1c0.8-1,1.6-1.7,3-1.6C547.9,39.1,549.9,40.6,549.7,42.9z"/>
			<path class="st0" d="M665.5,44.7c0-0.9,0.6-1.9,1.1-2.5c0.7-0.8,1.6-1.4,2.4-2.1c3.4-2.8,6.2-6.2,9.6-9.1
				c0.8-0.7,1.7-1.4,2.8-1.4c0.8,0,1.5,0.4,2,0.9s0.9,1.2,1.2,1.9c0.4,0.9,0.6,1.8,0.3,2.7c-0.2,0.7-0.8,1.2-1.3,1.7
				c-3.3,3.1-6.6,6.3-9.7,9.5c-0.2,0.2-0.4,0.4-0.6,0.5c-0.3,0.1-0.5,0.2-0.8,0.2c-1.4,0.1-2.9,0-4.3-0.2c-0.9-0.2-2.1-0.5-2.5-1.3
				C665.5,45.2,665.5,44.9,665.5,44.7z"/>
			<path class="st0" d="M778.9,27.8c0,1.6-1.1,2.3-2.5,2.1c-2.3-0.2-4-1.5-5.7-2.8c-0.8-0.7-1.5-1.5-2.4-2.2c-1.5-1.2-3-2.3-4.6-3.4
				c-1.7-1.3-3.5-2.6-5.2-3.9c-0.9-0.7-1.8-1.6-2.8-2.2c-1-0.6-1-1.4-0.7-2.2c1.1-2.6,2.8-2.7,5.5-1.3c1.5,0.8,2.8,1.9,4.1,2.9
				c1.8,1.3,3.5,2.6,5.2,3.9c2.5,1.9,5,3.8,7.6,5.7C778.6,25.5,778.6,26.8,778.9,27.8z"/>
			<path class="st0" d="M473.7,54.7c0.3-1.5,1.1-2.8,2.6-3.6c0.9-0.5,1.7-1.1,2.4-1.8c1.8-1.5,3.6-3,5.3-4.7
				c1.1-1.1,2.1-2.5,3.1-3.8s2.9-1.6,4.2-0.7c0.9,0.6,1.2,1.4,1.4,2.4c0,0.3,0.3,0.6,0.3,0.8c0,0.6,0,1.3-0.3,1.8
				c-1.3,2.5-3.6,4.2-5.7,6.1c-2.1,1.9-4.1,3.8-6.3,5.6c-1.1,0.9-2.4,1.1-3.7,0.5c-0.6-0.2-1.2-0.5-1.9-0.8
				C474.2,56.3,473.6,55.8,473.7,54.7z"/>
			<path class="st0" d="M452.6,32.2c-0.5-0.4-1-0.8-1.5-1.3c-0.7-0.7-1.5-1.3-2.3-1.9c-1.5-1.2-3-2.3-4.5-3.5
				c-1.4-1.1-2.7-2.2-3.9-3.4c-1.1-1.1-1.7-2.5-0.8-4c0.5-0.9,1.5-1.6,2.6-1.7c1.7-0.1,3.2,1.1,4.5,2.2c3.2,2.8,6.3,5.5,9.5,8.3
				c0.8,0.7,2,0.7,2.8,1.4c0.4,0.4,0.7,1,0.9,1.5c0.2,0.8,0.4,1.9-0.2,2.7c-1.5,1.9-4.5,0.7-6.2,0C453.1,32.5,452.8,32.4,452.6,32.2
				z"/>
			<path class="st0" d="M188.5,13.4c0.5-0.1,1,0,1.5,0.1c2.3,0.5,4,2.5,5.8,4.1c1.7,1.5,3.5,2.9,5.3,4.2c0.8,0.6,1.6,1.2,2.6,1.5
				c1.4,0.4,2.9,2,3.2,3.4c0.1,0.4-0.1,0.9-0.3,1.3c-0.5,0.8-1.3,1.3-2.2,1.6c-1.6,0.5-3.6,0.3-4.9-0.7c-0.6-0.5-1.2-1.1-1.8-1.6
				c-3.2-3.2-7.5-5.1-10.7-8.2c-0.4-0.4-0.8-0.8-1-1.4s-0.2-1.2,0-1.8c0.1-0.6,0.4-1.1,0.8-1.6C187.2,13.8,187.8,13.5,188.5,13.4z"
				/>
			<path class="st0" d="M160.3,44.1c0.1-0.6,0.5-1.2,0.9-1.7c0.6-0.7,1.4-1.2,2.1-1.7c1.6-1.2,3-2.7,4.5-4c1.3-1.2,2.8-2.3,3.8-3.8
				c0.4-0.6,0.8-1.2,1.2-1.7c0.4-0.4,1-0.7,1.5-1c0.2-0.1,0.4-0.3,0.7-0.3s0.5,0.1,0.8,0.2c0.7,0.3,1.5,0.7,2,1.3
				c0.6,0.6,1,1.3,1.1,2.1c0.1,1.3-0.8,2.5-1.7,3.5c-2.2,2.3-4.8,4.3-7.2,6.4c-0.6,0.5-1.3,1.1-1.7,1.8c-0.2,0.3-0.3,0.6-0.5,0.9
				c-1.2,1.6-4.3,1.7-5.9,0.9c-0.8-0.4-1.6-1.1-1.7-2.1C160.2,44.6,160.2,44.3,160.3,44.1z"/>
			<path class="st0" d="M311.9,15.4c0-0.1-0.7-1.5-0.6-1.9c0.1-0.5,0.2-0.9,0.4-1.3c0.4-0.6,1.1-0.9,1.8-1c0.9-0.2,1.9-0.2,2.9,0.2
				c1.4,0.5,2.5,1.7,3.6,2.7c2.3,2.1,5,3.8,7.6,5.5c1.1,0.7,2.3,1.5,3,2.7s0.9,2.8,0,3.8c-0.5,0.6-1.4,0.9-2.2,0.8
				c-0.4,0-0.8-0.2-1.2-0.3c-0.5-0.1-1-0.1-1.5-0.2c-1.6-0.3-2.8-1.5-4.1-2.6c-3.3-3-5.9-4.7-9.2-7.6
				C312.4,16.1,311.9,15.4,311.9,15.4z"/>
			<path class="st0" d="M515,32.4c-2-0.7-4.5-1-6.3-3.3c-0.7-0.9-1.9-1.6-2.9-2.3c-1.2-0.9-2.4-1.8-3.7-2.7c-0.9-0.6-1.8-1-2.7-1.5
				c-2.8-1.4-2-4.7,0.1-5.8c0.2-0.1,0.4-0.2,0.6-0.2c2.5,0.4,4.8,1.3,6.7,3.2c1.2,1.2,2.8,1.9,4.2,2.9c1.8,1.2,3.6,2.3,5.3,3.5
				c0.4,0.3,0.8,0.8,1,1.3c0.2,0.8,0.4,1.7,0.4,2.6C517.8,32.1,517.4,32.5,515,32.4z"/>
			<path class="st0" d="M226,49c-1.6,0.1-3.2-0.2-3.8-1.6c-0.2-0.3-0.2-0.6-0.2-1c0-1.5,0.9-2.8,2-3.7s2.4-1.6,3.6-2.5
				c1.8-1.4,3.2-3.3,4.7-5.1c0.6-0.7,1.2-1.4,2.1-1.8c1.3-0.6,2.9-0.3,3.9,0.7c0.4,0.4,0.7,0.9,1,1.4c0.3,0.6,0.7,1.2,0.7,1.9
				c0,1-0.9,1.8-1.7,2.5c-2.4,2-4.8,4.1-7.1,6.3c-0.5,0.4-1,0.9-1.3,1.4c-0.2,0.3-0.3,0.5-0.6,0.7c-0.2,0.2-0.5,0.3-0.7,0.4
				C227.8,48.7,226.9,48.9,226,49z"/>
			<path class="st0" d="M362,41.2c-1.4,2-3.1,3.8-5,6.2c-1,1.2-2,2.5-2.7,3.9c-0.3,0.7-0.6,1.5-1.3,1.8c-0.4,0.2-0.8,0.2-1.2,0.2
				c-1,0-2.1-0.1-3.1-0.2c-1.4-0.2-2.6-1.1-2.2-2.6c0.1-0.6,0.5-1.2,0.9-1.7c2.7-3.7,5.9-7,8.2-10.9c0.3-0.5,0.6-1,1-1.3
				c0.6-0.4,1.5-0.4,2.3-0.4c0.5,0,1.1,0,1.6,0.3c0.9,0.4,1.3,1.3,1.7,2.2C362.5,39.4,362.2,40.4,362,41.2z"/>
			<path class="st0" d="M144.9,25.1c0.2,1.1-0.6,1.4-1.3,1.7c-0.9,0.4-1.8,0.8-2.7,0.8s-1.9-0.2-2.7-0.6c-1.1-0.6-2.1-1.4-3.1-2.1
				c-1.1-0.7-2.2-1.5-3.3-2.2c-0.8-0.5-1.5-1-2.3-1.4c-1-0.5-1.9-1.1-2.9-1.4c-1.7-0.6-3-2.2-2.9-3.9c0-0.3,0.5-0.6,0.7-0.9
				c0.8-1.5,2.3-1.8,3.7-2c0.7-0.1,1.5,0.5,2.2,0.9c1.1,0.7,2.2,1.4,3.1,2.3c1.3,1.2,2.9,1.8,4.2,2.9c0.9,0.8,2.2,1.3,3.3,1.9
				c1.4,0.7,2.7,1.4,3.5,2.7C144.7,24.1,144.7,24.6,144.9,25.1z"/>
			<path class="st0" d="M564.7,15.3c2.5-0.5,4,1.6,5.8,3.3c1,1,2.1,2,3.3,2.9c1.4,1.1,3,2,4.4,3c0.4,0.3,0.6,0.7,0.8,1.2
				c0.4,1.1,0.8,2.2,1.2,3.4c0.3,1.1-0.6,1.5-1.2,2.1c-0.2,0.2-1-0.1-1.5-0.3c-0.9-0.3-1.8-0.9-2.7-1c-1.2-0.1-2.1-0.7-2.9-1.5
				c-1.5-1.3-3.1-2.5-4.6-3.8c-1.8-1.6-3.7-3.1-5.5-4.7c-0.5-0.4-0.6-2.4,0-3C562.4,16,563.1,15.1,564.7,15.3z"/>
			<path class="st0" d="M246.8,14.9c0.9-0.6,2.1-0.9,3.2-0.6c1.2,0.3,2.2,1.1,3.1,1.9c2.1,1.7,4.2,3.4,6.6,4.8
				c0.9,0.6,1.9,1.1,2.7,1.8c0.8,0.7,1.5,1.6,1.7,2.7c0.1,0.4,0.1,0.8-0.1,1.2c-0.3,0.5-1,0.7-1.6,0.9c-1.2,0.3-2.5,0.7-3.8,0.5
				c-1.4-0.2-2.1-0.8-3.1-1.7c-2-1.8-4.2-3.3-6.7-4.5c-0.8-0.4-1.7-0.8-2.3-1.5c-0.5-0.6-0.7-1.3-0.9-2c-0.1-0.4-0.2-0.8-0.2-1.2
				c0-0.3,0.1-0.5,0.3-0.8C245.8,15.7,246.2,15.2,246.8,14.9z"/>
			<path class="st0" d="M34.9,44c-0.8,0-1.6-0.1-2.3-0.1c-0.4,0-0.8,0-1.1-0.2c-0.7-0.4-0.8-1.3-0.8-2.1c0-0.4,0-0.9,0.1-1.3
				c0.2-0.4,0.5-0.7,0.8-0.9c3.5-3,6.7-6.5,9.4-10.4c0.4-0.6,0.9-1.3,1.6-1.7c0.9-0.5,2.1-0.3,3,0.3c0.9,0.6,1.5,1.4,2.1,2.3
				c0.2,0.2,0.4,0.5,0.4,0.8s-0.2,0.6-0.3,0.9c-0.8,1.1-1.7,2.1-2.6,3c-0.8,0.8-1.6,1.6-2.4,2.4c-0.1,0.1-0.2,0.2-0.4,0.3
				c-0.1,0.1-0.3,0.2-0.5,0.3c-0.5,0.3-0.8,0.7-1.2,1.2c-0.7,1-1.4,2-2.2,2.9s-1.9,1.5-2.8,2.2c-0.1,0.1-0.2,0.2-0.4,0.2
				C35.2,44,35.1,44,34.9,44L34.9,44z"/>
			<path class="st0" d="M103,47.9c-0.8,0-1.5-0.2-2.2-0.3c-0.3-0.1-0.6-0.2-0.8-0.5c-0.2-0.3-0.2-0.6-0.2-0.9c0-0.8,0-1.5,0.2-2.2
				c0.3-0.7,0.8-1.3,1.3-1.8c2.3-2.5,4.3-5.3,6.3-8.1c0.7-1,1.5-2,2.7-2.3c0.8-0.2,1.7,0.1,2.5,0.6c0.7,0.5,1.3,1.1,1.8,1.8
				c0.2,0.2,0.4,0.5,0.4,0.8c0.1,0.5-0.2,0.9-0.4,1.3c-2,3.1-4.9,5.5-6.8,8.6c-0.6,1-1.3,2.2-2.4,2.7
				C104.7,47.8,103.8,47.9,103,47.9z"/>
		</g>
		<path class="st0" d="M1795.4,37.5c-0.4-0.2-0.9-0.4-1.3-0.6c-0.4-0.2-0.8-0.5-1.2-0.7c-1.2-0.7-2.5-1.4-3.7-2.2
			c-1-0.7-1.9-1.6-2.8-2.4c-1.8-1.5-3.6-3-5.3-4.5c-0.7-0.6-1.1-1.4-1.8-2.1c-0.4-0.4-1.1-0.7-1.5-1.2c-1.7-1.9-3.3-4-5-5.9
			c-1.8-2-2.9-4.4-3.9-6.8c-0.6-1.3-1.8-1.5-2.7-2.2c-0.3-0.2-0.9-0.2-1.6-0.3c-0.3,0.2-0.8,0.5-1.3,0.9c-0.8,0.7-1.6,1.5-2.3,2.3
			c-1.1,1.1-2.1,2.2-3.1,3.4c-0.7,0.8-1.3,1.6-2,2.4c-1.1,1.2-2.3,2.4-3.4,3.6c-1.4,1.5-2.7,3.2-4.2,4.6c-1.6,1.5-3.5,2.8-5.2,4.2
			c-2,1.7-4,3.4-6.1,5c-1,0.8-2.1,1.4-3.1,2.2c-0.7,0.6-1.3,1-2.1,0.5c-1.8-1-3.6-2.1-5.3-3.2c-1.2-0.8-2.4-1.7-3.5-2.5
			c-0.9-0.6-1.8-1.2-2.7-1.8c-0.6-0.4-1.2-0.7-1.7-1.2c-0.5-0.4-0.8-1-1.4-1.4c-0.5-0.4-1.1-0.6-1.6-1.1c-0.7-0.7-1.3-1.4-2-2
			c-0.4-0.3-0.7-0.6-1.1-1c-0.8-0.7-1.5-1.5-2.3-2.2s-1.9-1.2-2.7-1.9c-1.5-1.2-2.4-2.9-3.3-4.6c-0.5-1-1.2-2.2-2.5-2.7
			c-1.2-0.4-3.6,0-4.3,1.1c-0.7,1-1.4,2.1-2.3,3c-2.7,2.5-5.5,5-8.3,7.4c-1.2,1-2.3,2-3.5,3c-1.7,1.4-3.4,2.7-5,4.2
			c-1.1,0.9-2.1,2-3.2,2.9c-1.6,1.4-3.2,2.7-4.8,4c-0.9,0.7-1.7,1.8-3,1.3c-0.9-0.4-1.8-0.9-2.7-1.4c-1.2-0.7-2.5-1.3-3.6-2.2
			c-2-1.6-3.9-3.2-5.8-4.9c-1.8-1.6-3.6-3.2-5.2-4.8c-1.1-1.1-2-2.4-3.1-3.6c-1-1.2-2.1-2.3-2.7-3.8c-0.2-0.4-0.3-0.9-0.4-1.3
			c-0.4-1-1.1-1.9-1.8-2.7c-0.7-0.8-1.7-1.1-2.7-1c-1.8,0.3-2.5,1.8-3.5,3c-1.2,1.3-2.3,2.8-3.6,4c-1.3,1.3-2.8,2.5-4.2,3.8
			c-2.1,1.8-4.3,3.6-6.5,5.4c-1,0.8-2,1.4-3,2.1c-1.1,0.8-2.2,1.6-3.4,2.3c-1.1,0.7-2.4,1.4-3.5,2.2s-2.1,1.8-3.3,2.6
			c-0.4,0.3-1.1,0.3-1.5,0.1c-1.7-0.7-3.3-1.6-4.9-2.4c-0.1,0-0.2-0.1-0.2-0.2c-2-1.6-4.1-3.2-6.1-4.8c-1.7-1.4-3.4-2.9-5.1-4.3
			c-1.6-1.3-3.2-2.6-4.9-3.7c-2-1.2-3.7-2.7-5.3-4.3c-1.5-1.6-2.9-3.3-4.3-4.9c-0.2-0.2-0.3-0.7-0.6-0.8c-0.7-0.2-0.6-0.7-0.7-1.2
			c-0.1-1.3-2.4-2.5-3.6-1.9c-1,0.5-1.6,1.3-2.4,2c-2.1,2-4.4,3.9-6.6,5.8c-1.6,1.4-3.2,3-4.7,4.5c-2,1.9-3.9,3.8-5.9,5.7
			c-2.5,2.4-5,4.9-7.5,7.3c-0.3,0.2-0.5,0.5-0.7,0.8c-0.8,2-2.6,2.6-4.4,2.1c-1.2-0.4-2.4-1.1-3.5-1.7c-2.3-1.3-4.7-2.4-6.9-3.9
			c-2.3-1.5-4.5-3.3-6.7-5.1c-0.6-0.5-1-1.3-1.5-1.8c-1.4-1.3-2.9-2.5-4.3-3.9c-0.5-0.4-0.8-1-1.2-1.5c-1-1.3-2-2.5-3-3.8
			c-0.5-0.7-0.9-1.5-1.4-2.2c-0.3-0.4-0.4-1-0.7-1.3c-0.7-0.6-1.5-1.2-2.3-1.7c-0.7-0.5-3.1-0.7-3.5-0.2c-0.6,0.7-1,1.5-1.6,2.3
			c-1.1,1.4-2.1,2.8-3.3,4c-2.1,1.9-4.3,3.6-6.5,5.4c-1.6,1.3-3.4,2.5-5,3.8c-0.5,0.4-0.9,0.9-1.5,1.3c-1.1,0.7-2.2,1.4-3.3,2.1
			c-1.6,1.1-3,2.3-4.6,3.4c-1.6,1.2-3.3,2.3-4.9,3.6c-1.7,1.3-3.3,2.8-4.9,4.2c-0.8,0.7-1.4,0.6-2-0.3c-0.1-0.1-0.3-0.2-0.4-0.3
			c-1.6-1-3.4-1.9-4.9-3.1c-1.9-1.5-3.7-3.2-5.5-4.8c-2.1-1.9-4.2-3.9-6.3-5.8c-0.5-0.5-1-0.9-1.6-1.3c-1.1-0.8-2.2-1.7-2.9-3
			c-0.3-0.6-1-1.1-1.6-1.5c-0.4-0.3-0.9-0.2-1.3-0.5c-1.1-0.7-2.7-0.1-3.3,1c-0.4,0.8-0.8,1.6-1.4,2.3c-1.1,1.3-2.4,2.5-3.6,3.7
			c-1.1,1.1-2.2,2.3-3.5,3.3c-1.9,1.4-4,2.7-5.9,4.1c-2,1.5-4,3-6,4.5c-1.3,1-2.6,2.2-4,3c-1.8,1.1-3.6,1.9-5.7,0.3
			c-2.2-1.7-4.6-3.1-6.9-4.6c-1.2-0.8-2.6-1.4-3.8-2.3c-2.7-2.1-5.7-3.8-8-6.3c-1.4-1.5-2.9-2.8-4.3-4.2c-1.1-1.2-2.4-2.4-2.3-4.3
			c0-0.2-0.1-0.5-0.3-0.6c-1.1-1.1-2.5-1.7-4-1.9c-0.4,0-0.9,0.2-1.2,0.5c-1,1-1.9,2.2-3,3.2c-2.3,2-4.8,3.7-7.2,5.5
			c-1.9,1.4-3.9,2.9-5.6,4.6c-1.8,1.6-3.3,3.4-5,5.1c-1.9,2-3.9,3.9-5.8,5.8c-0.4,0.4-1.1,0.9-1.5,0.7c-1.1-0.4-2.1-1-3-1.7
			c-1.4-1-2.8-2.1-4.2-3.2c-3.2-2.5-6.2-5.1-9.1-8c-0.2-0.2-0.4-0.4-0.6-0.6c-1.3-1.3-2.8-2.6-4.1-4c-1.2-1.3-2.2-2.6-3.2-4
			c-0.5-0.7-1.1-1.5-1.4-2.3c-0.3-1.1-0.9-1.9-1.8-2.4c-1-0.5-2.2-1-3.2-0.4c-1.2,0.8-2,2-3,3.1c-0.5,0.5-0.9,1.2-1.4,1.6
			c-1.1,0.8-2.3,1.4-3.4,2c-0.7,0.4-1.4,0.7-2.1,1.1c-1.4,1-2.8,2-4.2,3c-1,0.7-2.2,1.4-3,2.3c-1.7,1.8-3.2,3.8-4.9,5.6
			c-1.2,1.3-2.5,2.5-3.7,3.8s-2.2,2.8-3.3,4.1c-0.4,0.4-1.1,1-1.4,0.8c-1.3-0.4-2.5-1-3.6-1.8c-2.4-1.8-4.6-3.8-7-5.7
			c-2.2-1.8-4.6-3.4-6.8-5.3c-1.9-1.6-3.7-3.3-5.5-4.9c-1.7-1.5-3.3-3-5-4.5c-0.6-0.6-1.2-1.2-1.8-1.8c-0.7-0.8-1.3-1.7-1.9-2.5
			c-0.4-0.6-0.6-1.3-1.1-1.9c-1-1.3-4.1-1.4-5.3-0.2c-0.6,0.6-1.2,1.3-1.7,2c-0.4,0.6-0.6,1.3-1.1,1.8c-1.6,1.5-3.3,2.9-4.9,4.4
			c-1.3,1.2-2.7,2.4-4,3.7c-1.2,1.2-2.3,2.5-3.4,3.7c-1,1.1-1.9,2.1-2.8,3.3c-1.1,1.4-2.2,2.8-3.4,4.1c-0.8,1-1.8,1.8-2.7,2.7
			c-0.7,0.8-1.1,0.9-1.9,0.1c-0.2-0.2-0.3-0.3-0.5-0.5c-1.7-1.2-3.4-2.4-5-3.6c-0.5-0.3-0.9-0.8-1.3-1.1c-1.7-1.3-3.3-2.6-5-3.9
			c-2.5-2-5-3.9-7.5-6c-0.9-0.7-2-1.2-2.8-1.9c-2.1-1.9-4.1-3.9-5.9-6c-1-1.2-2.3-2.3-2.7-4c-0.5-1.8-2.4-2.1-3.7-3.2
			c-0.2-0.2-0.8-0.1-1.2,0c-1.2,0.1-1.9,0.9-2.7,1.7c-1.4,1.5-3.1,2.7-4.8,4c-2.5,2-5,4-7.6,5.9c-2.3,1.7-4.7,3.1-7,4.8
			c-1.3,1-2.3,2.3-3.4,3.5c-1.1,1.3-2,2.8-3.1,4.1c-1,1.2-2.1,2.3-3.2,3.4c-0.6,0.6-1.3,1-1.7,1.7c-1,1.4-1,1.6-2.3,0.6
			c-1.8-1.3-3.5-2.9-5.2-4.4c-1.3-1.2-2.4-2.5-3.8-3.7c-1.6-1.4-3.4-2.7-5-4.2c-1.6-1.3-3-2.8-4.5-4.2c-1.2-1.1-2.5-2-3.4-3.3
			c-1.4-2.1-2.5-4.3-3.7-6.5c-0.1-0.2-0.3-0.5-0.5-0.6c-1.3-0.4-2.7-0.9-4-1.2c-1-0.2-1.8,1.3-2.2,1.9c-0.7,1.1-1.3,2.2-2,3.3
			c-0.2,0.4-0.5,0.7-0.7,1c-0.3,0.4-0.5,0.7-0.8,1.1c-2.5,3.3-5.8,5.7-8.9,8.3c-2.7,2.3-5.7,4.2-8.1,6.9c-1.3,1.5-2.6,2.9-4.1,4.1
			c-0.5,0.4-0.9,1.6-1.9,1.1c-1.1-0.7-2.2-1.5-3.2-2.3c-1.1-0.9-2.1-1.9-3.1-2.9c-2-1.9-4.2-3.6-6.1-5.7c-0.3-0.4-0.6-0.7-1-1
			c-0.3-0.3-0.7-0.4-1-0.7c-0.8-0.5-1.4-1.2-2.1-1.8c-2.9-2.8-5.9-5.4-7.8-9c-0.2-0.5-0.5-1-0.8-1.4c-0.2-0.3-0.5-0.5-0.7-0.7
			c-0.5-0.5-0.8-1.2-1.2-1.7c-1.1-1.4-3-1.1-4.5-1.2c-0.7,1.2-1.1,2.2-1.8,2.9c-1.7,1.6-3.6,3-5.3,4.6c-2.4,2.1-4.7,4.3-7,6.5
			c-1.2,1.2-2.3,2.6-3.5,3.9c-1.1,1.1-2.2,2.1-3.3,3.2c-1.7,1.7-3.5,3.4-5.2,5.1c-0.2,0.2-0.3,0.5-0.7,0.9c-0.6-0.4-1.3-0.8-2-1.2
			c-1.2-0.7-2.4-1.4-3.5-2.1c-1.2-0.9-2.3-1.9-3.6-2.8c-1.8-1.3-3.7-2.5-5.5-3.8c-1.5-1-3-2.1-4.5-3.1s-3.1-2-4.6-3.1
			s-2.9-2.2-4.3-3.4c-1.3-1.1-2.2-2.3-3.3-3.6c-0.8-1-1.8-1.8-3.1-2c-1-0.1-1.9,0.2-2.8,0.6c-0.7,0.3-0.8,0.7-1.1,1.3
			c-0.3,0.7-1,1.2-1.5,1.8c-0.9,1-1.8,1.9-2.7,2.9c-0.6,0.7-1.3,1.3-1.9,2c-1.2,1.5-2.3,2.9-3.7,4.3c-1.6,1.6-3.1,3.4-4.6,5.1
			c-1,1.1-1.9,2.3-3,3.4c-1.2,1.2-2.5,2.2-3.7,3.4c-1.4,1.5-2.7-0.3-3.8-1.2c-3.1-2.7-6.4-5.1-9.9-7.3c-0.5-0.3-1.1-0.6-1.6-1
			c-0.5-0.3-1-0.7-1.4-1.1c-1.3-1-2.6-1.9-3.8-2.9c-1.1-0.8-2.2-1.5-3.2-2.4c-2-1.7-3.9-3.5-5.8-5.3c-0.2-0.1-0.4-0.3-0.5-0.4
			c-1.5-1-3.1-2-4.5-3.2c-1.5-1.2-2.6-2.9-4.5-3.5c-1.4-0.5-2.5,0.9-3.3,1.6c-2.1,1.9-4.3,4-6.6,5.9c-3,2.5-6,4.9-9,7.4
			c-1.5,1.2-3,2.5-4.6,3.7c-0.9,0.7-1.9,1.4-2.9,2.1c-0.5,0.3-1,0.7-1.4,1.1c-0.4,0.4-0.6,0.9-1,1.2c-0.6,0.4-1.3,0.6-2,0.5
			c-1.4-0.2-2.7-1.1-3.9-1.9c-1.3-0.8-2.6-1.7-3.9-2.7C893.6,27,888.2,23,884,17.9c-0.2-0.2-0.4-0.5-0.6-0.7c-1.3-1.7-3-3.8-3-6
			c-0.6-1.3-1.8-1.5-2.7-2.2c-0.3-0.2-0.9-0.2-1.6-0.3c-0.3,0.2-0.8,0.5-1.3,0.9c-0.8,0.7-1.6,1.5-2.3,2.3c-1.1,1.1-2.1,2.2-3.1,3.4
			c-0.7,0.8-1.3,1.6-2,2.4c-1.1,1.2-2.3,2.4-3.4,3.6c-1.4,1.5-2.7,3.2-4.2,4.6c-1.6,1.5-3.5,2.8-5.2,4.2c-2,1.7-4,3.4-6.1,5
			c-1,0.8-2.1,1.4-3.1,2.2c-0.7,0.6-1.3,1-2.1,0.5c-1.8-1-3.6-2.1-5.3-3.2c-1.2-0.8-2.4-1.7-3.5-2.5c-0.9-0.6-1.8-1.2-2.7-1.8
			c-0.6-0.4-1.2-0.7-1.7-1.2c-0.5-0.4-0.8-1-1.4-1.4c-0.5-0.4-1.1-0.6-1.6-1.1c-0.7-0.7-1.3-1.4-2-2c-0.4-0.3-0.7-0.6-1.1-1
			c-0.8-0.7-1.5-1.5-2.3-2.2s-1.9-1.2-2.7-1.9c-1.5-1.2-2.4-2.9-3.3-4.6c-0.5-1-1.2-2.2-2.5-2.7c-1.2-0.4-3.6,0-4.3,1.1
			c-0.7,1-1.4,2.1-2.3,3c-2.7,2.5-5.5,5-8.3,7.4c-1.2,1-2.3,2-3.5,3c-1.7,1.4-3.4,2.7-5,4.2c-1.1,0.9-2.1,2-3.2,2.9
			c-1.6,1.4-3.2,2.7-4.8,4c-0.9,0.7-1.7,1.8-3,1.3c-0.9-0.4-1.8-0.9-2.7-1.4c-1.2-0.7-2.5-1.3-3.6-2.2c-2-1.6-3.9-3.2-5.8-4.9
			c-1.8-1.6-3.6-3.2-5.2-4.8c-1.1-1.1-2-2.4-3.1-3.6c-1-1.2-2.1-2.3-2.7-3.8c-0.2-0.4-0.3-0.9-0.4-1.3c-0.4-1-1.1-1.9-1.8-2.7
			s-1.7-1.1-2.7-1c-1.8,0.3-2.5,1.8-3.5,3c-1.2,1.3-2.3,2.8-3.6,4c-1.3,1.3-2.8,2.5-4.2,3.8c-2.1,1.8-4.3,3.6-6.5,5.4
			c-1,0.8-2,1.4-3,2.1c-1.1,0.8-2.2,1.6-3.4,2.3c-1.1,0.7-2.4,1.4-3.5,2.2s-2.1,1.8-3.3,2.6c-0.4,0.3-1.1,0.3-1.5,0.1
			c-1.7-0.7-3.3-1.6-4.9-2.4c-0.1,0-0.2-0.1-0.2-0.2c-2-1.6-4.1-3.2-6.1-4.8c-1.7-1.4-3.4-2.9-5.1-4.3c-1.6-1.3-3.2-2.6-4.9-3.7
			c-2-1.2-3.7-2.7-5.3-4.3c-1.5-1.6-2.9-3.3-4.3-4.9c-0.2-0.2-0.3-0.7-0.6-0.8c-0.7-0.2-0.6-0.7-0.7-1.2c-0.1-1.3-2.4-2.5-3.6-1.9
			c-1,0.5-1.6,1.3-2.4,2c-2.1,2-4.4,3.9-6.6,5.8c-1.6,1.4-3.2,3-4.7,4.5c-2,1.9-3.9,3.8-5.9,5.7c-2.5,2.4-5,4.9-7.5,7.3
			c-0.3,0.2-0.5,0.5-0.7,0.8c-0.8,2-2.6,2.6-4.4,2.1c-1.2-0.4-2.4-1.1-3.5-1.7c-2.3-1.3-4.7-2.4-6.9-3.9c-2.3-1.5-4.5-3.3-6.7-5.1
			c-0.6-0.5-1-1.3-1.5-1.8c-1.4-1.3-2.9-2.5-4.3-3.9c-0.5-0.4-0.8-1-1.2-1.5c-1-1.3-2-2.5-3-3.8c-0.5-0.7-0.9-1.5-1.4-2.2
			c-0.3-0.4-0.4-1-0.7-1.3c-0.7-0.6-1.5-1.2-2.3-1.7c-0.7-0.5-3.1-0.7-3.5-0.2c-0.6,0.7-1,1.5-1.6,2.3c-1.1,1.4-2.1,2.8-3.3,4
			c-2.1,1.9-4.3,3.6-6.5,5.4c-1.6,1.3-3.4,2.5-5,3.8c-0.5,0.4-0.9,0.9-1.5,1.3c-1.1,0.7-2.2,1.4-3.3,2.1c-1.6,1.1-3,2.3-4.6,3.4
			c-1.6,1.2-3.3,2.3-4.9,3.6c-1.7,1.3-3.3,2.8-4.9,4.2c-0.8,0.7-1.4,0.6-2-0.3c-0.1-0.1-0.3-0.2-0.4-0.3c-1.6-1-3.4-1.9-4.9-3.1
			c-1.9-1.5-3.7-3.2-5.5-4.8c-2.1-1.9-4.2-3.9-6.3-5.8c-0.5-0.5-1-0.9-1.6-1.3c-1.1-0.8-2.2-1.7-2.9-3c-0.3-0.6-1-1.1-1.6-1.5
			c-0.4-0.3-0.9-0.2-1.3-0.5c-1.1-0.7-2.7-0.1-3.3,1c-0.4,0.8-0.8,1.6-1.4,2.3c-1.1,1.3-2.4,2.5-3.6,3.7c-1.1,1.1-2.2,2.3-3.5,3.3
			c-1.9,1.4-4,2.7-5.9,4.1c-2,1.5-4,3-6,4.5c-1.3,1-2.6,2.2-4,3c-1.8,1.1-3.6,1.9-5.7,0.3c-2.2-1.7-4.6-3.1-6.9-4.6
			c-1.2-0.8-2.6-1.4-3.8-2.3c-2.7-2.1-5.7-3.8-8-6.3c-1.4-1.5-2.9-2.8-4.3-4.2c-1.1-1.2-2.4-2.4-2.3-4.3c0-0.2-0.1-0.5-0.3-0.6
			c-1.1-1.1-2.5-1.7-4-1.9c-0.4,0-0.9,0.2-1.2,0.5c-1,1-1.9,2.2-3,3.2c-2.3,2-4.8,3.7-7.2,5.5c-1.9,1.4-3.9,2.9-5.6,4.6
			c-1.8,1.6-3.3,3.4-5,5.1c-1.9,2-3.9,3.9-5.8,5.8c-0.4,0.4-1.1,0.9-1.5,0.7c-1.1-0.4-2.1-1-3-1.7c-1.4-1-2.8-2.1-4.2-3.2
			c-3.2-2.5-6.2-5.1-9.1-8c-0.2-0.2-0.4-0.4-0.6-0.6c-1.3-1.3-2.8-2.6-4.1-4c-1.2-1.3-2.2-2.6-3.2-4c-0.5-0.7-1.1-1.5-1.4-2.3
			c-0.3-1.1-0.9-1.9-1.8-2.4c-1-0.5-2.2-1-3.2-0.4c-1.2,0.8-2,2-3,3.1c-0.5,0.5-0.9,1.2-1.4,1.6c-1.1,0.8-2.3,1.4-3.4,2
			c-0.7,0.4-1.4,0.7-2.1,1.1c-1.4,1-2.8,2-4.2,3c-1,0.7-2.2,1.4-3,2.3c-1.7,1.8-3.2,3.8-4.9,5.6c-1.2,1.3-2.5,2.5-3.7,3.8
			s-2.2,2.8-3.3,4.1c-0.4,0.4-1.1,1-1.4,0.8c-1.3-0.4-2.5-1-3.6-1.8c-2.4-1.8-4.6-3.8-7-5.7c-2.2-1.8-4.6-3.4-6.8-5.3
			c-1.9-1.6-3.7-3.3-5.5-4.9c-1.7-1.5-3.3-3-5-4.5c-0.6-0.6-1.2-1.2-1.8-1.8c-0.7-0.8-1.3-1.7-1.9-2.5c-0.4-0.6-0.6-1.3-1.1-1.9
			c-1-1.3-4.1-1.4-5.3-0.2c-0.6,0.6-1.2,1.3-1.7,2c-0.4,0.6-0.6,1.3-1.1,1.8c-1.6,1.5-3.3,2.9-4.9,4.4c-1.3,1.2-2.7,2.4-4,3.7
			c-1.2,1.2-2.3,2.5-3.4,3.7c-1,1.1-1.9,2.1-2.8,3.3c-1.1,1.4-2.2,2.8-3.4,4.1c-0.8,1-1.8,1.8-2.7,2.7c-0.7,0.8-1.1,0.9-1.9,0.1
			c-0.2-0.2-0.3-0.3-0.5-0.5c-1.7-1.2-3.4-2.4-5-3.6c-0.5-0.3-0.9-0.8-1.3-1.1c-1.7-1.3-3.3-2.6-5-3.9c-2.5-2-5-3.9-7.5-6
			c-0.9-0.7-2-1.2-2.8-1.9c-2.1-1.9-4.1-3.9-5.9-6c-1-1.2-2.3-2.3-2.7-4c-0.5-1.8-2.4-2.1-3.7-3.2c-0.2-0.2-0.8-0.1-1.2,0
			c-1.2,0.1-1.9,0.9-2.7,1.7c-1.4,1.5-3.1,2.7-4.8,4c-2.5,2-5,4-7.6,5.9c-2.3,1.7-4.7,3.1-7,4.8c-1.3,1-2.3,2.3-3.4,3.5
			c-1.1,1.3-2,2.8-3.1,4.1c-1,1.2-2.1,2.3-3.2,3.4c-0.6,0.6-1.3,1-1.7,1.7c-1,1.4-1,1.6-2.3,0.6c-1.8-1.3-3.5-2.9-5.2-4.4
			c-1.3-1.2-2.4-2.5-3.8-3.7c-1.6-1.4-3.4-2.7-5-4.2c-1.6-1.3-3-2.8-4.5-4.2c-1.2-1.1-2.5-2-3.4-3.3c-1.4-2.1-2.5-4.3-3.7-6.5
			c-0.1-0.2-0.3-0.5-0.5-0.6c-1.3-0.4-2.7-0.9-4-1.2c-1-0.2-1.8,1.3-2.2,1.9c-0.7,1.1-1.3,2.2-2,3.3c-0.2,0.4-0.5,0.7-0.7,1
			c-0.3,0.4-0.5,0.7-0.8,1.1c-2.5,3.3-5.8,5.7-8.9,8.3c-2.7,2.3-5.7,4.2-8.1,6.9c-1.3,1.5-2.6,2.9-4.1,4.1c-0.5,0.4-0.9,1.6-1.9,1.1
			c-1.1-0.7-2.2-1.5-3.2-2.3c-1.1-0.9-2.1-1.9-3.1-2.9c-2-1.9-4.2-3.6-6.1-5.7c-0.3-0.4-0.6-0.7-1-1c-0.3-0.3-0.7-0.4-1-0.7
			c-0.8-0.5-1.4-1.2-2.1-1.8c-2.9-2.8-5.9-5.4-7.8-9c-0.2-0.5-0.5-1-0.8-1.4c-0.2-0.3-0.5-0.5-0.7-0.7c-0.5-0.5-0.8-1.2-1.2-1.7
			c-1.1-1.4-3-1.1-4.5-1.2c-0.7,1.2-1.1,2.2-1.8,2.9c-1.7,1.6-3.6,3-5.3,4.6c-2.4,2.1-4.7,4.3-7,6.5c-1.2,1.2-2.3,2.6-3.5,3.9
			c-1.1,1.1-2.2,2.1-3.3,3.2c-1.7,1.7-3.5,3.4-5.2,5.1c-0.2,0.2-0.3,0.5-0.7,0.9c-0.6-0.4-1.3-0.8-2-1.2c-1.2-0.7-2.4-1.4-3.5-2.1
			c-1.2-0.9-2.3-1.9-3.6-2.8c-1.8-1.3-3.7-2.5-5.5-3.8c-1.5-1-3-2.1-4.5-3.1s-3.1-2-4.6-3.1s-2.9-2.2-4.3-3.4
			c-1.3-1.1-2.2-2.3-3.3-3.6c-0.8-1-1.8-1.8-3.1-2c-1-0.1-1.9,0.2-2.8,0.6c-0.7,0.3-0.8,0.7-1.1,1.3c-0.3,0.7-1,1.2-1.5,1.8
			c-0.9,1-1.8,1.9-2.7,2.9c-0.6,0.7-1.3,1.3-1.9,2c-1.2,1.5-2.3,2.9-3.7,4.3c-1.6,1.6-3.1,3.4-4.6,5.1c-1,1.1-1.9,2.3-3,3.4
			c-1.2,1.2-2.5,2.2-3.7,3.4c-1.4,1.5-2.7-0.3-3.8-1.2c-3.1-2.7-6.4-5.1-9.9-7.3c-0.5-0.3-1.1-0.6-1.6-1c-0.5-0.3-1-0.7-1.4-1.1
			c-1.3-1-2.6-1.9-3.8-2.9c-1.1-0.8-2.2-1.5-3.2-2.4c-2-1.7-3.9-3.5-5.8-5.3c-0.2-0.1-0.4-0.3-0.5-0.4c-1.5-1-3.1-2-4.5-3.2
			c-1.5-1.2-2.6-2.9-4.5-3.5c-1.4-0.5-2.5,0.9-3.3,1.6c-2.1,1.9-4.3,4-6.6,5.9c-3,2.5-6,4.9-9,7.4c-1.5,1.2-3,2.5-4.6,3.7
			c-0.9,0.7-1.9,1.4-2.9,2.1c-0.5,0.3-1,0.7-1.4,1.1c-0.4,0.4-0.6,0.9-1,1.2c-0.6,0.4-1.3,0.6-2,0.5c-1.4-0.2-2.7-1.1-3.9-1.9
			c-1.3-0.8-2.6-1.7-3.9-2.7c-2.4-1.9-4.6-4.1-6.7-6.3c-0.2-0.2-2.4-2-3.6-2.8c0.1,2.6,0.3,5.2,0.4,7.8c0,0.6,0.1,1.2,0.3,1.8
			c0.2,0.5,0.6,0.9,1,1.3c3.6,3.7,7.4,7.2,11.4,10.5c0.6,0.5,1.2,1,2,1.2c2,0.6,4.1-0.8,5.7-2.2C29,35,36.9,28.4,45,21.9
			c0.6-0.5,1.1-1.1,1.7-1.4c0.7-0.3,1.7-0.8,2.3-0.5c1.3,0.5,2.5,1.4,3.6,2.3c1.7,1.3,3.3,2.8,5,4.2c0.7,0.6,1.5,1.1,2.2,1.7
			c0.9,0.7,1.7,1.5,2.6,2.2c0.9,0.7,1.8,1.3,2.7,2c0.9,0.7,1.6,1.4,2.5,2c1.7,1.3,3.4,2.4,5.1,3.7c0.7,0.6,1.4,1.3,2.1,1.8
			c1.5,1,3,2,4.5,3c0.6,0.4,1.1,1,1.6,1.5c1.1,1,2.4,1.9,3.3,3.1c0.9,1.4,2,1.5,3.4,1.4c0.9,0,1.5-0.5,2.3-0.9s1.4-0.6,1.9-1.3
			c1.1-1.6,2.2-3.4,3.6-4.9c1.5-1.6,3.1-3.1,4.6-4.7c2.2-2.4,4.4-5,6.5-7.5c1.3-1.6,2.5-3.3,3.9-4.7c1-1.2,1.9-1.5,2.7-1
			c1,0.6,2.1,1.3,3.1,2c1.6,1.2,3.1,2.5,4.7,3.8c1.3,1,2.6,2.1,4,3c1,0.7,2.1,1.3,3.1,2c2.1,1.6,4.2,3.4,6.4,4.9
			c2.6,1.9,5.4,3.8,7.7,6.1c1.1,1.1,2.2,2.3,3.7,2.6c1.1,0.2,2.1-0.1,3.2-0.3c0.6-0.2,1.3-0.3,1.8-0.7c1-0.8,1.2-2,1.7-3.1
			c0.5-1,1.7-1.9,2.5-2.7c2.6-2.6,5.1-5.3,7.7-7.9c0.9-0.9,2-1.8,2.9-2.7c1.1-1.2,2.1-2.5,3.2-3.6c1.7-1.6,3.4-3.1,5.2-4.6
			c1.2-1,1.2-1,2.3,0.1c0.4,0.5,0.9,1,1.3,1.4c1.3,1.3,2.5,2.7,3.8,4c1.2,1.2,2.6,2.3,3.9,3.5c2.1,2,4,4.1,6.1,6
			c2.9,2.6,5.9,5.1,8.9,7.7c1.2,1.1,2.2,2.3,3.4,3.4c0.3,0.3,0.7,0.7,1.1,0.7c1.9,0.4,3.7,0.7,5.4-0.7c0.9-0.7,1.4-1.3,1.5-2.4
			c0-0.4,0.2-0.8,0.4-1.1c0.7-0.9,1.5-1.7,2.3-2.5c1-1,2-2.2,3-3.1c1.2-1,2.6-1.9,3.8-2.9c1.7-1.4,3.3-2.9,5-4.3
			c1.8-1.5,3.7-3.1,5.7-4.4c1.4-0.9,3.2-1.6,4-3.4c0-0.1,0.7-0.2,0.8,0c1.2,1,2.3,2.1,3.4,3.2c1,0.9,1.9,2,2.9,2.9
			c1.4,1.3,2.9,2.6,4.4,3.9c1.1,1,2.3,2,3.4,3.1c1.6,1.6,3.2,3.3,4.8,4.8c2.2,2.1,4.6,4,6.8,6.1c0.9,0.9,1.8,1.6,3,2.1
			c1.3,0.5,2.2-0.1,3.3-0.3c1.5-0.3,2.3-1.4,2.2-3c0-0.2,0-0.5,0.2-0.7c0.8-1.1,1.7-2.3,2.6-3.4c4.7-5.5,9.6-10.9,15.4-15.2
			c1.7-1.2,3.5-2.3,5.1-3.8c1.5-1.5,3.3-2.7,5-4c0.5-0.4,0.9-0.5,1.3,0.1c0.3,0.4,0.6,0.8,1,1.1c1.1,1.1,2.3,2.3,3.4,3.4
			c1.7,1.6,3.4,3.3,5.2,4.8c1.7,1.4,3.7,2.5,5.5,4c2.1,1.7,3.9,3.6,5.9,5.3c0.9,0.7,1.9,1.3,2.8,2c2.1,1.7,4.1,3.4,6.1,5.1
			c1.1,0.9,2.2,1.8,3,2.9c1,1.6,2.2,1.9,4,1.9c0.8,0,1.6,0,2.2-0.3c0.8-0.4,2.1-0.5,2.1-1.9c0-1,0.6-1.6,1.2-2.3
			c1.2-1.3,2.4-2.6,3.5-4c1.2-1.5,2.1-3.2,3.3-4.6c1.9-2.2,3.9-4.3,6-6.4c1.3-1.3,2.8-2.5,4.2-3.7c1.2-1.1,2.4-2.2,3.7-3.2
			c0.2-0.2,0.9-0.2,1.1,0c1.4,1.2,2.7,2.5,4.1,3.7c1.8,1.6,3.5,3.2,5.3,4.8c1.5,1.3,2.9,2.6,4.4,3.9c1.3,1.1,2.7,2.2,4.1,3.3
			c1.8,1.4,3.6,2.8,5.4,4.2c1.7,1.3,3.4,2.6,5.1,3.9c1.6,1.2,3.2,2.5,4.8,3.7c0.3,0.3,0.6,0.7,1,0.8c1,0.1,2.1,0.2,3.1,0.1
			c1.8-0.3,3.3-1.2,3.7-3.1c0.3-1.4,0.5-2.6,1.5-3.6c1.4-1.4,2.6-2.9,3.9-4.4c1.3-1.4,2.5-2.9,3.8-4.3c0.8-0.9,1.6-1.9,2.5-2.7
			c1.7-1.5,3.5-2.7,5.5-3.8c2.4-1.3,4.5-3,6.8-4.6c1-0.7,1.6-0.7,2.4,0.2c1.3,1.5,2.6,3.1,4,4.6c1.5,1.6,3.2,3,4.8,4.5
			c1.2,1.1,2.3,2.3,3.4,3.4c0.4,0.4,0.9,0.8,1.4,1.2c1.8,1.4,3.5,2.7,5.3,4.1c1.8,1.3,3.5,2.6,5.3,4c1.1,0.9,2,1.9,3,2.8
			c0.4,0.4,1,0.8,1.5,0.8c1.2,0,2.4-0.3,3.5-0.4c1.5-0.2,2.1-0.9,2.1-2.3c0-0.3,0.1-0.7,0.2-0.9c0.7-1.5,1.8-2.7,3-3.8
			c1.8-1.6,3.4-3.4,5.2-5c1.3-1.2,2.7-2.4,4.1-3.6c1.4-1.1,3-1.9,4.2-3.2c1.9-2.1,4.2-3.5,6.5-4.9c0.4-0.2,1.3-0.1,1.7,0.2
			c1.6,1.4,3.1,3,4.6,4.6c1.8,1.9,3.8,3.4,5.9,5c1.1,0.8,2.2,1.7,3.3,2.5c0.9,0.7,1.8,1.3,2.8,2c2.1,1.3,4.2,2.6,6.2,3.9
			c1.1,0.7,2.1,1.6,3.2,2.2c1.3,0.7,2.1,1.7,2.8,2.8c0.6,0.9,2,1.7,3,1.8c1.3,0.1,2.5-0.4,3.5-0.9c0.9-0.5,2-1.5,2.1-2.3
			c0.1-1.5,0.7-2.3,1.7-3.1c1.3-0.9,2.5-1.9,3.8-3c1.1-1,2.2-2,3.4-3c1.1-0.9,2.2-1.7,3.3-2.5c0.7-0.5,1.3-1.1,2-1.5
			c1.2-0.8,2.5-1.6,3.7-2.4c0.6-0.4,1.3-0.8,1.8-1.3c1.3-1.2,2.4-2.5,3.7-3.6c0.2-0.2,0.8-0.3,1.1-0.1c2.4,1.5,4.7,3.2,6.4,5.4
			c0.4,0.5,0.9,0.9,1.4,1.3c1.9,1.6,3.8,3.3,5.7,4.9c1.4,1.2,2.8,2.3,4.2,3.4c1.5,1.2,3.3,2.2,4.6,3.6c1.7,1.8,3.7,1.7,5.8,1.4
			c0.9-0.1,2-0.7,2.3-2c0.1-0.2,0.2-0.4,0.4-0.7c1.1-1.6,2.6-2.8,4.2-3.9c1.2-0.8,2.2-2.1,3.3-3c1.6-1.2,3.3-2.3,4.9-3.5
			c1.9-1.5,3.8-3.1,5.7-4.5c2.4-1.8,4.9-3.5,7.2-5.4c2.3-1.8,4.5-3.7,6.9-5.5c0.5-0.3,1.6-0.4,2-0.1c0.8,0.5,1.4,1.5,2.1,2.2
			c1.6,1.8,3.2,3.7,4.9,5.4c1.3,1.4,2.8,2.6,4.3,3.9c0.7,0.6,1.5,1.2,2.3,1.8c1,0.7,2,1.5,3,2.1c1.7,1.1,3.4,2.1,5.1,3.2
			c3.1,1.9,6.6,3.3,9.7,5.3c0.7,0.4,1.4,0.9,2.2,1.3c0.6,0.3,1.3,0.5,2,0.6c1,0.2,2.1,0.2,3-0.3c0.6-0.3,1-0.9,1.3-1.5
			c0.4-0.8,0.6-1.7,1-2.6c0.6-1.7,2.2-3.1,3.4-4.5c0.9-1.1,2-2,2.9-3.1c1.3-1.4,2.5-3,3.9-4.3c1-1,2.2-1.9,3.3-2.9
			c2.6-2.3,5.1-4.7,7.6-7c0.8-0.8,1.8-1.4,2.7-2.1c0.7,0.6,1.4,1.3,2,1.9c2.3,2.2,4.6,4.3,6.9,6.4c0.9,0.8,1.9,1.4,2.9,2.2
			c1.5,1.1,2.9,2.3,4.4,3.5c0.9,0.7,1.6,1.7,2.5,2.4c1.5,1.2,3.1,2.3,4.6,3.4c1.4,1,2.8,2.1,4.2,3.1c1,0.6,2,1.1,3,1.7
			c1,0.7,1.9,1.6,3,2.4c0.6,0.4,1.1,0.7,1.8,1c0.4,0.2,0.8,0.3,1.2,0.4c0.7,0.1,1.3-0.1,1.9-0.2c0.9-0.3,1.8-0.6,2.5-1.3
			s0.9-1.8,1.6-2.5c0.9-0.9,2-1.7,3.1-2.5c2.8-2.1,5.7-4.1,8.7-6c2.7-1.7,4.8-4.1,7.2-6.2c1.1-0.9,2.2-1.9,3.3-2.9
			c0.7-0.7,1.4-1.3,2-2.1c0.4-0.5,1-0.6,1.4-0.1c0.8,1,1.5,2,2.4,2.9c1.3,1.4,2.7,2.8,4.1,4.2c1.3,1.3,2.5,2.7,3.8,3.8
			c2.1,1.8,4.4,3.5,6.6,5.2c1.4,1.1,2.9,2.2,4.4,3.3c1,0.8,2.2,1.5,2.9,2.5c1.1,1.5,2.6,1.9,4.1,2.6c1.1,0.5,2.2,0,3.3-0.4
			s2-0.7,2.1-2.1c0-0.3,0.3-0.6,0.5-0.8c1.4-1.4,2.9-2.8,4.4-4.1c2.1-1.9,4.1-3.9,6.2-5.7c2.7-2.3,5.5-4.3,8.2-6.6
			c2.1-1.8,4.1-3.9,6.1-5.8c1.2-1.2,1.4-1.2,2.7-0.1c1.5,1.3,3.2,2.4,4.7,3.7c2.1,1.8,4.1,3.6,6.1,5.4c1,0.9,2.1,1.7,3.1,2.5
			c1.1,1,2.2,2,3.4,3c0.8,0.6,1.7,1,2.5,1.5c0.6,0.4,1.3,0.7,1.9,1.1c0.9,0.7,1.8,1.4,2.6,2.1c1,0.8,2,1.7,3,2.5
			c1,0.7,2,1.6,3.2,1.9c2.1,0.5,4.1-0.2,5.7-1.6c0.5-0.4,0.7-1.2,1.2-1.6c1.8-1.5,3.8-3,5.6-4.5c1.4-1.1,2.7-2.3,4.1-3.5
			c0.9-0.8,1.6-1.8,2.4-2.6c1.3-1.2,2.6-2.4,4-3.5c0.4-0.3,1-0.5,1.3-0.9c1.1-1.3,2.2-2.7,3.3-3.9c1.6-1.7,3.2-3.4,4.8-5
			c0.7-0.7,1.5-0.6,2,0.3c0.4,0.6,0.7,1.3,1.2,1.9s1.1,1.1,1.5,1.6c1.1,1.3,2.1,2.6,3.3,3.9c1,1.2,2.2,2.2,3.3,3.3
			c1.3,1.2,2.6,2.3,3.9,3.4c0.4,0.3,0.9,0.6,1.3,1c1.6,1.4,3.1,2.9,4.6,4.2c1.6,1.3,3.5,2.3,4.6,4.2c0.3,0.5,0.9,1,1.4,1.1
			c0.6,0.2,1.1,0.3,1.7,0.4c0,0,0,0,0.1,0c0.3,0.1,0.7,0.1,1,0.1c0.2,0,0.3,0,0.5,0.1c1.1,0.1,2.1-0.4,2.7-1.3
			c0.5-0.4,1-0.8,1.5-1.2c7.9-6.8,15.8-13.4,23.9-19.9c0.6-0.5,1.1-1.1,1.7-1.4c0.7-0.3,1.7-0.8,2.3-0.5c1.3,0.5,2.5,1.4,3.6,2.3
			c1.7,1.3,3.3,2.8,5,4.2c0.7,0.6,1.5,1.1,2.2,1.7c0.9,0.7,1.7,1.5,2.6,2.2c0.9,0.7,1.8,1.3,2.7,2s1.6,1.4,2.5,2
			c1.7,1.3,3.4,2.4,5.1,3.7c0.7,0.6,1.4,1.3,2.1,1.8c1.5,1,3,2,4.5,3c0.6,0.4,1.1,1,1.6,1.5c1.1,1,2.4,1.9,3.3,3.1
			c0.9,1.4,2,1.5,3.4,1.4c0.9,0,1.5-0.5,2.3-0.9s1.4-0.6,1.9-1.3c1.1-1.6,2.2-3.4,3.6-4.9c1.5-1.6,3.1-3.1,4.6-4.7
			c2.2-2.4,4.4-5,6.5-7.5c1.3-1.6,2.5-3.3,3.9-4.7c1-1.2,1.9-1.5,2.7-1c1,0.6,2.1,1.3,3.1,2c1.6,1.2,3.1,2.5,4.7,3.8
			c1.3,1,2.6,2.1,4,3c1,0.7,2.1,1.3,3.1,2c2.1,1.6,4.2,3.4,6.4,4.9c2.6,1.9,5.4,3.8,7.7,6.1c1.1,1.1,2.2,2.3,3.7,2.6
			c1.1,0.2,2.1-0.1,3.2-0.3c0.6-0.2,1.3-0.3,1.8-0.7c1-0.8,1.2-2,1.7-3.1c0.5-1,1.7-1.9,2.5-2.7c2.6-2.6,5.1-5.3,7.7-7.9
			c0.9-0.9,2-1.8,2.9-2.7c1.1-1.2,2.1-2.5,3.2-3.6c1.7-1.6,3.4-3.1,5.2-4.6c1.2-1,1.2-1,2.3,0.1c0.4,0.5,0.9,1,1.3,1.4
			c1.3,1.3,2.5,2.7,3.8,4c1.2,1.2,2.6,2.3,3.9,3.5c2.1,2,4,4.1,6.1,6c2.9,2.6,5.9,5.1,8.9,7.7c1.2,1.1,2.2,2.3,3.4,3.4
			c0.3,0.3,0.7,0.7,1.1,0.7c1.9,0.4,3.7,0.7,5.4-0.7c0.9-0.7,1.4-1.3,1.5-2.4c0-0.4,0.2-0.8,0.4-1.1c0.7-0.9,1.5-1.7,2.3-2.5
			c1-1,2-2.2,3-3.1c1.2-1,2.6-1.9,3.8-2.9c1.7-1.4,3.3-2.9,5-4.3c1.8-1.5,3.7-3.1,5.7-4.4c1.4-0.9,3.2-1.6,4-3.4
			c0-0.1,0.7-0.2,0.8,0c1.2,1,2.3,2.1,3.4,3.2c1,0.9,1.9,2,2.9,2.9c1.4,1.3,2.9,2.6,4.4,3.9c1.1,1,2.3,2,3.4,3.1
			c1.6,1.6,3.2,3.3,4.8,4.8c2.2,2.1,4.6,4,6.8,6.1c0.9,0.9,1.8,1.6,3,2.1c1.3,0.5,2.2-0.1,3.3-0.3c1.5-0.3,2.3-1.4,2.2-3
			c0-0.2,0-0.5,0.2-0.7c0.8-1.1,1.7-2.3,2.6-3.4c4.7-5.5,9.6-10.9,15.4-15.2c1.7-1.2,3.5-2.3,5.1-3.8c1.5-1.5,3.3-2.7,5-4
			c0.5-0.4,0.9-0.5,1.3,0.1c0.3,0.4,0.6,0.8,1,1.1c1.1,1.1,2.3,2.3,3.4,3.4c1.7,1.6,3.4,3.3,5.2,4.8c1.7,1.4,3.7,2.5,5.5,4
			c2.1,1.7,3.9,3.6,5.9,5.3c0.9,0.7,1.9,1.3,2.8,2c2.1,1.7,4.1,3.4,6.1,5.1c1.1,0.9,2.2,1.8,3,2.9c1,1.6,2.2,1.9,4,1.9
			c0.8,0,1.6,0,2.2-0.3c0.8-0.4,2.1-0.5,2.1-1.9c0-1,0.6-1.6,1.2-2.3c1.2-1.3,2.4-2.6,3.5-4c1.2-1.5,2.1-3.2,3.3-4.6
			c1.9-2.2,3.9-4.3,6-6.4c1.3-1.3,2.8-2.5,4.2-3.7c1.2-1.1,2.4-2.2,3.7-3.2c0.2-0.2,0.9-0.2,1.1,0c1.4,1.2,2.7,2.5,4.1,3.7
			c1.8,1.6,3.5,3.2,5.3,4.8c1.5,1.3,2.9,2.6,4.4,3.9c1.3,1.1,2.7,2.2,4.1,3.3c1.8,1.4,3.6,2.8,5.4,4.2c1.7,1.3,3.4,2.6,5.1,3.9
			c1.6,1.2,3.2,2.5,4.8,3.7c0.3,0.3,0.6,0.7,1,0.8c1,0.1,2.1,0.2,3.1,0.1c1.8-0.3,3.3-1.2,3.7-3.1c0.3-1.4,0.5-2.6,1.5-3.6
			c1.4-1.4,2.6-2.9,3.9-4.4c1.3-1.4,2.5-2.9,3.8-4.3c0.8-0.9,1.6-1.9,2.5-2.7c1.7-1.5,3.5-2.7,5.5-3.8c2.4-1.3,4.5-3,6.8-4.6
			c1-0.7,1.6-0.7,2.4,0.2c1.3,1.5,2.6,3.1,4,4.6c1.5,1.6,3.2,3,4.8,4.5c1.2,1.1,2.3,2.3,3.4,3.4c0.4,0.4,0.9,0.8,1.4,1.2
			c1.8,1.4,3.5,2.7,5.3,4.1c1.8,1.3,3.5,2.6,5.3,4c1.1,0.9,2,1.9,3,2.8c0.4,0.4,1,0.8,1.5,0.8c1.2,0,2.4-0.3,3.5-0.4
			c1.5-0.2,2.1-0.9,2.1-2.3c0-0.3,0.1-0.7,0.2-0.9c0.7-1.5,1.8-2.7,3-3.8c1.8-1.6,3.4-3.4,5.2-5c1.3-1.2,2.7-2.4,4.1-3.6
			c1.4-1.1,3-1.9,4.2-3.2c1.9-2.1,4.2-3.5,6.5-4.9c0.4-0.2,1.3-0.1,1.7,0.2c1.6,1.4,3.1,3,4.6,4.6c1.8,1.9,3.8,3.4,5.9,5
			c1.1,0.8,2.2,1.7,3.3,2.5c0.9,0.7,1.8,1.3,2.8,2c2.1,1.3,4.2,2.6,6.2,3.9c1.1,0.7,2.1,1.6,3.2,2.2c1.3,0.7,2.1,1.7,2.8,2.8
			c0.6,0.9,2,1.7,3,1.8c1.3,0.1,2.5-0.4,3.5-0.9c0.9-0.5,2-1.5,2.1-2.3c0.1-1.5,0.7-2.3,1.7-3.1c1.3-0.9,2.5-1.9,3.8-3
			c1.1-1,2.2-2,3.4-3c1.1-0.9,2.2-1.7,3.3-2.5c0.7-0.5,1.3-1.1,2-1.5c1.2-0.8,2.5-1.6,3.7-2.4c0.6-0.4,1.3-0.8,1.8-1.3
			c1.3-1.2,2.4-2.5,3.7-3.6c0.2-0.2,0.8-0.3,1.1-0.1c2.4,1.5,4.7,3.2,6.4,5.4c0.4,0.5,0.9,0.9,1.4,1.3c1.9,1.6,3.8,3.3,5.7,4.9
			c1.4,1.2,2.8,2.3,4.2,3.4c1.5,1.2,3.3,2.2,4.6,3.6c1.7,1.8,3.7,1.7,5.8,1.4c0.9-0.1,2-0.7,2.3-2c0.1-0.2,0.2-0.4,0.4-0.7
			c1.1-1.6,2.6-2.8,4.2-3.9c1.2-0.8,2.2-2.1,3.3-3c1.6-1.2,3.3-2.3,4.9-3.5c1.9-1.5,3.8-3.1,5.7-4.5c2.4-1.8,4.9-3.5,7.2-5.4
			c2.3-1.8,4.5-3.7,6.9-5.5c0.5-0.3,1.6-0.4,2-0.1c0.8,0.5,1.4,1.5,2.1,2.2c1.6,1.8,3.2,3.7,4.9,5.4c1.3,1.4,2.8,2.6,4.3,3.9
			c0.7,0.6,1.5,1.2,2.3,1.8c1,0.7,2,1.5,3,2.1c1.7,1.1,3.4,2.1,5.1,3.2c3.1,1.9,6.6,3.3,9.7,5.3c0.7,0.4,1.4,0.9,2.2,1.3
			c0.6,0.3,1.3,0.5,2,0.6c1,0.2,2.1,0.2,3-0.3c0.6-0.3,1-0.9,1.3-1.5c0.4-0.8,0.6-1.7,1-2.6c0.6-1.7,2.2-3.1,3.4-4.5
			c0.9-1.1,2-2,2.9-3.1c1.3-1.4,2.5-3,3.9-4.3c1-1,2.2-1.9,3.3-2.9c2.6-2.3,5.1-4.7,7.6-7c0.8-0.8,1.8-1.4,2.7-2.1
			c0.7,0.6,1.4,1.3,2,1.9c2.3,2.2,4.6,4.3,6.9,6.4c0.9,0.8,1.9,1.4,2.9,2.2c1.5,1.1,2.9,2.3,4.4,3.5c0.9,0.7,1.6,1.7,2.5,2.4
			c1.5,1.2,3.1,2.3,4.6,3.4c1.4,1,2.8,2.1,4.2,3.1c1,0.6,2,1.1,3,1.7c1,0.7,1.9,1.6,3,2.4c0.6,0.4,1.1,0.7,1.8,1
			c0.4,0.2,0.8,0.3,1.2,0.4c0.7,0.1,1.3-0.1,1.9-0.2c0.9-0.3,1.8-0.6,2.5-1.3s0.9-1.8,1.6-2.5c0.9-0.9,2-1.7,3.1-2.5
			c2.8-2.1,5.7-4.1,8.7-6c2.7-1.7,4.8-4.1,7.2-6.2c1.1-0.9,2.2-1.9,3.3-2.9c0.7-0.7,1.4-1.3,2-2.1c0.4-0.5,1-0.6,1.4-0.1
			c0.8,1,1.5,2,2.4,2.9c1.3,1.4,2.7,2.8,4.1,4.2c1.3,1.3,2.5,2.7,3.8,3.8c2.1,1.8,4.4,3.5,6.6,5.2c1.4,1.1,2.9,2.2,4.4,3.3
			c1,0.8,2.2,1.5,2.9,2.5c1.1,1.5,2.6,1.9,4.1,2.6c1.1,0.5,2.2,0,3.3-0.4c1.1-0.4,2-0.7,2.1-2.1c0-0.3,0.3-0.6,0.5-0.8
			c1.4-1.4,2.9-2.8,4.4-4.1c2.1-1.9,4.1-3.9,6.2-5.7c2.7-2.3,5.5-4.3,8.2-6.6c2.1-1.8,4.1-3.9,6.1-5.8c1.2-1.2,1.4-1.2,2.7-0.1
			c1.5,1.3,3.2,2.4,4.7,3.7c2.1,1.8,4.1,3.6,6.1,5.4c1,0.9,2.1,1.7,3.1,2.5c1.1,1,2.2,2,3.4,3c0.8,0.6,1.7,1,2.5,1.5
			c0.6,0.4,1.3,0.7,1.9,1.1c0.9,0.7,1.8,1.4,2.6,2.1c1,0.8,2,1.7,3,2.5c1,0.7,2,1.6,3.2,1.9c2.1,0.5,4.1-0.2,5.7-1.6
			c0.5-0.4,0.7-1.2,1.2-1.6c1.8-1.5,3.8-3,5.6-4.5c1.4-1.1,2.7-2.3,4.1-3.5c0.9-0.8,1.6-1.8,2.4-2.6c1.3-1.2,2.6-2.4,4-3.5
			c0.4-0.3,1-0.5,1.3-0.9c1.1-1.3,2.2-2.7,3.3-3.9c1.6-1.7,3.2-3.4,4.8-5c0.7-0.7,1.5-0.6,2,0.3c0.4,0.6,0.7,1.3,1.2,1.9
			s1.1,1.1,1.5,1.6c1.1,1.3,2.1,2.6,3.3,3.9c1,1.2,2.2,2.2,3.3,3.3c1.3,1.2,2.6,2.3,3.9,3.4c0.4,0.3,0.9,0.6,1.3,1
			c1.6,1.4,3.1,2.9,4.6,4.2c1.6,1.3,3.5,2.3,4.6,4.2c0.3,0.5,0.9,1,1.4,1.1c1.1,0.3,2.2,0.5,3.3,0.6c1.3,0.2,2.6-0.6,3-1.9
			c0.2-0.8,0.2-1.7,0.4-2.5C1797,39.7,1796.1,37.8,1795.4,37.5z"/>
		<path class="st0" d="M4.3,13.9c-0.5-0.6-1.1-1.2-1.6-1.8c-0.3-0.4-0.6-0.8-0.8-1.2c-0.2-0.6,0-1.2,0.3-1.8
			c0.9-1.5,2.9-2.2,4.6-1.6C8.2,7.9,9.1,9,9.9,10c3.6,4.4,7.2,8.7,10.8,13.1c0.5,0.6,1,1.2,1.3,1.8c2.2,4.7-3.3,5.5-6.1,3.2
			c-1.7-1.4-2.7-3.4-4-5.2C9.8,19.6,6.9,16.8,4.3,13.9z"/>
	</g>
</g>
</svg>
